%TF.GenerationSoftware,KiCad,Pcbnew,7.0.1-0*%
%TF.CreationDate,2023-07-23T14:26:31+03:00*%
%TF.ProjectId,HC2000,48433230-3030-42e6-9b69-6361645f7063,rev?*%
%TF.SameCoordinates,Original*%
%TF.FileFunction,Drillmap*%
%TF.FilePolarity,Positive*%
%FSLAX45Y45*%
G04 Gerber Fmt 4.5, Leading zero omitted, Abs format (unit mm)*
G04 Created by KiCad (PCBNEW 7.0.1-0) date 2023-07-23 14:26:31*
%MOMM*%
%LPD*%
G01*
G04 APERTURE LIST*
%ADD10C,0.100000*%
%ADD11C,0.200000*%
G04 APERTURE END LIST*
D10*
X44000000Y-27200000D02*
X44000000Y-28300000D01*
X56300000Y-11700000D02*
X56300000Y-10000000D01*
X45700000Y-28300000D02*
X45700000Y-27200000D01*
X11800000Y-26550000D02*
X10000000Y-26550000D01*
X11800000Y-28300000D02*
X44000000Y-28300000D01*
X57800000Y-11700000D02*
X57800000Y-28300000D01*
X11800000Y-11750000D02*
X10000000Y-11750000D01*
X45700000Y-27200000D02*
X44000000Y-27200000D01*
X10000000Y-11750000D02*
X10000000Y-26550000D01*
X11800000Y-10000000D02*
X11800000Y-11750000D01*
X27371000Y-10000000D02*
X27371000Y-10873000D01*
X27371000Y-10000000D02*
X11800000Y-10000000D01*
X27625000Y-10000000D02*
X56300000Y-10000000D01*
X27371000Y-10873000D02*
G75*
G03*
X27625000Y-10873000I127000J0D01*
G01*
X57800000Y-11700000D02*
X56300000Y-11700000D01*
X27625000Y-10873000D02*
X27625000Y-10000000D01*
X11800000Y-28300000D02*
X11800000Y-26550000D01*
X57800000Y-28300000D02*
X45700000Y-28300000D01*
D11*
X10242619Y-28617524D02*
X10242619Y-28417524D01*
X10242619Y-28417524D02*
X10290238Y-28417524D01*
X10290238Y-28417524D02*
X10318810Y-28427048D01*
X10318810Y-28427048D02*
X10337857Y-28446095D01*
X10337857Y-28446095D02*
X10347381Y-28465143D01*
X10347381Y-28465143D02*
X10356905Y-28503238D01*
X10356905Y-28503238D02*
X10356905Y-28531809D01*
X10356905Y-28531809D02*
X10347381Y-28569905D01*
X10347381Y-28569905D02*
X10337857Y-28588952D01*
X10337857Y-28588952D02*
X10318810Y-28608000D01*
X10318810Y-28608000D02*
X10290238Y-28617524D01*
X10290238Y-28617524D02*
X10242619Y-28617524D01*
X10442619Y-28617524D02*
X10442619Y-28484190D01*
X10442619Y-28522286D02*
X10452143Y-28503238D01*
X10452143Y-28503238D02*
X10461667Y-28493714D01*
X10461667Y-28493714D02*
X10480714Y-28484190D01*
X10480714Y-28484190D02*
X10499762Y-28484190D01*
X10566429Y-28617524D02*
X10566429Y-28484190D01*
X10566429Y-28417524D02*
X10556905Y-28427048D01*
X10556905Y-28427048D02*
X10566429Y-28436571D01*
X10566429Y-28436571D02*
X10575952Y-28427048D01*
X10575952Y-28427048D02*
X10566429Y-28417524D01*
X10566429Y-28417524D02*
X10566429Y-28436571D01*
X10690238Y-28617524D02*
X10671190Y-28608000D01*
X10671190Y-28608000D02*
X10661667Y-28588952D01*
X10661667Y-28588952D02*
X10661667Y-28417524D01*
X10795000Y-28617524D02*
X10775952Y-28608000D01*
X10775952Y-28608000D02*
X10766429Y-28588952D01*
X10766429Y-28588952D02*
X10766429Y-28417524D01*
X11023571Y-28617524D02*
X11023571Y-28417524D01*
X11023571Y-28417524D02*
X11090238Y-28560381D01*
X11090238Y-28560381D02*
X11156905Y-28417524D01*
X11156905Y-28417524D02*
X11156905Y-28617524D01*
X11337857Y-28617524D02*
X11337857Y-28512762D01*
X11337857Y-28512762D02*
X11328333Y-28493714D01*
X11328333Y-28493714D02*
X11309286Y-28484190D01*
X11309286Y-28484190D02*
X11271190Y-28484190D01*
X11271190Y-28484190D02*
X11252143Y-28493714D01*
X11337857Y-28608000D02*
X11318809Y-28617524D01*
X11318809Y-28617524D02*
X11271190Y-28617524D01*
X11271190Y-28617524D02*
X11252143Y-28608000D01*
X11252143Y-28608000D02*
X11242619Y-28588952D01*
X11242619Y-28588952D02*
X11242619Y-28569905D01*
X11242619Y-28569905D02*
X11252143Y-28550857D01*
X11252143Y-28550857D02*
X11271190Y-28541333D01*
X11271190Y-28541333D02*
X11318809Y-28541333D01*
X11318809Y-28541333D02*
X11337857Y-28531809D01*
X11433095Y-28484190D02*
X11433095Y-28684190D01*
X11433095Y-28493714D02*
X11452143Y-28484190D01*
X11452143Y-28484190D02*
X11490238Y-28484190D01*
X11490238Y-28484190D02*
X11509286Y-28493714D01*
X11509286Y-28493714D02*
X11518809Y-28503238D01*
X11518809Y-28503238D02*
X11528333Y-28522286D01*
X11528333Y-28522286D02*
X11528333Y-28579428D01*
X11528333Y-28579428D02*
X11518809Y-28598476D01*
X11518809Y-28598476D02*
X11509286Y-28608000D01*
X11509286Y-28608000D02*
X11490238Y-28617524D01*
X11490238Y-28617524D02*
X11452143Y-28617524D01*
X11452143Y-28617524D02*
X11433095Y-28608000D01*
X11614048Y-28598476D02*
X11623571Y-28608000D01*
X11623571Y-28608000D02*
X11614048Y-28617524D01*
X11614048Y-28617524D02*
X11604524Y-28608000D01*
X11604524Y-28608000D02*
X11614048Y-28598476D01*
X11614048Y-28598476D02*
X11614048Y-28617524D01*
X11614048Y-28493714D02*
X11623571Y-28503238D01*
X11623571Y-28503238D02*
X11614048Y-28512762D01*
X11614048Y-28512762D02*
X11604524Y-28503238D01*
X11604524Y-28503238D02*
X11614048Y-28493714D01*
X11614048Y-28493714D02*
X11614048Y-28512762D01*
M02*
