M48
; DRILL file {KiCad 7.0.1-0} date 2023 May 16, Tuesday 20:36:53
; FORMAT={-:-/ absolute / metric / decimal}
; #@! TF.CreationDate,2023-05-16T20:36:53+03:00
; #@! TF.GenerationSoftware,Kicad,Pcbnew,7.0.1-0
; #@! TF.FileFunction,Plated,1,2,PTH
FMAT,2
METRIC
; #@! TA.AperFunction,Plated,PTH,ViaDrill
T1C0.762
; #@! TA.AperFunction,Plated,PTH,ComponentDrill
T2C0.762
; #@! TA.AperFunction,Plated,PTH,ComponentDrill
T3C0.800
; #@! TA.AperFunction,Plated,PTH,ComponentDrill
T4C1.000
; #@! TA.AperFunction,Plated,PTH,ComponentDrill
T5C1.016
; #@! TA.AperFunction,Plated,PTH,ViaDrill
T6C1.100
; #@! TA.AperFunction,Plated,PTH,ComponentDrill
T7C1.100
; #@! TA.AperFunction,Plated,PTH,ComponentDrill
T8C1.200
; #@! TA.AperFunction,Plated,PTH,ComponentDrill
T9C1.298
; #@! TA.AperFunction,Plated,PTH,ComponentDrill
T10C2.000
; #@! TA.AperFunction,Plated,PTH,ViaDrill
T11C2.800
; #@! TA.AperFunction,Plated,PTH,ViaDrill
T12C3.000
; #@! TA.AperFunction,Plated,PTH,ComponentDrill
T13C3.200
%
G90
G05
T1
X120.04Y-248.36
X127.66Y-221.69
X131.47Y-211.53
X134.01Y-186.13
X134.01Y-231.85
X134.01Y-234.39
X134.01Y-264.235
X135.28Y-216.61
X135.28Y-269.95
X136.55Y-198.83
X136.55Y-240.74
X137.82Y-179.78
X141.63Y-224.865
X142.9Y-184.86
X142.9Y-262.965
X144.17Y-177.24
X144.17Y-221.69
X144.17Y-275.03
X145.44Y-183.59
X145.44Y-195.02
X145.44Y-240.74
X146.71Y-265.505
X147.98Y-224.23
X147.98Y-236.93
X147.98Y-272.49
X149.25Y-182.32
X149.25Y-214.07
X149.25Y-248.36
X150.52Y-222.96
X150.52Y-249.63
X151.79Y-181.05
X151.79Y-255.98
X153.06Y-220.42
X154.33Y-124.535
X154.33Y-170.89
X154.33Y-202.64
X154.33Y-242.645
X154.33Y-254.71
X155.6Y-146.76
X155.6Y-182.32
X155.6Y-195.02
X156.87Y-271.22
X157.505Y-205.18
X159.41Y-107.39
X159.41Y-130.25
X159.41Y-216.61
X160.68Y-215.34
X160.68Y-229.31
X160.68Y-236.93
X161.95Y-132.79
X161.95Y-153.11
X161.95Y-188.67
X162.585Y-211.53
X163.22Y-144.22
X163.22Y-202.64
X163.22Y-224.23
X163.22Y-250.9
X164.49Y-172.795
X164.49Y-200.1
X164.49Y-252.17
X165.76Y-167.08
X165.76Y-179.78
X165.76Y-202.64
X165.76Y-230.58
X165.76Y-243.28
X167.03Y-130.25
X167.03Y-148.03
X167.03Y-207.72
X167.03Y-216.61
X167.03Y-239.47
X167.03Y-275.03
X168.3Y-224.23
X169.57Y-168.35
X169.57Y-193.115
X170.205Y-238.2
X170.84Y-221.69
X173.38Y-172.795
X174.65Y-182.32
X174.65Y-202.64
X174.65Y-242.01
X175.92Y-205.18
X177.19Y-142.95
X177.19Y-198.83
X177.19Y-225.5
X177.19Y-238.2
X178.46Y-159.46
X178.46Y-206.45
X178.46Y-230.58
X178.46Y-248.36
X178.46Y-263.6
X179.73Y-240.74
X181.0Y-221.69
X182.27Y-172.16
X182.27Y-189.94
X182.27Y-215.34
X183.54Y-122.63
X183.54Y-145.49
X183.54Y-166.445
X183.54Y-192.48
X183.54Y-203.91
X183.54Y-206.45
X183.54Y-248.36
X183.54Y-273.125
X184.81Y-159.46
X184.81Y-182.32
X184.81Y-222.96
X186.08Y-166.445
X186.08Y-195.05
X187.35Y-122.63
X187.35Y-133.425
X187.35Y-200.1
X188.62Y-165.81
X188.62Y-169.62
X188.62Y-198.83
X188.62Y-204.545
X188.62Y-222.96
X188.62Y-264.235
X189.89Y-137.87
X189.89Y-240.74
X189.89Y-273.76
X191.16Y-126.44
X191.16Y-197.56
X191.16Y-239.47
X192.43Y-159.46
X193.7Y-132.155
X193.7Y-154.38
X194.97Y-116.28
X196.24Y-193.75
X196.24Y-212.8
X196.24Y-238.2
X196.24Y-259.79
X197.51Y-216.61
X197.51Y-234.39
X198.78Y-124.535
X198.78Y-145.49
X198.78Y-189.94
X198.78Y-207.72
X198.78Y-219.785
X198.78Y-243.28
X200.05Y-135.33
X200.05Y-141.68
X200.05Y-150.57
X201.32Y-144.22
X201.32Y-165.81
X201.32Y-185.495
X201.32Y-266.14
X201.32Y-275.03
X201.955Y-115.01
X201.955Y-117.55
X201.955Y-197.56
X201.955Y-235.66
X201.955Y-255.345
X202.59Y-125.17
X202.59Y-135.33
X202.59Y-153.11
X202.59Y-170.255
X203.225Y-181.05
X203.225Y-261.06
X203.86Y-149.3
X203.86Y-163.905
X204.495Y-105.485
X204.495Y-185.495
X204.495Y-255.345
X205.13Y-166.445
X205.13Y-182.32
X205.13Y-190.575
X205.13Y-238.2
X206.4Y-125.17
X206.4Y-131.52
X206.4Y-148.03
X206.4Y-165.175
X206.4Y-224.865
X206.4Y-239.47
X206.4Y-261.695
X207.67Y-135.33
X207.67Y-170.255
X207.67Y-192.48
X207.67Y-212.8
X207.67Y-221.055
X208.94Y-106.755
X208.94Y-130.25
X208.94Y-141.68
X211.48Y-117.55
X211.48Y-144.22
X211.48Y-167.715
X212.75Y-157.555
X212.75Y-217.88
X214.02Y-236.93
X214.02Y-239.47
X214.04Y-212.8
X215.29Y-183.59
X215.29Y-264.87
X216.56Y-151.205
X216.56Y-196.29
X216.56Y-212.8
X216.56Y-266.14
X217.83Y-135.33
X217.83Y-149.935
X217.83Y-186.765
X217.83Y-225.5
X217.83Y-255.345
X217.83Y-278.84
X219.1Y-105.485
X219.1Y-177.24
X219.1Y-204.545
X219.1Y-248.36
X219.1Y-265.505
X220.37Y-130.25
X221.64Y-158.825
X221.64Y-168.985
X221.64Y-177.24
X221.64Y-183.559
X221.64Y-219.785
X221.64Y-256.615
X221.64Y-266.14
X222.91Y-200.1
X222.91Y-204.545
X222.91Y-273.76
X224.18Y-120.09
X224.18Y-152.475
X225.45Y-115.01
X225.45Y-202.64
X225.45Y-238.2
X225.45Y-257.885
X226.72Y-203.91
X226.72Y-275.03
X229.26Y-125.17
X229.26Y-135.33
X229.26Y-141.68
X229.26Y-184.86
X231.165Y-186.765
X231.165Y-205.815
X231.8Y-141.68
X231.8Y-147.395
X231.8Y-262.33
X231.8Y-275.665
X232.435Y-196.925
X233.07Y-168.985
X233.07Y-208.99
X233.07Y-238.835
X233.07Y-253.44
X233.07Y-269.315
X233.705Y-181.05
X233.705Y-186.765
X234.34Y-160.095
X234.34Y-201.37
X234.34Y-243.28
X234.975Y-115.01
X234.975Y-126.44
X234.975Y-188.67
X235.61Y-162.0
X235.61Y-204.545
X235.61Y-222.325
X235.61Y-253.44
X236.88Y-120.09
X236.88Y-142.95
X236.88Y-163.905
X236.88Y-236.93
X238.15Y-235.66
X238.15Y-238.835
X238.15Y-271.855
X239.42Y-127.71
X239.42Y-155.015
X239.42Y-167.715
X239.42Y-221.055
X240.055Y-203.275
X240.69Y-256.615
X241.96Y-186.765
X241.96Y-200.1
X241.96Y-207.085
X241.96Y-240.105
X243.23Y-116.28
X243.23Y-132.155
X243.23Y-153.11
X243.23Y-160.73
X243.23Y-172.16
X243.23Y-177.24
X243.23Y-183.59
X243.23Y-242.01
X243.865Y-225.5
X244.5Y-135.33
X244.5Y-155.65
X244.5Y-173.43
X244.5Y-202.64
X244.5Y-235.66
X245.77Y-156.92
X245.77Y-163.27
X245.77Y-166.445
X247.04Y-128.345
X247.04Y-170.255
X247.04Y-177.24
X247.04Y-248.36
X247.04Y-265.505
X248.31Y-123.9
X248.31Y-189.94
X248.31Y-225.5
X248.31Y-240.74
X249.58Y-142.95
X249.58Y-158.19
X249.58Y-170.255
X249.58Y-203.91
X249.58Y-230.58
X249.58Y-255.345
X249.58Y-273.1
X250.85Y-130.885
X250.85Y-135.33
X250.85Y-196.925
X250.85Y-221.055
X250.85Y-267.41
X250.85Y-278.84
X252.11Y-212.8
X252.12Y-168.985
X252.12Y-183.59
X252.12Y-195.02
X252.12Y-230.58
X252.12Y-248.36
X252.755Y-275.03
X253.39Y-128.345
X253.39Y-162.0
X253.39Y-170.255
X253.39Y-243.28
X254.66Y-223.595
X254.66Y-239.47
X254.66Y-255.98
X255.295Y-158.19
X255.295Y-266.14
X255.295Y-276.3
X255.93Y-142.95
X255.93Y-170.89
X255.93Y-204.545
X255.93Y-235.66
X255.93Y-271.855
X257.2Y-134.06
X257.2Y-185.495
X257.2Y-265.505
X258.47Y-132.155
X258.47Y-149.3
X258.47Y-230.58
X258.47Y-268.045
X258.47Y-273.17
X259.74Y-122.63
X259.74Y-133.425
X259.74Y-158.825
X259.74Y-185.495
X259.74Y-195.02
X261.01Y-135.33
X261.01Y-161.365
X261.01Y-189.94
X261.01Y-205.815
X261.01Y-222.325
X262.28Y-113.74
X263.55Y-150.57
X263.55Y-160.73
X263.55Y-203.91
X264.82Y-112.47
X264.82Y-135.965
X264.82Y-226.77
X266.09Y-119.455
X266.09Y-203.91
X267.36Y-153.11
X267.36Y-182.955
X267.36Y-234.39
X267.36Y-263.6
X267.995Y-115.645
X268.63Y-149.3
X268.63Y-168.35
X268.63Y-181.05
X268.63Y-230.58
X268.63Y-254.075
X268.63Y-275.03
X269.9Y-120.09
X269.9Y-134.695
X269.9Y-150.57
X269.9Y-160.095
X269.9Y-182.955
X269.9Y-218.515
X269.9Y-266.14
X271.17Y-123.265
X271.17Y-170.255
X271.17Y-188.035
X271.17Y-224.23
X271.17Y-238.835
X272.44Y-117.55
X272.44Y-126.44
X272.44Y-149.3
X272.44Y-216.61
X272.44Y-255.98
X273.075Y-167.08
X273.71Y-112.47
X273.71Y-129.615
X273.71Y-151.84
X273.71Y-184.225
X273.71Y-212.8
X274.345Y-200.1
X274.98Y-114.375
X274.98Y-116.28
X274.98Y-148.03
X274.98Y-168.35
X274.98Y-187.4
X274.98Y-226.77
X276.25Y-208.99
X276.25Y-212.8
X276.885Y-113.74
X276.885Y-118.185
X276.885Y-172.795
X277.52Y-146.76
X277.52Y-201.37
X277.52Y-262.965
X278.155Y-112.47
X278.79Y-136.6
X278.79Y-168.985
X278.79Y-191.21
X279.425Y-221.055
X280.06Y-173.43
X280.06Y-186.765
X280.695Y-120.09
X280.695Y-203.91
X281.33Y-125.805
X281.33Y-163.27
X281.33Y-236.93
X282.6Y-123.265
X282.6Y-155.65
X282.6Y-177.24
X282.6Y-205.18
X283.87Y-217.88
X283.87Y-236.93
X283.87Y-261.06
X285.14Y-112.47
X285.14Y-202.005
X285.14Y-255.98
X286.41Y-120.09
X286.41Y-163.27
X286.41Y-205.815
X286.41Y-236.93
X287.68Y-134.695
X287.68Y-153.11
X287.68Y-185.495
X288.95Y-125.805
X288.95Y-130.885
X288.95Y-145.49
X288.95Y-159.46
X288.95Y-205.815
X288.95Y-257.25
X289.585Y-195.02
X290.22Y-129.615
X290.22Y-185.495
X290.22Y-202.64
X290.22Y-230.58
X291.49Y-136.6
X291.49Y-165.81
X291.49Y-222.325
X291.49Y-260.425
X292.76Y-112.47
X292.76Y-125.805
X292.76Y-137.87
X292.76Y-168.35
X292.76Y-195.02
X292.76Y-203.275
X292.76Y-240.105
X294.03Y-144.22
X294.03Y-149.3
X294.03Y-159.46
X294.03Y-165.81
X294.03Y-171.525
X294.03Y-207.72
X295.3Y-112.47
X296.57Y-124.535
X296.57Y-257.885
X296.57Y-259.79
X296.57Y-266.14
X297.205Y-187.4
X297.84Y-120.09
X297.84Y-128.345
X297.84Y-146.76
X299.11Y-112.47
X299.11Y-131.52
X299.11Y-168.35
X299.11Y-171.525
X299.11Y-184.225
X299.11Y-205.815
X300.38Y-113.74
X300.38Y-152.475
X301.65Y-134.695
X301.65Y-218.515
X302.92Y-112.47
X302.92Y-138.505
X302.92Y-198.83
X302.92Y-243.28
X303.555Y-268.68
X304.19Y-115.01
X304.19Y-162.635
X304.19Y-242.01
X304.19Y-262.33
X305.46Y-185.495
X306.73Y-167.08
X306.73Y-182.955
X306.73Y-255.98
X308.0Y-111.835
X308.0Y-113.74
X308.0Y-208.99
X308.0Y-217.88
X308.0Y-273.76
X308.635Y-240.74
X309.27Y-128.98
X309.27Y-142.95
X309.27Y-148.03
X309.27Y-173.43
X309.27Y-203.275
X309.27Y-277.57
X310.54Y-141.68
X310.54Y-144.22
X310.54Y-181.05
X310.54Y-189.94
X310.54Y-208.99
X310.54Y-230.58
X311.175Y-175.335
X311.175Y-238.2
X311.81Y-123.9
X311.81Y-198.83
X311.81Y-220.42
X313.08Y-185.495
X313.08Y-195.02
X313.08Y-205.815
X313.08Y-207.72
X313.08Y-243.28
X313.08Y-269.95
X314.35Y-111.835
X314.35Y-131.52
X314.35Y-204.47
X315.62Y-161.365
X315.62Y-164.54
X315.62Y-170.255
X315.62Y-195.02
X315.62Y-226.77
X315.62Y-230.58
X315.62Y-253.44
X316.89Y-221.69
X319.43Y-160.73
X320.7Y-153.745
X320.7Y-165.81
X320.7Y-236.93
X321.335Y-259.155
X321.97Y-112.47
X321.97Y-128.98
X321.97Y-207.72
X321.97Y-253.44
X323.24Y-136.6
X323.24Y-152.475
X324.51Y-127.075
X324.51Y-254.71
X325.78Y-112.47
X325.78Y-130.25
X325.78Y-133.425
X325.78Y-139.14
X325.78Y-150.57
X325.78Y-195.02
X325.78Y-205.815
X327.05Y-134.695
X327.05Y-158.19
X327.05Y-200.1
X328.32Y-112.47
X328.32Y-149.3
X328.32Y-189.305
X328.32Y-258.52
X329.59Y-136.6
X329.59Y-142.95
X329.59Y-162.0
X329.59Y-168.35
X329.59Y-195.02
X329.59Y-219.15
X329.59Y-230.58
X329.59Y-243.28
X330.86Y-112.47
X330.86Y-131.52
X330.86Y-149.3
X330.86Y-163.27
X330.86Y-259.79
X332.13Y-133.425
X332.13Y-217.88
X333.4Y-149.3
X333.4Y-177.24
X334.67Y-122.63
X334.67Y-132.79
X334.67Y-160.095
X334.67Y-171.525
X334.67Y-204.545
X335.94Y-147.395
X335.94Y-167.08
X337.21Y-122.63
X337.21Y-145.49
X337.21Y-148.665
X337.21Y-164.54
X337.21Y-206.45
X338.48Y-207.72
X339.75Y-183.59
X339.75Y-205.815
X339.75Y-225.5
X339.75Y-263.6
X341.02Y-115.645
X341.02Y-168.35
X341.02Y-207.72
X341.02Y-248.36
X342.29Y-158.19
X342.29Y-188.67
X342.925Y-221.055
X343.56Y-125.805
X343.56Y-161.365
X343.56Y-191.21
X344.195Y-200.1
X344.195Y-236.295
X344.83Y-128.98
X346.1Y-137.87
X346.1Y-177.24
X346.1Y-189.94
X346.1Y-236.93
X347.37Y-167.08
X347.37Y-217.88
X347.37Y-234.39
X348.64Y-137.87
X348.64Y-142.95
X348.64Y-169.62
X348.64Y-224.865
X348.64Y-237.565
X348.64Y-261.06
X349.91Y-114.375
X349.91Y-128.98
X349.91Y-158.19
X349.91Y-203.91
X351.18Y-112.47
X351.18Y-142.95
X351.18Y-222.96
X351.815Y-155.65
X351.815Y-169.62
X351.815Y-183.59
X352.45Y-130.25
X352.45Y-140.41
X353.72Y-177.24
X354.99Y-219.15
X354.99Y-257.25
X355.625Y-141.68
X356.26Y-195.02
X356.26Y-201.37
X356.26Y-240.74
X357.53Y-204.545
X357.53Y-236.93
X358.8Y-140.41
X358.8Y-273.125
X360.07Y-163.27
X360.07Y-196.29
X360.07Y-224.23
X360.07Y-255.98
X361.34Y-159.46
X361.34Y-205.18
X361.34Y-230.58
X361.34Y-239.47
X361.34Y-248.36
X362.61Y-149.935
X362.61Y-164.54
X362.61Y-196.29
X362.61Y-259.79
X362.61Y-273.05
X363.88Y-186.13
X363.88Y-221.69
X363.88Y-236.93
X363.88Y-239.47
X365.15Y-125.17
X365.15Y-167.715
X365.15Y-177.24
X365.15Y-238.2
X365.15Y-248.36
X366.42Y-151.84
X366.42Y-159.46
X366.42Y-183.59
X366.42Y-202.005
X367.69Y-168.35
X367.69Y-204.545
X367.69Y-257.25
X368.96Y-118.185
X368.96Y-177.24
X368.96Y-223.595
X370.23Y-170.255
X370.23Y-188.67
X370.23Y-214.705
X370.23Y-239.47
X371.5Y-167.715
X371.5Y-187.4
X371.5Y-238.2
X372.77Y-141.68
X372.77Y-163.27
X372.77Y-189.94
X374.04Y-196.29
X374.04Y-228.675
X374.04Y-255.98
X374.04Y-275.665
X375.945Y-127.71
X375.945Y-210.895
X375.945Y-269.95
X376.58Y-165.81
X377.215Y-183.59
X377.215Y-253.44
X377.85Y-205.18
X378.485Y-177.24
X378.485Y-200.1
X378.485Y-225.5
X379.12Y-134.06
X379.12Y-143.585
X379.12Y-207.72
X379.755Y-167.08
X379.755Y-252.17
X380.39Y-182.32
X381.025Y-266.14
X381.66Y-140.41
X381.66Y-186.765
X382.93Y-139.14
X382.93Y-153.745
X382.93Y-184.86
X382.93Y-235.66
X382.93Y-257.25
X383.565Y-188.67
X384.2Y-135.33
X384.2Y-160.73
X385.47Y-182.32
X385.47Y-254.71
X386.74Y-130.25
X386.74Y-136.6
X386.74Y-146.125
X386.74Y-189.94
X386.74Y-235.66
X388.01Y-163.27
X388.01Y-172.16
X388.01Y-214.07
X388.01Y-217.88
X388.01Y-230.58
X388.01Y-248.36
X389.28Y-139.775
X389.28Y-162.0
X389.28Y-272.49
X390.55Y-158.19
X390.55Y-172.16
X390.55Y-177.24
X390.55Y-215.34
X391.82Y-137.87
X391.82Y-147.395
X391.82Y-188.67
X391.82Y-192.48
X391.82Y-230.58
X393.09Y-156.92
X393.09Y-191.21
X393.09Y-217.88
X394.36Y-170.89
X394.36Y-189.94
X394.36Y-208.99
X394.36Y-211.53
X394.36Y-242.01
X395.63Y-144.22
X395.63Y-155.65
X396.9Y-130.409
X396.9Y-219.15
X396.9Y-248.36
X396.9Y-275.665
X398.17Y-154.38
X398.17Y-239.47
X398.17Y-258.52
X398.17Y-276.935
X399.44Y-192.48
X399.44Y-221.69
X399.44Y-254.71
X400.71Y-149.935
X400.71Y-163.27
X400.71Y-193.75
X400.71Y-205.815
X400.71Y-225.5
X401.98Y-222.96
X401.98Y-242.01
X401.98Y-248.36
X403.25Y-134.06
X403.25Y-184.86
X403.25Y-257.25
X404.52Y-164.54
X404.52Y-177.24
X404.52Y-220.42
X404.52Y-230.58
X404.52Y-259.79
X405.79Y-131.52
X405.79Y-148.665
X405.79Y-162.0
X405.79Y-168.35
X405.79Y-255.345
X407.06Y-203.91
X407.06Y-222.96
X407.06Y-248.36
X407.06Y-256.615
X408.33Y-146.76
X408.33Y-186.13
X408.33Y-230.58
X408.33Y-242.01
X409.6Y-162.0
X409.6Y-184.86
X409.6Y-195.02
X409.6Y-203.91
X409.6Y-248.36
X409.6Y-258.52
X410.87Y-183.59
X410.87Y-240.74
X412.14Y-107.39
X412.14Y-163.27
X412.14Y-191.21
X413.41Y-177.24
X413.41Y-183.59
X413.41Y-219.15
X414.68Y-132.79
X414.68Y-162.0
X414.68Y-188.67
X414.68Y-234.39
X414.68Y-236.93
X415.95Y-255.345
X417.22Y-134.06
X417.22Y-156.285
X417.22Y-189.94
X417.22Y-203.91
X418.49Y-177.24
X418.49Y-184.86
X418.49Y-235.66
X419.76Y-159.46
X419.76Y-197.56
X419.76Y-212.8
X421.03Y-136.6
X421.03Y-242.01
X421.665Y-162.0
X422.3Y-137.87
X422.3Y-153.11
X422.3Y-175.335
X422.935Y-126.44
X422.935Y-165.81
X423.57Y-135.33
X423.57Y-156.285
X423.57Y-182.32
X423.57Y-204.545
X423.57Y-236.93
X424.205Y-163.27
X424.84Y-134.06
X424.84Y-146.76
X424.84Y-222.96
X424.84Y-239.47
X426.11Y-125.17
X426.11Y-132.79
X426.11Y-148.03
X426.11Y-153.11
X426.11Y-172.16
X426.11Y-182.32
X426.11Y-252.17
X428.015Y-135.33
X428.65Y-217.88
X428.65Y-225.5
X428.65Y-255.345
X429.92Y-121.995
X429.92Y-136.6
X429.92Y-146.76
X429.92Y-170.89
X429.92Y-205.18
X431.19Y-125.17
X431.19Y-169.62
X431.19Y-206.45
X431.19Y-219.15
X431.19Y-242.645
X431.19Y-271.22
X431.825Y-257.25
X432.46Y-126.44
X432.46Y-149.3
X432.46Y-183.59
X433.73Y-130.25
X433.73Y-221.69
X433.73Y-259.155
X433.73Y-274.395
X435.0Y-131.52
X435.0Y-149.3
X435.0Y-257.885
X436.27Y-127.71
X436.27Y-224.23
X437.54Y-130.25
X437.54Y-167.08
X437.54Y-183.59
X437.54Y-192.48
X437.54Y-221.69
X437.54Y-238.2
X438.81Y-150.57
X438.81Y-214.07
X440.08Y-141.68
X440.08Y-159.46
X440.08Y-170.89
X440.08Y-219.15
X441.35Y-168.35
X442.62Y-148.03
X442.62Y-170.89
X442.62Y-193.75
X442.62Y-222.96
X442.62Y-257.885
X443.89Y-152.475
X443.89Y-198.83
X443.89Y-235.66
X444.525Y-205.18
X445.16Y-165.81
X445.16Y-184.86
X445.795Y-201.37
X445.795Y-211.53
X446.43Y-167.08
X446.43Y-240.74
X447.7Y-141.68
X447.7Y-151.84
X447.7Y-177.24
X448.97Y-128.98
X448.97Y-150.57
X449.605Y-189.94
X449.605Y-202.64
X450.24Y-182.32
X450.875Y-196.29
X450.875Y-208.99
X451.51Y-148.03
X451.51Y-183.59
X451.51Y-205.18
X451.51Y-226.77
X452.78Y-155.65
X452.78Y-238.2
X453.415Y-123.265
X453.415Y-153.11
X454.05Y-172.16
X455.32Y-164.54
X455.32Y-225.5
X455.32Y-230.58
X455.32Y-257.885
X456.59Y-137.87
X456.59Y-242.01
X457.86Y-181.05
X457.86Y-192.48
X457.86Y-225.5
X457.86Y-234.39
X458.495Y-259.79
X459.13Y-171.525
X459.13Y-177.24
X459.13Y-208.99
X459.77Y-186.765
X460.4Y-239.47
X460.4Y-243.28
X461.035Y-173.43
X461.035Y-197.56
X461.035Y-230.58
X462.94Y-143.585
X462.94Y-161.365
X462.94Y-179.145
X462.94Y-196.925
X462.94Y-214.705
X462.94Y-232.485
X462.94Y-250.265
X462.94Y-268.045
X462.94Y-272.49
X463.575Y-118.185
X465.48Y-139.775
X465.48Y-175.335
X465.48Y-208.99
X468.02Y-177.24
X468.02Y-219.15
X468.02Y-238.835
X468.02Y-254.71
X469.29Y-150.57
X469.29Y-170.255
X469.29Y-242.01
X469.29Y-257.28
X470.56Y-148.09
X470.56Y-167.08
X470.56Y-184.86
X470.56Y-205.18
X471.83Y-134.06
X471.83Y-159.46
X471.83Y-170.255
X471.83Y-188.035
X473.1Y-150.57
X473.1Y-204.545
X473.1Y-212.8
X473.1Y-221.69
X474.37Y-134.695
X474.37Y-235.66
X475.64Y-248.36
X476.91Y-159.46
X476.91Y-177.24
X476.91Y-205.18
X476.91Y-219.15
X476.91Y-238.835
X476.91Y-253.44
X478.18Y-220.42
X478.18Y-266.14
X479.45Y-127.71
X479.45Y-153.11
X479.45Y-222.96
X480.72Y-169.62
X480.72Y-221.69
X480.72Y-230.58
X480.72Y-242.01
X481.99Y-131.52
X481.99Y-222.99
X483.26Y-212.8
X484.53Y-148.03
X484.53Y-259.79
X485.17Y-189.94
X485.8Y-210.895
X485.8Y-236.93
X485.8Y-253.44
X486.435Y-200.1
X487.07Y-167.08
X487.07Y-266.14
X488.34Y-141.68
X488.34Y-243.28
X489.61Y-120.09
X489.61Y-208.99
X490.245Y-183.59
X490.88Y-132.79
X490.88Y-150.57
X490.88Y-177.24
X490.88Y-205.815
X490.88Y-244.55
X491.515Y-186.13
X492.15Y-121.36
X492.785Y-191.21
X493.42Y-134.06
X493.42Y-181.05
X493.42Y-224.23
X493.42Y-242.645
X494.055Y-187.4
X494.055Y-195.02
X494.69Y-164.45
X494.69Y-235.66
X495.96Y-132.79
X495.96Y-190.575
X495.96Y-208.355
X495.96Y-241.375
X497.23Y-173.43
X497.23Y-219.15
X498.5Y-124.535
X498.5Y-145.49
X498.5Y-151.84
X498.5Y-155.523
X498.5Y-216.61
X499.135Y-186.13
X499.135Y-188.67
X499.135Y-202.64
X499.77Y-205.18
X499.77Y-261.06
X501.04Y-191.21
X501.04Y-202.64
X501.04Y-217.88
X503.58Y-127.71
X503.58Y-206.45
X503.58Y-220.42
X503.58Y-255.98
X506.12Y-141.68
X506.12Y-201.37
X506.12Y-230.58
X506.12Y-258.52
X507.39Y-170.89
X507.39Y-175.335
X507.39Y-207.72
X508.66Y-148.03
X508.66Y-211.53
X508.66Y-254.71
X509.93Y-130.25
X509.93Y-179.145
X509.93Y-273.76
X511.2Y-123.265
X511.2Y-187.4
X511.2Y-202.64
X511.2Y-212.8
X511.2Y-248.36
X511.2Y-258.52
X512.47Y-211.53
X512.47Y-257.25
X513.74Y-121.36
X513.74Y-202.64
X513.74Y-205.18
X513.74Y-259.79
X513.74Y-264.87
X515.01Y-127.71
X516.28Y-201.37
X516.28Y-212.8
X516.28Y-224.23
X517.55Y-187.4
X517.55Y-240.105
X518.82Y-123.265
X518.82Y-153.11
X518.82Y-195.02
X518.82Y-205.18
X518.82Y-255.98
X521.36Y-264.87
X522.63Y-201.37
X522.63Y-248.36
X523.9Y-224.23
X523.9Y-262.33
X526.44Y-124.535
X526.44Y-210.26
X527.71Y-126.44
X527.71Y-230.58
X530.25Y-167.08
X530.25Y-235.66
X532.79Y-195.02
X532.79Y-207.72
X539.14Y-165.81
X539.14Y-201.37
X540.41Y-167.08
X540.41Y-189.94
X541.68Y-146.76
X542.315Y-269.95
X544.22Y-230.58
X545.49Y-148.03
X545.49Y-188.67
X545.49Y-254.71
X546.76Y-167.08
X546.76Y-195.02
X546.76Y-258.57
X548.03Y-169.62
X548.03Y-202.64
X548.03Y-236.93
X548.03Y-248.36
X549.3Y-220.42
X550.57Y-189.94
X551.84Y-170.91
X553.11Y-167.08
X553.11Y-205.18
X554.38Y-222.96
X555.65Y-187.4
X556.92Y-203.91
X556.92Y-248.36
X559.46Y-167.08
X560.73Y-170.89
X562.0Y-165.81
T2
X102.26Y-205.18
X104.8Y-183.59
X104.8Y-186.13
X104.8Y-188.67
X104.8Y-212.8
X105.435Y-195.02
X107.34Y-244.55
X107.34Y-252.17
X107.975Y-192.48
X107.975Y-195.02
X109.88Y-212.8
X109.88Y-216.61
X109.88Y-244.55
X109.88Y-252.17
X112.42Y-195.02
X112.42Y-205.18
X112.42Y-244.55
X112.42Y-252.17
X114.96Y-216.61
X114.96Y-240.74
X114.96Y-244.55
X114.96Y-252.17
X117.5Y-183.59
X117.5Y-186.13
X117.5Y-188.67
X117.5Y-195.02
X117.5Y-224.23
X117.5Y-236.93
X117.5Y-244.55
X117.5Y-252.17
X118.77Y-216.61
X120.04Y-186.13
X120.04Y-224.23
X120.04Y-236.93
X120.04Y-240.74
X120.04Y-244.55
X120.04Y-252.17
X121.31Y-192.48
X122.58Y-244.55
X122.58Y-252.17
X123.85Y-186.13
X123.85Y-192.48
X123.85Y-195.02
X123.85Y-216.61
X125.12Y-224.23
X125.12Y-236.93
X127.66Y-183.59
X127.66Y-224.23
X127.66Y-236.93
X130.2Y-183.59
X130.2Y-224.23
X130.2Y-236.93
X130.2Y-246.455
X130.2Y-250.265
X132.74Y-183.59
X132.74Y-224.23
X132.74Y-236.93
X135.28Y-183.59
X135.28Y-224.23
X135.28Y-236.93
X140.36Y-191.21
X140.36Y-198.83
X140.36Y-208.99
X140.36Y-216.61
X140.36Y-226.77
X140.36Y-234.39
X140.36Y-244.55
X140.36Y-252.17
X140.36Y-259.79
X140.36Y-267.41
X142.9Y-191.21
X142.9Y-198.83
X142.9Y-208.99
X142.9Y-216.61
X142.9Y-226.77
X142.9Y-234.39
X142.9Y-244.55
X142.9Y-252.17
X142.9Y-259.79
X142.9Y-267.41
X145.44Y-191.21
X145.44Y-198.83
X145.44Y-208.99
X145.44Y-216.61
X145.44Y-226.77
X145.44Y-234.39
X145.44Y-244.55
X145.44Y-252.17
X145.44Y-259.79
X145.44Y-267.41
X147.98Y-191.21
X147.98Y-198.83
X147.98Y-208.99
X147.98Y-216.61
X147.98Y-226.77
X147.98Y-234.39
X147.98Y-244.55
X147.98Y-252.17
X147.98Y-259.79
X147.98Y-267.41
X150.52Y-191.21
X150.52Y-198.83
X150.52Y-208.99
X150.52Y-216.61
X150.52Y-226.77
X150.52Y-234.39
X150.52Y-244.55
X150.52Y-252.17
X150.52Y-259.79
X150.52Y-267.41
X153.06Y-191.21
X153.06Y-198.83
X153.06Y-208.99
X153.06Y-216.61
X153.06Y-226.77
X153.06Y-234.39
X153.06Y-244.55
X153.06Y-252.17
X153.06Y-259.79
X153.06Y-267.41
X155.6Y-120.09
X155.6Y-127.71
X155.6Y-191.21
X155.6Y-198.83
X155.6Y-208.99
X155.6Y-216.61
X155.6Y-226.77
X155.6Y-234.39
X155.6Y-244.55
X155.6Y-252.17
X155.6Y-259.79
X155.6Y-267.41
X158.14Y-120.09
X158.14Y-127.71
X158.14Y-244.55
X158.14Y-252.17
X158.14Y-259.79
X158.14Y-267.41
X160.68Y-120.09
X160.68Y-127.71
X163.22Y-120.09
X163.22Y-127.71
X163.22Y-257.25
X163.22Y-269.95
X165.76Y-120.09
X165.76Y-127.71
X165.76Y-257.25
X165.76Y-269.95
X168.3Y-120.09
X168.3Y-127.71
X168.3Y-257.25
X168.3Y-269.95
X170.84Y-120.09
X170.84Y-127.71
X170.84Y-257.25
X170.84Y-269.95
X171.475Y-228.675
X171.475Y-232.485
X172.11Y-157.555
X172.11Y-161.365
X172.11Y-175.335
X172.11Y-179.145
X173.38Y-120.09
X173.38Y-127.71
X173.38Y-257.25
X173.38Y-269.95
X175.92Y-120.09
X175.92Y-127.71
X175.92Y-135.33
X175.92Y-148.03
X175.92Y-155.65
X175.92Y-163.27
X175.92Y-173.43
X175.92Y-181.05
X175.92Y-208.99
X175.92Y-216.61
X175.92Y-226.77
X175.92Y-234.39
X175.92Y-244.55
X175.92Y-252.17
X175.92Y-257.25
X175.92Y-269.95
X178.46Y-120.09
X178.46Y-127.71
X178.46Y-135.33
X178.46Y-148.03
X178.46Y-155.65
X178.46Y-163.27
X178.46Y-173.43
X178.46Y-181.05
X178.46Y-188.67
X178.46Y-201.37
X178.46Y-208.99
X178.46Y-216.61
X178.46Y-226.77
X178.46Y-234.39
X178.46Y-244.55
X178.46Y-252.17
X178.46Y-257.25
X178.46Y-269.95
X181.0Y-135.33
X181.0Y-148.03
X181.0Y-155.65
X181.0Y-163.27
X181.0Y-173.43
X181.0Y-181.05
X181.0Y-208.99
X181.0Y-216.61
X181.0Y-226.77
X181.0Y-234.39
X181.0Y-244.55
X181.0Y-252.17
X181.0Y-257.25
X181.0Y-269.95
X183.54Y-135.33
X183.54Y-148.03
X183.54Y-155.65
X183.54Y-163.27
X183.54Y-173.43
X183.54Y-181.05
X183.54Y-188.67
X183.54Y-201.37
X183.54Y-208.99
X183.54Y-216.61
X183.54Y-226.77
X183.54Y-234.39
X183.54Y-244.55
X183.54Y-252.17
X183.54Y-257.25
X183.54Y-269.95
X186.08Y-135.33
X186.08Y-148.03
X186.08Y-155.65
X186.08Y-163.27
X186.08Y-173.43
X186.08Y-181.05
X186.08Y-188.67
X186.08Y-201.37
X186.08Y-208.99
X186.08Y-216.61
X186.08Y-226.77
X186.08Y-234.39
X186.08Y-244.55
X186.08Y-252.17
X186.08Y-257.25
X186.08Y-269.95
X188.62Y-135.33
X188.62Y-148.03
X188.62Y-155.65
X188.62Y-163.27
X188.62Y-173.43
X188.62Y-181.05
X188.62Y-188.67
X188.62Y-201.37
X188.62Y-208.99
X188.62Y-216.61
X188.62Y-226.77
X188.62Y-234.39
X188.62Y-244.55
X188.62Y-252.17
X188.62Y-257.25
X188.62Y-269.95
X191.16Y-135.33
X191.16Y-148.03
X191.16Y-155.65
X191.16Y-163.27
X191.16Y-173.43
X191.16Y-181.05
X191.16Y-188.67
X191.16Y-193.75
X191.16Y-208.99
X191.16Y-216.61
X191.16Y-226.77
X191.16Y-234.39
X191.16Y-244.55
X191.16Y-252.17
X191.16Y-257.25
X191.16Y-269.95
X193.7Y-135.33
X193.7Y-148.03
X193.7Y-188.67
X193.7Y-201.37
X193.7Y-226.77
X193.7Y-234.39
X193.7Y-244.55
X193.7Y-252.17
X193.7Y-257.25
X193.7Y-269.95
X196.24Y-188.67
X196.24Y-201.37
X196.24Y-224.23
X196.24Y-257.25
X196.24Y-269.95
X197.51Y-135.33
X197.51Y-148.03
X197.51Y-175.335
X197.51Y-179.145
X198.78Y-246.455
X198.78Y-250.265
X198.78Y-257.25
X198.78Y-269.95
X200.05Y-120.09
X200.05Y-127.71
X200.05Y-224.23
X201.32Y-210.895
X201.32Y-214.705
X201.32Y-257.25
X201.32Y-269.95
X202.59Y-120.09
X202.59Y-127.71
X202.59Y-137.87
X202.59Y-145.49
X205.13Y-120.09
X205.13Y-127.71
X205.13Y-137.87
X205.13Y-145.49
X207.67Y-120.09
X207.67Y-127.71
X207.67Y-137.87
X207.67Y-145.49
X210.21Y-120.09
X210.21Y-127.71
X210.21Y-137.87
X210.21Y-145.49
X211.48Y-155.65
X211.48Y-163.27
X211.48Y-173.43
X211.48Y-181.05
X211.48Y-191.21
X211.48Y-198.83
X211.48Y-208.99
X211.48Y-216.61
X211.48Y-226.77
X211.48Y-234.39
X211.48Y-239.47
X211.48Y-242.01
X211.48Y-244.55
X211.48Y-252.17
X211.48Y-262.33
X211.48Y-269.95
X212.75Y-120.09
X212.75Y-127.71
X212.75Y-137.87
X212.75Y-145.49
X214.02Y-155.65
X214.02Y-163.27
X214.02Y-173.43
X214.02Y-181.05
X214.02Y-184.86
X214.02Y-191.21
X214.02Y-198.83
X214.02Y-208.99
X214.02Y-216.61
X214.02Y-226.77
X214.02Y-234.39
X214.02Y-244.55
X214.02Y-252.17
X214.02Y-262.33
X214.02Y-269.95
X215.29Y-120.09
X215.29Y-127.71
X215.29Y-137.87
X215.29Y-145.49
X216.56Y-155.65
X216.56Y-163.27
X216.56Y-173.43
X216.56Y-181.05
X216.56Y-191.21
X216.56Y-198.83
X216.56Y-208.99
X216.56Y-216.61
X216.56Y-226.77
X216.56Y-234.39
X216.56Y-244.55
X216.56Y-252.17
X216.56Y-262.33
X216.56Y-269.95
X217.83Y-120.09
X217.83Y-127.71
X217.83Y-137.87
X217.83Y-145.49
X219.1Y-155.65
X219.1Y-163.27
X219.1Y-173.43
X219.1Y-181.05
X219.1Y-184.86
X219.1Y-191.21
X219.1Y-198.83
X219.1Y-208.99
X219.1Y-216.61
X219.1Y-226.77
X219.1Y-234.39
X219.1Y-244.55
X219.1Y-252.17
X219.1Y-262.33
X219.1Y-269.95
X221.64Y-155.65
X221.64Y-163.27
X221.64Y-173.43
X221.64Y-181.05
X221.64Y-191.21
X221.64Y-198.83
X221.64Y-208.99
X221.64Y-216.61
X221.64Y-226.77
X221.64Y-234.39
X221.64Y-244.55
X221.64Y-252.17
X221.64Y-262.33
X221.64Y-269.95
X224.18Y-117.55
X224.18Y-130.25
X224.18Y-137.87
X224.18Y-145.49
X224.18Y-155.65
X224.18Y-163.27
X224.18Y-173.43
X224.18Y-181.05
X224.18Y-191.21
X224.18Y-198.83
X224.18Y-208.99
X224.18Y-216.61
X224.18Y-226.77
X224.18Y-234.39
X224.18Y-239.47
X224.18Y-242.01
X224.18Y-244.55
X224.18Y-252.17
X224.18Y-262.33
X224.18Y-269.95
X226.72Y-117.55
X226.72Y-130.25
X226.72Y-137.87
X226.72Y-145.49
X226.72Y-155.65
X226.72Y-163.27
X226.72Y-173.43
X226.72Y-181.05
X226.72Y-191.21
X226.72Y-198.83
X226.72Y-208.99
X226.72Y-216.61
X226.72Y-226.77
X226.72Y-234.39
X226.72Y-244.55
X226.72Y-252.17
X226.72Y-262.33
X226.72Y-269.95
X227.99Y-239.44
X229.26Y-117.55
X229.26Y-130.25
X229.26Y-137.87
X229.26Y-145.49
X229.26Y-155.65
X229.26Y-163.27
X229.26Y-226.77
X229.26Y-234.39
X229.26Y-244.55
X229.26Y-252.17
X230.53Y-239.44
X231.165Y-175.335
X231.165Y-179.145
X231.8Y-117.55
X231.8Y-130.25
X231.8Y-137.87
X231.8Y-145.49
X234.34Y-137.87
X234.34Y-145.49
X236.88Y-137.87
X236.88Y-145.49
X239.42Y-137.87
X239.42Y-145.49
X246.405Y-221.055
X247.04Y-173.43
X247.04Y-181.05
X247.04Y-191.21
X247.04Y-198.83
X247.04Y-208.99
X247.04Y-216.61
X247.04Y-226.77
X247.04Y-234.39
X247.04Y-244.55
X247.04Y-252.17
X247.04Y-262.33
X247.04Y-269.95
X249.58Y-173.43
X249.58Y-181.05
X249.58Y-191.21
X249.58Y-198.83
X249.58Y-208.99
X249.58Y-216.61
X249.58Y-226.77
X249.58Y-234.39
X249.58Y-244.55
X249.58Y-252.17
X249.58Y-262.33
X249.58Y-269.95
X252.12Y-173.43
X252.12Y-181.05
X252.12Y-191.21
X252.12Y-198.83
X252.12Y-208.99
X252.12Y-216.61
X252.12Y-226.77
X252.12Y-234.39
X252.12Y-244.55
X252.12Y-252.17
X252.12Y-262.33
X252.12Y-269.95
X254.66Y-173.43
X254.66Y-181.05
X254.66Y-191.21
X254.66Y-198.83
X254.66Y-208.99
X254.66Y-216.61
X254.66Y-226.77
X254.66Y-234.39
X254.66Y-244.55
X254.66Y-252.17
X254.66Y-262.33
X254.66Y-269.95
X257.2Y-173.43
X257.2Y-181.05
X257.2Y-191.21
X257.2Y-198.83
X257.2Y-208.99
X257.2Y-216.61
X257.2Y-226.77
X257.2Y-234.39
X257.2Y-244.55
X257.2Y-252.17
X257.2Y-262.33
X257.2Y-269.95
X258.47Y-141.68
X258.47Y-156.92
X259.105Y-221.055
X259.74Y-173.43
X259.74Y-181.05
X259.74Y-191.21
X259.74Y-198.83
X259.74Y-208.99
X259.74Y-216.61
X259.74Y-226.77
X259.74Y-234.39
X259.74Y-244.55
X259.74Y-252.17
X259.74Y-262.33
X259.74Y-269.95
X261.01Y-141.68
X261.01Y-156.92
X262.28Y-173.43
X262.28Y-181.05
X262.28Y-191.21
X262.28Y-198.83
X262.28Y-208.99
X262.28Y-216.61
X262.28Y-226.77
X262.28Y-234.39
X262.28Y-244.55
X262.28Y-252.17
X262.28Y-262.33
X262.28Y-269.95
X263.55Y-141.68
X263.55Y-156.92
X264.82Y-173.43
X264.82Y-181.05
X264.82Y-191.21
X264.82Y-198.83
X264.82Y-208.99
X264.82Y-216.61
X266.09Y-141.68
X266.09Y-156.92
X268.63Y-141.68
X268.63Y-156.92
X269.9Y-137.87
X269.9Y-259.79
X269.9Y-272.49
X271.17Y-141.68
X271.17Y-156.92
X272.44Y-137.87
X273.71Y-141.68
X273.71Y-156.92
X273.71Y-246.455
X273.71Y-250.265
X274.98Y-137.87
X275.615Y-175.335
X275.615Y-179.145
X275.615Y-193.115
X275.615Y-196.925
X276.25Y-141.68
X276.25Y-156.92
X277.52Y-137.87
X278.79Y-141.68
X278.79Y-156.92
X280.06Y-137.87
X281.33Y-141.68
X281.33Y-156.92
X282.6Y-137.87
X282.6Y-168.35
X282.6Y-173.43
X282.6Y-181.05
X282.6Y-191.21
X282.6Y-198.83
X282.6Y-208.99
X282.6Y-216.61
X282.6Y-226.77
X282.6Y-234.39
X282.6Y-244.55
X282.6Y-252.17
X282.6Y-262.33
X282.6Y-269.95
X283.87Y-141.68
X283.87Y-156.92
X285.14Y-137.87
X285.14Y-173.43
X285.14Y-181.05
X285.14Y-191.21
X285.14Y-198.83
X285.14Y-208.99
X285.14Y-216.61
X285.14Y-226.77
X285.14Y-234.39
X285.14Y-244.55
X285.14Y-252.17
X285.14Y-262.33
X285.14Y-269.95
X286.41Y-141.68
X286.41Y-156.92
X287.68Y-137.87
X287.68Y-173.43
X287.68Y-181.05
X287.68Y-191.21
X287.68Y-198.83
X287.68Y-208.99
X287.68Y-216.61
X287.68Y-226.77
X287.68Y-234.39
X287.68Y-244.55
X287.68Y-252.17
X287.68Y-262.33
X287.68Y-269.95
X288.95Y-141.68
X288.95Y-156.92
X290.22Y-137.87
X290.22Y-173.43
X290.22Y-181.05
X290.22Y-191.21
X290.22Y-198.83
X290.22Y-208.99
X290.22Y-216.61
X290.22Y-226.77
X290.22Y-234.39
X290.22Y-244.55
X290.22Y-252.17
X290.22Y-262.33
X290.22Y-269.95
X291.49Y-141.68
X291.49Y-156.92
X292.76Y-173.43
X292.76Y-181.05
X292.76Y-191.21
X292.76Y-198.83
X292.76Y-208.99
X292.76Y-216.61
X292.76Y-226.77
X292.76Y-234.39
X292.76Y-244.55
X292.76Y-252.17
X292.76Y-262.33
X292.76Y-269.95
X294.03Y-141.68
X294.03Y-156.92
X295.3Y-168.35
X295.3Y-173.43
X295.3Y-181.05
X295.3Y-191.21
X295.3Y-198.83
X295.3Y-208.99
X295.3Y-216.61
X295.3Y-226.77
X295.3Y-234.39
X295.3Y-244.55
X295.3Y-252.17
X295.3Y-262.33
X295.3Y-269.95
X296.57Y-141.68
X296.57Y-156.92
X297.84Y-173.43
X297.84Y-181.05
X297.84Y-191.21
X297.84Y-198.83
X297.84Y-208.99
X297.84Y-216.61
X297.84Y-226.77
X297.84Y-234.39
X297.84Y-244.55
X297.84Y-252.17
X297.84Y-262.33
X297.84Y-269.95
X299.11Y-141.68
X299.11Y-156.92
X300.38Y-173.43
X300.38Y-181.05
X300.38Y-191.21
X300.38Y-198.83
X300.38Y-208.99
X300.38Y-216.61
X300.38Y-226.77
X300.38Y-234.39
X300.38Y-244.55
X300.38Y-252.17
X301.65Y-141.68
X301.65Y-156.92
X304.19Y-141.68
X304.19Y-156.92
X304.825Y-210.895
X304.825Y-214.705
X306.73Y-141.68
X306.73Y-156.92
X308.635Y-193.115
X308.635Y-196.925
X309.27Y-259.79
X309.27Y-272.49
X311.81Y-259.79
X311.81Y-272.49
X313.08Y-141.68
X313.08Y-156.92
X313.08Y-175.335
X313.08Y-179.145
X315.62Y-141.68
X315.62Y-156.92
X318.16Y-141.68
X318.16Y-156.92
X318.16Y-173.43
X318.16Y-181.05
X318.16Y-191.21
X318.16Y-198.83
X318.16Y-208.99
X318.16Y-216.61
X318.16Y-226.77
X318.16Y-234.39
X318.16Y-244.55
X318.16Y-252.17
X318.16Y-262.33
X318.16Y-269.95
X320.7Y-141.68
X320.7Y-156.92
X320.7Y-173.43
X320.7Y-181.05
X320.7Y-191.21
X320.7Y-198.83
X320.7Y-208.99
X320.7Y-216.61
X320.7Y-226.77
X320.7Y-234.39
X320.7Y-244.55
X320.7Y-252.17
X320.7Y-262.33
X320.7Y-269.95
X323.24Y-141.68
X323.24Y-156.92
X323.24Y-173.43
X323.24Y-181.05
X323.24Y-191.21
X323.24Y-198.83
X323.24Y-208.99
X323.24Y-216.61
X323.24Y-226.77
X323.24Y-234.39
X323.24Y-244.55
X323.24Y-252.17
X323.24Y-262.33
X323.24Y-269.95
X325.78Y-141.68
X325.78Y-156.92
X325.78Y-173.43
X325.78Y-181.05
X325.78Y-191.21
X325.78Y-198.83
X325.78Y-208.99
X325.78Y-216.61
X325.78Y-226.77
X325.78Y-234.39
X325.78Y-244.55
X325.78Y-252.17
X325.78Y-262.33
X325.78Y-269.95
X328.32Y-141.68
X328.32Y-156.92
X328.32Y-173.43
X328.32Y-181.05
X328.32Y-191.21
X328.32Y-198.83
X328.32Y-208.99
X328.32Y-216.61
X328.32Y-226.77
X328.32Y-234.39
X328.32Y-244.55
X328.32Y-252.17
X328.32Y-262.33
X328.32Y-269.95
X330.86Y-141.68
X330.86Y-156.92
X330.86Y-173.43
X330.86Y-181.05
X330.86Y-191.21
X330.86Y-198.83
X330.86Y-208.99
X330.86Y-216.61
X330.86Y-226.77
X330.86Y-234.39
X330.86Y-244.55
X330.86Y-252.17
X330.86Y-262.33
X330.86Y-269.95
X333.4Y-141.68
X333.4Y-156.92
X333.4Y-173.43
X333.4Y-181.05
X333.4Y-191.21
X333.4Y-198.83
X333.4Y-208.99
X333.4Y-216.61
X333.4Y-226.77
X333.4Y-234.39
X333.4Y-244.55
X333.4Y-252.17
X333.4Y-262.33
X333.4Y-269.95
X335.94Y-141.68
X335.94Y-156.92
X335.94Y-173.43
X335.94Y-181.05
X335.94Y-191.21
X335.94Y-198.83
X335.94Y-208.99
X335.94Y-216.61
X335.94Y-226.77
X335.94Y-234.39
X335.94Y-244.55
X335.94Y-252.17
X335.94Y-262.33
X335.94Y-269.95
X338.48Y-141.68
X338.48Y-156.92
X338.48Y-173.43
X338.48Y-181.05
X338.48Y-191.21
X338.48Y-198.83
X338.48Y-226.77
X338.48Y-234.39
X338.48Y-244.55
X338.48Y-252.17
X341.02Y-141.68
X341.02Y-156.92
X341.02Y-173.43
X341.02Y-181.05
X341.02Y-191.21
X341.02Y-198.83
X341.02Y-226.77
X341.02Y-234.39
X341.02Y-244.55
X341.02Y-252.17
X343.56Y-141.68
X343.56Y-156.92
X346.1Y-122.312
X346.1Y-126.757
X346.1Y-141.68
X346.1Y-156.92
X346.1Y-246.455
X346.1Y-250.265
X348.64Y-228.675
X348.64Y-232.485
X350.545Y-193.115
X350.545Y-196.925
X351.18Y-210.895
X351.18Y-214.705
X353.72Y-120.09
X353.72Y-132.79
X353.72Y-173.43
X353.72Y-181.05
X353.72Y-191.21
X353.72Y-198.83
X353.72Y-208.99
X353.72Y-216.61
X353.72Y-226.77
X353.72Y-234.39
X353.72Y-244.55
X353.72Y-252.17
X353.72Y-262.33
X353.72Y-269.95
X356.26Y-173.43
X356.26Y-181.05
X356.26Y-191.21
X356.26Y-198.83
X356.26Y-208.99
X356.26Y-216.61
X356.26Y-226.77
X356.26Y-234.39
X356.26Y-244.55
X356.26Y-252.17
X356.26Y-262.33
X356.26Y-269.95
X358.8Y-120.09
X358.8Y-125.17
X358.8Y-127.71
X358.8Y-132.79
X358.8Y-135.33
X358.8Y-142.95
X358.8Y-173.43
X358.8Y-181.05
X358.8Y-191.21
X358.8Y-198.83
X358.8Y-208.99
X358.8Y-216.61
X358.8Y-226.77
X358.8Y-234.39
X358.8Y-244.55
X358.8Y-252.17
X358.8Y-262.33
X358.8Y-269.95
X361.34Y-120.09
X361.34Y-132.79
X361.34Y-135.33
X361.34Y-142.95
X361.34Y-173.43
X361.34Y-181.05
X361.34Y-191.21
X361.34Y-198.83
X361.34Y-208.99
X361.34Y-216.61
X361.34Y-226.77
X361.34Y-234.39
X361.34Y-244.55
X361.34Y-252.17
X361.34Y-262.33
X361.34Y-269.95
X363.88Y-120.09
X363.88Y-132.79
X363.88Y-135.33
X363.88Y-142.95
X363.88Y-173.43
X363.88Y-181.05
X363.88Y-191.21
X363.88Y-198.83
X363.88Y-208.99
X363.88Y-216.61
X363.88Y-226.77
X363.88Y-234.39
X363.88Y-244.55
X363.88Y-252.17
X363.88Y-262.33
X363.88Y-269.95
X366.42Y-120.09
X366.42Y-132.79
X366.42Y-135.33
X366.42Y-142.95
X366.42Y-173.43
X366.42Y-181.05
X366.42Y-191.21
X366.42Y-198.83
X366.42Y-208.99
X366.42Y-216.61
X366.42Y-226.77
X366.42Y-234.39
X366.42Y-244.55
X366.42Y-252.17
X366.42Y-262.33
X366.42Y-269.95
X368.96Y-135.33
X368.96Y-142.95
X368.96Y-173.43
X368.96Y-181.05
X368.96Y-191.21
X368.96Y-198.83
X368.96Y-208.99
X368.96Y-216.61
X368.96Y-226.77
X368.96Y-234.39
X368.96Y-244.55
X368.96Y-252.17
X368.96Y-262.33
X368.96Y-269.95
X371.5Y-120.09
X371.5Y-132.79
X371.5Y-135.33
X371.5Y-142.95
X371.5Y-173.43
X371.5Y-181.05
X371.5Y-191.21
X371.5Y-198.83
X371.5Y-208.99
X371.5Y-216.61
X371.5Y-226.77
X371.5Y-234.39
X371.5Y-244.55
X371.5Y-252.17
X371.5Y-262.33
X371.5Y-269.95
X374.04Y-120.09
X374.04Y-132.79
X374.04Y-135.33
X374.04Y-142.95
X374.04Y-173.43
X374.04Y-181.05
X374.04Y-191.21
X374.04Y-198.83
X374.04Y-208.99
X374.04Y-216.61
X376.58Y-173.43
X376.58Y-181.05
X379.12Y-120.09
X379.12Y-125.17
X382.295Y-115.645
X382.295Y-120.09
X382.295Y-132.79
X383.565Y-246.455
X383.565Y-250.265
X384.2Y-259.79
X384.2Y-272.49
X384.835Y-115.645
X386.74Y-151.84
X386.74Y-167.08
X386.74Y-259.79
X386.74Y-272.49
X389.28Y-151.84
X389.28Y-167.08
X390.55Y-228.675
X390.55Y-232.485
X391.82Y-127.32
X391.82Y-142.56
X391.82Y-151.84
X391.82Y-167.08
X394.36Y-127.32
X394.36Y-137.87
X394.36Y-142.56
X394.36Y-145.49
X394.36Y-151.84
X394.36Y-167.08
X394.36Y-173.43
X394.36Y-181.05
X394.36Y-201.37
X394.36Y-216.61
X394.36Y-226.77
X394.36Y-234.39
X394.36Y-244.55
X394.36Y-252.17
X394.36Y-262.33
X394.36Y-269.95
X396.9Y-127.32
X396.9Y-137.87
X396.9Y-142.56
X396.9Y-145.49
X396.9Y-151.84
X396.9Y-167.08
X396.9Y-173.43
X396.9Y-181.05
X396.9Y-201.37
X396.9Y-216.61
X396.9Y-226.77
X396.9Y-234.39
X396.9Y-244.55
X396.9Y-252.17
X396.9Y-262.33
X396.9Y-269.95
X399.44Y-127.32
X399.44Y-137.87
X399.44Y-142.56
X399.44Y-145.49
X399.44Y-151.84
X399.44Y-167.08
X399.44Y-173.43
X399.44Y-181.05
X399.44Y-201.37
X399.44Y-216.61
X399.44Y-226.77
X399.44Y-234.39
X399.44Y-244.55
X399.44Y-252.17
X399.44Y-262.33
X399.44Y-269.95
X401.98Y-127.32
X401.98Y-137.87
X401.98Y-142.56
X401.98Y-145.49
X401.98Y-151.84
X401.98Y-167.08
X401.98Y-173.43
X401.98Y-181.05
X401.98Y-201.37
X401.98Y-216.61
X401.98Y-226.77
X401.98Y-234.39
X401.98Y-244.55
X401.98Y-252.17
X401.98Y-262.33
X401.98Y-269.95
X404.52Y-127.32
X404.52Y-137.87
X404.52Y-142.56
X404.52Y-145.49
X404.52Y-151.84
X404.52Y-167.08
X404.52Y-173.43
X404.52Y-181.05
X404.52Y-201.37
X404.52Y-216.61
X404.52Y-226.77
X404.52Y-234.39
X404.52Y-244.55
X404.52Y-252.17
X404.52Y-262.33
X404.52Y-269.95
X407.06Y-127.32
X407.06Y-137.87
X407.06Y-142.56
X407.06Y-145.49
X407.06Y-151.84
X407.06Y-167.08
X407.06Y-173.43
X407.06Y-181.05
X407.06Y-193.75
X407.06Y-201.37
X407.06Y-216.61
X407.06Y-226.77
X407.06Y-234.39
X407.06Y-244.55
X407.06Y-252.17
X407.06Y-262.33
X407.06Y-269.95
X409.6Y-127.32
X409.6Y-137.87
X409.6Y-142.56
X409.6Y-145.49
X409.6Y-151.84
X409.6Y-167.08
X409.6Y-173.43
X409.6Y-181.05
X409.6Y-201.37
X409.6Y-216.61
X409.6Y-226.77
X409.6Y-234.39
X409.6Y-244.55
X409.6Y-252.17
X409.6Y-262.33
X409.6Y-269.95
X412.14Y-127.32
X412.14Y-137.87
X412.14Y-142.56
X412.14Y-145.49
X412.14Y-151.84
X412.14Y-167.08
X412.14Y-173.43
X412.14Y-181.05
X412.14Y-201.37
X412.14Y-216.61
X412.14Y-226.77
X412.14Y-234.39
X414.68Y-127.32
X414.68Y-137.87
X414.68Y-142.56
X414.68Y-145.49
X414.68Y-151.84
X414.68Y-167.08
X414.68Y-173.43
X414.68Y-181.05
X414.68Y-201.37
X414.68Y-216.61
X414.68Y-264.235
X414.68Y-268.045
X417.22Y-127.32
X417.22Y-142.56
X417.22Y-151.84
X417.22Y-167.08
X417.22Y-201.37
X417.22Y-216.61
X419.76Y-127.32
X419.76Y-142.56
X419.76Y-151.84
X419.76Y-167.08
X419.76Y-175.335
X419.76Y-179.145
X419.76Y-193.75
X419.76Y-201.37
X419.76Y-216.61
X421.03Y-246.455
X421.03Y-250.265
X422.3Y-201.37
X422.3Y-216.61
X423.57Y-193.75
X424.84Y-130.885
X424.84Y-143.585
X424.84Y-201.37
X424.84Y-216.61
X427.38Y-139.775
X427.38Y-143.585
X427.38Y-201.37
X427.38Y-216.61
X429.92Y-201.37
X429.92Y-216.61
X432.46Y-137.87
X432.46Y-145.49
X432.46Y-155.65
X432.46Y-163.27
X432.46Y-173.43
X432.46Y-181.05
X432.46Y-201.37
X432.46Y-216.61
X432.46Y-226.77
X432.46Y-234.39
X432.46Y-244.55
X432.46Y-252.17
X435.0Y-137.87
X435.0Y-145.49
X435.0Y-155.65
X435.0Y-163.27
X435.0Y-173.43
X435.0Y-181.05
X435.0Y-201.37
X435.0Y-216.61
X435.0Y-226.77
X435.0Y-234.39
X435.0Y-239.47
X435.0Y-244.55
X435.0Y-252.17
X436.27Y-193.75
X437.54Y-137.87
X437.54Y-145.49
X437.54Y-155.65
X437.54Y-163.27
X437.54Y-173.43
X437.54Y-181.05
X437.54Y-201.37
X437.54Y-216.61
X437.54Y-226.77
X437.54Y-234.39
X437.54Y-244.55
X437.54Y-252.17
X440.08Y-137.87
X440.08Y-145.49
X440.08Y-155.65
X440.08Y-163.27
X440.08Y-173.43
X440.08Y-181.05
X440.08Y-201.37
X440.08Y-216.61
X440.08Y-226.77
X440.08Y-234.39
X440.08Y-244.55
X440.08Y-252.17
X442.62Y-137.87
X442.62Y-145.49
X442.62Y-155.65
X442.62Y-163.27
X442.62Y-173.43
X442.62Y-181.05
X442.62Y-201.37
X442.62Y-216.61
X442.62Y-226.77
X442.62Y-234.39
X442.62Y-244.55
X442.62Y-252.17
X445.16Y-137.87
X445.16Y-145.49
X445.16Y-155.65
X445.16Y-163.27
X445.16Y-173.43
X445.16Y-181.05
X445.16Y-226.77
X445.16Y-234.39
X445.16Y-244.55
X445.16Y-252.17
X447.7Y-137.87
X447.7Y-145.49
X447.7Y-155.65
X447.7Y-163.27
X447.7Y-173.43
X447.7Y-181.05
X447.7Y-226.77
X447.7Y-234.39
X447.7Y-239.47
X447.7Y-244.55
X447.7Y-252.17
X450.24Y-137.87
X450.24Y-145.49
X450.24Y-155.65
X450.24Y-163.27
X455.32Y-139.775
X455.32Y-143.585
X455.32Y-157.555
X455.32Y-161.365
X457.86Y-246.455
X457.86Y-250.265
X459.765Y-139.775
X459.765Y-143.585
X468.02Y-137.87
X468.02Y-145.49
X468.02Y-155.65
X468.02Y-163.27
X468.02Y-173.43
X468.02Y-181.05
X468.02Y-191.21
X468.02Y-198.83
X468.02Y-208.99
X468.02Y-216.61
X468.02Y-226.77
X468.02Y-234.39
X468.02Y-244.55
X468.02Y-252.17
X468.02Y-262.33
X468.02Y-269.95
X470.56Y-137.87
X470.56Y-145.49
X470.56Y-155.65
X470.56Y-163.27
X470.56Y-173.43
X470.56Y-181.05
X470.56Y-191.21
X470.56Y-198.83
X470.56Y-208.99
X470.56Y-216.61
X470.56Y-226.77
X470.56Y-234.39
X470.56Y-244.55
X470.56Y-252.17
X470.56Y-262.33
X470.56Y-269.95
X473.1Y-137.87
X473.1Y-145.49
X473.1Y-155.65
X473.1Y-163.27
X473.1Y-168.35
X473.1Y-173.43
X473.1Y-181.05
X473.1Y-191.21
X473.1Y-198.83
X473.1Y-208.99
X473.1Y-216.61
X473.1Y-226.77
X473.1Y-234.39
X473.1Y-244.55
X473.1Y-252.17
X473.1Y-262.33
X473.1Y-269.95
X475.64Y-137.87
X475.64Y-145.49
X475.64Y-155.65
X475.64Y-163.27
X475.64Y-168.35
X475.64Y-173.43
X475.64Y-181.05
X475.64Y-191.21
X475.64Y-198.83
X475.64Y-208.99
X475.64Y-216.61
X475.64Y-220.42
X475.64Y-226.77
X475.64Y-234.39
X475.64Y-244.55
X475.64Y-252.17
X475.64Y-262.33
X475.64Y-269.95
X478.18Y-137.87
X478.18Y-145.49
X478.18Y-155.65
X478.18Y-163.27
X478.18Y-173.43
X478.18Y-181.05
X478.18Y-191.21
X478.18Y-198.83
X478.18Y-208.99
X478.18Y-216.61
X478.18Y-226.77
X478.18Y-234.39
X478.18Y-244.55
X478.18Y-252.17
X478.18Y-262.33
X478.18Y-269.95
X480.72Y-137.87
X480.72Y-145.49
X480.72Y-155.65
X480.72Y-163.27
X480.72Y-173.43
X480.72Y-181.05
X480.72Y-191.21
X480.72Y-198.83
X480.72Y-208.99
X480.72Y-216.61
X480.72Y-226.77
X480.72Y-234.39
X480.72Y-244.55
X480.72Y-252.17
X480.72Y-262.33
X480.72Y-269.95
X483.26Y-137.87
X483.26Y-145.49
X483.26Y-155.65
X483.26Y-163.27
X483.26Y-173.43
X483.26Y-181.05
X483.26Y-191.21
X483.26Y-198.83
X483.26Y-208.99
X483.26Y-216.61
X483.26Y-226.77
X483.26Y-234.39
X483.26Y-244.55
X483.26Y-252.17
X483.26Y-262.33
X483.26Y-269.95
X485.8Y-155.65
X485.8Y-163.27
X485.8Y-262.33
X485.8Y-269.95
X488.34Y-220.42
X489.61Y-175.335
X489.61Y-179.145
X489.61Y-193.115
X489.61Y-196.925
X492.15Y-210.895
X492.15Y-214.705
X492.15Y-228.675
X492.15Y-232.485
X492.15Y-246.455
X492.15Y-250.265
X494.69Y-139.775
X494.69Y-143.585
X494.69Y-153.745
X494.69Y-157.555
X498.5Y-224.23
X498.5Y-236.93
X501.04Y-153.11
X501.04Y-165.81
X501.04Y-224.23
X501.04Y-236.93
X503.58Y-137.87
X503.58Y-145.49
X503.58Y-153.11
X503.58Y-165.81
X503.58Y-173.43
X503.58Y-181.05
X503.58Y-191.21
X503.58Y-198.83
X503.58Y-208.99
X503.58Y-216.61
X503.58Y-224.23
X503.58Y-236.93
X503.58Y-244.55
X503.58Y-252.17
X503.58Y-262.33
X503.58Y-269.95
X506.12Y-137.87
X506.12Y-145.49
X506.12Y-153.11
X506.12Y-165.81
X506.12Y-173.43
X506.12Y-181.05
X506.12Y-191.21
X506.12Y-198.83
X506.12Y-208.99
X506.12Y-216.61
X506.12Y-224.23
X506.12Y-236.93
X506.12Y-244.55
X506.12Y-252.17
X506.12Y-262.33
X506.12Y-269.95
X508.66Y-137.87
X508.66Y-145.49
X508.66Y-153.11
X508.66Y-165.81
X508.66Y-173.43
X508.66Y-181.05
X508.66Y-191.21
X508.66Y-198.83
X508.66Y-208.99
X508.66Y-216.61
X508.66Y-224.23
X508.66Y-236.93
X508.66Y-244.55
X508.66Y-252.17
X508.66Y-262.33
X508.66Y-269.95
X511.2Y-137.87
X511.2Y-145.49
X511.2Y-153.11
X511.2Y-165.81
X511.2Y-173.43
X511.2Y-181.05
X511.2Y-191.21
X511.2Y-198.83
X511.2Y-208.99
X511.2Y-216.61
X511.2Y-220.42
X511.2Y-224.23
X511.2Y-236.93
X511.2Y-244.55
X511.2Y-252.17
X511.2Y-262.33
X511.2Y-269.95
X513.74Y-137.87
X513.74Y-145.49
X513.74Y-153.11
X513.74Y-165.81
X513.74Y-173.43
X513.74Y-181.05
X513.74Y-191.21
X513.74Y-198.83
X513.74Y-208.99
X513.74Y-216.61
X513.74Y-224.23
X513.74Y-236.93
X513.74Y-244.55
X513.74Y-252.17
X513.74Y-262.33
X513.74Y-269.95
X515.01Y-220.42
X516.28Y-137.87
X516.28Y-145.49
X516.28Y-173.43
X516.28Y-181.05
X516.28Y-191.21
X516.28Y-198.83
X516.28Y-208.99
X516.28Y-216.61
X516.28Y-244.55
X516.28Y-252.17
X516.28Y-262.33
X516.28Y-269.95
X517.55Y-226.77
X517.55Y-229.31
X518.82Y-137.87
X518.82Y-145.49
X518.82Y-173.43
X518.82Y-181.05
X518.82Y-191.21
X518.82Y-198.83
X518.82Y-208.99
X518.82Y-216.61
X518.82Y-244.55
X518.82Y-252.17
X518.82Y-262.33
X518.82Y-269.95
X520.09Y-229.31
X521.36Y-153.11
X521.36Y-165.81
X523.9Y-153.11
X523.9Y-165.81
X523.9Y-172.795
X526.44Y-153.11
X526.44Y-165.81
X526.44Y-172.795
X526.44Y-175.335
X526.44Y-206.45
X526.44Y-219.15
X531.52Y-210.26
X531.52Y-215.34
X531.52Y-246.455
X531.52Y-250.265
X531.52Y-264.87
X531.52Y-268.68
X536.6Y-139.775
X536.6Y-143.585
X536.6Y-156.285
X536.6Y-160.095
X536.6Y-175.335
X536.6Y-179.145
X537.235Y-193.115
X537.235Y-196.925
X539.14Y-207.72
X539.14Y-217.88
X544.22Y-135.33
X544.22Y-137.87
X544.22Y-142.95
X544.22Y-145.49
X544.22Y-155.65
X544.22Y-163.27
X544.22Y-173.43
X544.22Y-181.05
X544.22Y-191.21
X544.22Y-198.83
X544.22Y-226.77
X544.22Y-234.39
X544.22Y-244.55
X544.22Y-252.17
X544.22Y-262.33
X544.22Y-269.95
X546.76Y-135.33
X546.76Y-137.87
X546.76Y-142.95
X546.76Y-145.49
X546.76Y-155.65
X546.76Y-163.27
X546.76Y-173.43
X546.76Y-181.05
X546.76Y-191.21
X546.76Y-198.83
X546.76Y-226.77
X546.76Y-234.39
X546.76Y-238.2
X546.76Y-244.55
X546.76Y-252.17
X546.76Y-262.33
X546.76Y-269.95
X548.03Y-206.45
X548.03Y-208.99
X548.03Y-211.53
X548.03Y-214.07
X549.3Y-135.33
X549.3Y-137.87
X549.3Y-142.95
X549.3Y-145.49
X549.3Y-155.65
X549.3Y-163.27
X549.3Y-173.43
X549.3Y-181.05
X549.3Y-191.21
X549.3Y-198.83
X549.3Y-226.77
X549.3Y-234.39
X549.3Y-244.55
X549.3Y-252.17
X549.3Y-262.33
X549.3Y-269.95
X550.57Y-238.2
X551.84Y-135.33
X551.84Y-137.87
X551.84Y-142.95
X551.84Y-145.49
X551.84Y-155.65
X551.84Y-163.27
X551.84Y-173.43
X551.84Y-181.05
X551.84Y-191.21
X551.84Y-198.83
X551.84Y-226.77
X551.84Y-234.39
X551.84Y-244.55
X551.84Y-252.17
X551.84Y-262.33
X551.84Y-269.95
X554.38Y-135.33
X554.38Y-142.95
X554.38Y-155.65
X554.38Y-163.27
X554.38Y-173.43
X554.38Y-181.05
X554.38Y-191.21
X554.38Y-198.83
X554.38Y-226.77
X554.38Y-234.39
X554.38Y-238.2
X554.38Y-244.55
X554.38Y-252.17
X554.38Y-262.33
X554.38Y-269.95
X556.92Y-135.33
X556.92Y-142.95
X556.92Y-155.65
X556.92Y-163.27
X556.92Y-173.43
X556.92Y-181.05
X556.92Y-191.21
X556.92Y-198.83
X556.92Y-220.42
X556.92Y-222.96
X556.92Y-226.77
X556.92Y-234.39
X556.92Y-244.55
X556.92Y-252.17
X556.92Y-262.33
X556.92Y-269.95
X558.19Y-238.2
X559.46Y-135.33
X559.46Y-142.95
X559.46Y-155.65
X559.46Y-163.27
X559.46Y-173.43
X559.46Y-181.05
X559.46Y-191.21
X559.46Y-198.83
X559.46Y-226.77
X559.46Y-234.39
X559.46Y-244.55
X559.46Y-252.17
X559.46Y-262.33
X559.46Y-269.95
X560.73Y-206.45
X560.73Y-208.99
X560.73Y-211.53
X560.73Y-214.07
X560.73Y-220.42
X560.73Y-222.96
X562.0Y-155.65
X562.0Y-163.27
X562.0Y-173.43
X562.0Y-181.05
X562.0Y-191.21
X562.0Y-198.83
T3
X567.08Y-125.17
X567.08Y-127.71
X569.62Y-121.04
X569.62Y-131.84
X574.7Y-121.04
X574.7Y-131.84
T4
X161.69Y-111.0
X163.075Y-108.16
X164.46Y-111.0
X165.845Y-108.16
X167.23Y-111.0
X168.615Y-108.16
X170.0Y-111.0
X171.385Y-108.16
X172.77Y-111.0
X178.46Y-132.415
X181.0Y-132.415
X183.54Y-132.415
X196.46Y-111.0
X197.845Y-108.16
X199.23Y-111.0
X200.615Y-108.16
X202.0Y-111.0
X203.385Y-108.16
X204.77Y-111.0
X206.155Y-108.16
X207.54Y-111.0
X426.92Y-111.0
X428.305Y-108.16
X429.69Y-111.0
X431.075Y-108.16
X432.46Y-111.0
X433.845Y-108.16
X435.23Y-111.0
X436.615Y-108.16
X438.0Y-111.0
T5
X490.88Y-107.39
X490.88Y-109.93
X490.88Y-115.01
X490.88Y-117.55
X493.42Y-107.39
X493.42Y-109.93
X493.42Y-115.01
X493.42Y-117.55
X495.96Y-107.39
X495.96Y-109.93
X495.96Y-115.01
X495.96Y-117.55
X498.5Y-107.39
X498.5Y-109.93
X498.5Y-115.01
X498.5Y-117.55
X501.04Y-107.39
X501.04Y-109.93
X501.04Y-115.01
X501.04Y-117.55
X503.58Y-107.39
X503.58Y-109.93
X503.58Y-115.01
X503.58Y-117.55
X506.12Y-107.39
X506.12Y-109.93
X506.12Y-115.01
X506.12Y-117.55
X508.66Y-107.39
X508.66Y-109.93
X508.66Y-115.01
X508.66Y-117.55
X511.2Y-107.39
X511.2Y-109.93
X511.2Y-115.01
X511.2Y-117.55
X513.74Y-107.39
X513.74Y-109.93
X513.74Y-115.01
X513.74Y-117.55
X516.28Y-107.39
X516.28Y-109.93
X516.28Y-115.01
X516.28Y-117.55
X518.82Y-107.39
X518.82Y-109.93
X518.82Y-115.01
X518.82Y-117.55
X521.36Y-107.39
X521.36Y-109.93
X521.36Y-115.01
X521.36Y-117.55
X523.9Y-107.39
X523.9Y-109.93
X523.9Y-115.01
X523.9Y-117.55
X526.44Y-107.39
X526.44Y-109.93
X526.44Y-115.01
X526.44Y-117.55
X528.98Y-107.39
X528.98Y-109.93
X528.98Y-115.01
X528.98Y-117.55
X531.52Y-107.39
X531.52Y-109.93
X531.52Y-115.01
X531.52Y-117.55
T6
X459.765Y-124.535
X464.845Y-124.535
X469.925Y-124.535
T7
X104.8Y-230.58
X109.88Y-225.5
X109.88Y-235.66
T8
X117.5Y-201.37
X117.5Y-208.99
X125.12Y-201.37
X125.12Y-208.99
T9
X357.93Y-112.7
X360.47Y-102.54
X360.47Y-115.24
X363.01Y-102.54
X365.55Y-112.7
X368.09Y-102.54
X370.63Y-102.54
X370.63Y-115.24
X373.17Y-112.7
X390.55Y-109.93
X390.55Y-117.055
X391.942Y-112.619
X393.725Y-119.455
X393.725Y-122.63
X394.441Y-102.621
X394.441Y-115.118
X396.941Y-102.621
X397.535Y-119.455
X397.535Y-122.63
X399.44Y-112.619
X399.44Y-117.62
X401.345Y-119.455
X401.345Y-122.63
X401.939Y-102.621
X404.439Y-102.621
X404.439Y-115.118
X405.155Y-119.455
X405.155Y-122.63
X406.938Y-112.619
X408.33Y-109.93
X408.33Y-117.055
X456.59Y-102.945
X456.59Y-110.07
X459.765Y-112.47
X459.765Y-115.645
X463.575Y-112.47
X463.575Y-115.645
X467.385Y-112.47
X467.385Y-115.645
X471.195Y-112.47
X471.195Y-115.645
X474.37Y-102.945
X474.37Y-110.07
T10
X115.81Y-205.18
X126.81Y-205.18
T11
X124.0Y-104.0
X124.0Y-276.0
X134.645Y-105.485
X134.645Y-174.065
X349.0Y-104.0
X349.0Y-276.0
X554.0Y-104.0
X554.0Y-276.0
T12
X478.53Y-186.13
X478.53Y-277.13
X572.53Y-186.13
X572.53Y-277.13
T13
X154.73Y-109.58
X179.73Y-109.58
X189.5Y-109.58
X214.5Y-109.58
X419.96Y-109.58
X444.96Y-109.58
T5
X242.544Y-105.9G85X246.076Y-105.9
G05
X250.544Y-105.9G85X254.076Y-105.9
G05
T0
M30
