%TF.GenerationSoftware,KiCad,Pcbnew,7.0.1-0*%
%TF.CreationDate,2023-05-27T13:15:01+03:00*%
%TF.ProjectId,HC2000,48433230-3030-42e6-9b69-6361645f7063,rev?*%
%TF.SameCoordinates,Original*%
%TF.FileFunction,Soldermask,Top*%
%TF.FilePolarity,Negative*%
%FSLAX46Y46*%
G04 Gerber Fmt 4.6, Leading zero omitted, Abs format (unit mm)*
G04 Created by KiCad (PCBNEW 7.0.1-0) date 2023-05-27 13:15:01*
%MOMM*%
%LPD*%
G01*
G04 APERTURE LIST*
G04 Aperture macros list*
%AMRoundRect*
0 Rectangle with rounded corners*
0 $1 Rounding radius*
0 $2 $3 $4 $5 $6 $7 $8 $9 X,Y pos of 4 corners*
0 Add a 4 corners polygon primitive as box body*
4,1,4,$2,$3,$4,$5,$6,$7,$8,$9,$2,$3,0*
0 Add four circle primitives for the rounded corners*
1,1,$1+$1,$2,$3*
1,1,$1+$1,$4,$5*
1,1,$1+$1,$6,$7*
1,1,$1+$1,$8,$9*
0 Add four rect primitives between the rounded corners*
20,1,$1+$1,$2,$3,$4,$5,0*
20,1,$1+$1,$4,$5,$6,$7,0*
20,1,$1+$1,$6,$7,$8,$9,0*
20,1,$1+$1,$8,$9,$2,$3,0*%
G04 Aperture macros list end*
%ADD10C,1.524000*%
%ADD11C,2.794000*%
%ADD12C,1.948180*%
%ADD13RoundRect,0.381000X-0.381000X-4.619000X0.381000X-4.619000X0.381000X4.619000X-0.381000X4.619000X0*%
%ADD14R,1.800000X1.800000*%
%ADD15O,1.800000X1.800000*%
%ADD16C,4.000000*%
%ADD17R,1.600000X1.600000*%
%ADD18C,1.600000*%
%ADD19C,2.000000*%
%ADD20R,1.524000X1.524000*%
%ADD21C,2.397760*%
%ADD22R,1.948180X1.948180*%
%ADD23O,5.715000X1.905000*%
%ADD24C,3.500000*%
G04 APERTURE END LIST*
D10*
X523900000Y-153110000D03*
X523900000Y-165810000D03*
X275615000Y-193115000D03*
X275615000Y-196925000D03*
X506120000Y-236930000D03*
X506120000Y-224230000D03*
D11*
X372916000Y-107620000D03*
X357676000Y-107620000D03*
D12*
X357676000Y-112700000D03*
X365296000Y-112700000D03*
X372916000Y-112700000D03*
X360216000Y-115240000D03*
X370376000Y-115240000D03*
X370376000Y-102540000D03*
X367836000Y-102540000D03*
X362756000Y-102540000D03*
X360216000Y-102540000D03*
D10*
X155600000Y-127710000D03*
X158140000Y-127710000D03*
X160680000Y-127710000D03*
X163220000Y-127710000D03*
X165760000Y-127710000D03*
X168300000Y-127710000D03*
X170840000Y-127710000D03*
X173380000Y-127710000D03*
X175920000Y-127710000D03*
X178460000Y-127710000D03*
X178460000Y-120090000D03*
X175920000Y-120090000D03*
X173380000Y-120090000D03*
X170840000Y-120090000D03*
X168300000Y-120090000D03*
X165760000Y-120090000D03*
X163220000Y-120090000D03*
X160680000Y-120090000D03*
X158140000Y-120090000D03*
X155600000Y-120090000D03*
D12*
X390804000Y-109930000D03*
X390804000Y-117055000D03*
X408584000Y-109930000D03*
X408584000Y-117055000D03*
X393979000Y-119455000D03*
X393979000Y-122630000D03*
X397789000Y-119455000D03*
X397789000Y-122630000D03*
X401599000Y-119455000D03*
X401599000Y-122630000D03*
X405409000Y-119455000D03*
X405409000Y-122630000D03*
D10*
X193700000Y-201370000D03*
X193700000Y-188670000D03*
X282600000Y-234390000D03*
X285140000Y-234390000D03*
X287680000Y-234390000D03*
X290220000Y-234390000D03*
X292760000Y-234390000D03*
X295300000Y-234390000D03*
X297840000Y-234390000D03*
X300380000Y-234390000D03*
X300380000Y-226770000D03*
X297840000Y-226770000D03*
X295300000Y-226770000D03*
X292760000Y-226770000D03*
X290220000Y-226770000D03*
X287680000Y-226770000D03*
X285140000Y-226770000D03*
X282600000Y-226770000D03*
D13*
X264820000Y-105485000D03*
X267360000Y-105485000D03*
X269900000Y-105485000D03*
X272440000Y-105485000D03*
X277520000Y-105485000D03*
X280060000Y-105485000D03*
X282600000Y-105485000D03*
X285140000Y-105485000D03*
X287680000Y-105485000D03*
X290220000Y-105485000D03*
X292760000Y-105485000D03*
X295300000Y-105485000D03*
X297840000Y-105485000D03*
X300380000Y-105485000D03*
X302920000Y-105485000D03*
X305460000Y-105485000D03*
X308000000Y-105485000D03*
X310540000Y-105485000D03*
X313080000Y-105485000D03*
X315620000Y-105485000D03*
X318160000Y-105485000D03*
X320700000Y-105485000D03*
X323240000Y-105485000D03*
X325780000Y-105485000D03*
X328320000Y-105485000D03*
X330860000Y-105485000D03*
X333400000Y-105485000D03*
D10*
X503580000Y-224230000D03*
X503580000Y-236930000D03*
X197510000Y-135330000D03*
X197510000Y-148030000D03*
X414680000Y-264235000D03*
X414680000Y-268045000D03*
X231165000Y-175335000D03*
X231165000Y-179145000D03*
X503580000Y-145490000D03*
X506120000Y-145490000D03*
X508660000Y-145490000D03*
X511200000Y-145490000D03*
X513740000Y-145490000D03*
X516280000Y-145490000D03*
X518820000Y-145490000D03*
X518820000Y-137870000D03*
X516280000Y-137870000D03*
X513740000Y-137870000D03*
X511200000Y-137870000D03*
X508660000Y-137870000D03*
X506120000Y-137870000D03*
X503580000Y-137870000D03*
X432460000Y-163270000D03*
X435000000Y-163270000D03*
X437540000Y-163270000D03*
X440080000Y-163270000D03*
X442620000Y-163270000D03*
X445160000Y-163270000D03*
X447700000Y-163270000D03*
X450240000Y-163270000D03*
X450240000Y-155650000D03*
X447700000Y-155650000D03*
X445160000Y-155650000D03*
X442620000Y-155650000D03*
X440080000Y-155650000D03*
X437540000Y-155650000D03*
X435000000Y-155650000D03*
X432460000Y-155650000D03*
X171475000Y-228675000D03*
X171475000Y-232485000D03*
X107340000Y-252170000D03*
X109880000Y-252170000D03*
X112420000Y-252170000D03*
X114960000Y-252170000D03*
X117500000Y-252170000D03*
X120040000Y-252170000D03*
X122580000Y-252170000D03*
X122580000Y-244550000D03*
X120040000Y-244550000D03*
X117500000Y-244550000D03*
X114960000Y-244550000D03*
X112420000Y-244550000D03*
X109880000Y-244550000D03*
X107340000Y-244550000D03*
X513740000Y-236930000D03*
X513740000Y-224230000D03*
X231800000Y-117550000D03*
X231800000Y-130250000D03*
X247040000Y-181050000D03*
X249580000Y-181050000D03*
X252120000Y-181050000D03*
X254660000Y-181050000D03*
X257200000Y-181050000D03*
X259740000Y-181050000D03*
X262280000Y-181050000D03*
X264820000Y-181050000D03*
X264820000Y-173430000D03*
X262280000Y-173430000D03*
X259740000Y-173430000D03*
X257200000Y-173430000D03*
X254660000Y-173430000D03*
X252120000Y-173430000D03*
X249580000Y-173430000D03*
X247040000Y-173430000D03*
X175920000Y-181050000D03*
X178460000Y-181050000D03*
X181000000Y-181050000D03*
X183540000Y-181050000D03*
X186080000Y-181050000D03*
X188620000Y-181050000D03*
X191160000Y-181050000D03*
X191160000Y-173430000D03*
X188620000Y-173430000D03*
X186080000Y-173430000D03*
X183540000Y-173430000D03*
X181000000Y-173430000D03*
X178460000Y-173430000D03*
X175920000Y-173430000D03*
X175920000Y-269950000D03*
X175920000Y-257250000D03*
X211480000Y-234390000D03*
X214020000Y-234390000D03*
X216560000Y-234390000D03*
X219100000Y-234390000D03*
X221640000Y-234390000D03*
X224180000Y-234390000D03*
X226720000Y-234390000D03*
X229260000Y-234390000D03*
X229260000Y-226770000D03*
X226720000Y-226770000D03*
X224180000Y-226770000D03*
X221640000Y-226770000D03*
X219100000Y-226770000D03*
X216560000Y-226770000D03*
X214020000Y-226770000D03*
X211480000Y-226770000D03*
X457860000Y-246455000D03*
X457860000Y-250265000D03*
X394360000Y-181050000D03*
X396900000Y-181050000D03*
X399440000Y-181050000D03*
X401980000Y-181050000D03*
X404520000Y-181050000D03*
X407060000Y-181050000D03*
X409600000Y-181050000D03*
X412140000Y-181050000D03*
X414680000Y-181050000D03*
X414680000Y-173430000D03*
X412140000Y-173430000D03*
X409600000Y-173430000D03*
X407060000Y-173430000D03*
X404520000Y-173430000D03*
X401980000Y-173430000D03*
X399440000Y-173430000D03*
X396900000Y-173430000D03*
X394360000Y-173430000D03*
X503580000Y-181050000D03*
X506120000Y-181050000D03*
X508660000Y-181050000D03*
X511200000Y-181050000D03*
X513740000Y-181050000D03*
X516280000Y-181050000D03*
X518820000Y-181050000D03*
X518820000Y-173430000D03*
X516280000Y-173430000D03*
X513740000Y-173430000D03*
X511200000Y-173430000D03*
X508660000Y-173430000D03*
X506120000Y-173430000D03*
X503580000Y-173430000D03*
X193700000Y-148030000D03*
X193700000Y-135330000D03*
X558190000Y-238200000D03*
X554380000Y-238200000D03*
X201320000Y-257250000D03*
X201320000Y-269950000D03*
X186080000Y-201370000D03*
X186080000Y-188670000D03*
X135280000Y-224230000D03*
X135280000Y-236930000D03*
X247040000Y-216610000D03*
X249580000Y-216610000D03*
X252120000Y-216610000D03*
X254660000Y-216610000D03*
X257200000Y-216610000D03*
X259740000Y-216610000D03*
X262280000Y-216610000D03*
X264820000Y-216610000D03*
X264820000Y-208990000D03*
X262280000Y-208990000D03*
X259740000Y-208990000D03*
X257200000Y-208990000D03*
X254660000Y-208990000D03*
X252120000Y-208990000D03*
X249580000Y-208990000D03*
X247040000Y-208990000D03*
X165760000Y-269950000D03*
X165760000Y-257250000D03*
X308635000Y-193115000D03*
X308635000Y-196925000D03*
X168300000Y-269950000D03*
X168300000Y-257250000D03*
X175920000Y-135330000D03*
X175920000Y-148030000D03*
X394360000Y-216610000D03*
X396900000Y-216610000D03*
X399440000Y-216610000D03*
X401980000Y-216610000D03*
X404520000Y-216610000D03*
X407060000Y-216610000D03*
X409600000Y-216610000D03*
X412140000Y-216610000D03*
X414680000Y-216610000D03*
X417220000Y-216610000D03*
X419760000Y-216610000D03*
X422300000Y-216610000D03*
X424840000Y-216610000D03*
X427380000Y-216610000D03*
X429920000Y-216610000D03*
X432460000Y-216610000D03*
X435000000Y-216610000D03*
X437540000Y-216610000D03*
X440080000Y-216610000D03*
X442620000Y-216610000D03*
X442620000Y-201370000D03*
X440080000Y-201370000D03*
X437540000Y-201370000D03*
X435000000Y-201370000D03*
X432460000Y-201370000D03*
X429920000Y-201370000D03*
X427380000Y-201370000D03*
X424840000Y-201370000D03*
X422300000Y-201370000D03*
X419760000Y-201370000D03*
X417220000Y-201370000D03*
X414680000Y-201370000D03*
X412140000Y-201370000D03*
X409600000Y-201370000D03*
X407060000Y-201370000D03*
X404520000Y-201370000D03*
X401980000Y-201370000D03*
X399440000Y-201370000D03*
X396900000Y-201370000D03*
X394360000Y-201370000D03*
X455320000Y-139775000D03*
X455320000Y-143585000D03*
X517550000Y-226770000D03*
X517550000Y-229310000D03*
X520090000Y-229310000D03*
X560730000Y-214070000D03*
X548030000Y-214070000D03*
X224180000Y-145490000D03*
X226720000Y-145490000D03*
X229260000Y-145490000D03*
X231800000Y-145490000D03*
X234340000Y-145490000D03*
X236880000Y-145490000D03*
X239420000Y-145490000D03*
X239420000Y-137870000D03*
X236880000Y-137870000D03*
X234340000Y-137870000D03*
X231800000Y-137870000D03*
X229260000Y-137870000D03*
X226720000Y-137870000D03*
X224180000Y-137870000D03*
D14*
X183540000Y-132415000D03*
D15*
X181000000Y-132415000D03*
X178460000Y-132415000D03*
D10*
X120040000Y-224230000D03*
X120040000Y-236930000D03*
X358800000Y-142950000D03*
X361340000Y-142950000D03*
X363880000Y-142950000D03*
X366420000Y-142950000D03*
X368960000Y-142950000D03*
X371500000Y-142950000D03*
X374040000Y-142950000D03*
X374040000Y-135330000D03*
X371500000Y-135330000D03*
X368960000Y-135330000D03*
X366420000Y-135330000D03*
X363880000Y-135330000D03*
X361340000Y-135330000D03*
X358800000Y-135330000D03*
X353720000Y-252170000D03*
X356260000Y-252170000D03*
X358800000Y-252170000D03*
X361340000Y-252170000D03*
X363880000Y-252170000D03*
X366420000Y-252170000D03*
X368960000Y-252170000D03*
X371500000Y-252170000D03*
X371500000Y-244550000D03*
X368960000Y-244550000D03*
X366420000Y-244550000D03*
X363880000Y-244550000D03*
X361340000Y-244550000D03*
X358800000Y-244550000D03*
X356260000Y-244550000D03*
X353720000Y-244550000D03*
X247040000Y-252170000D03*
X249580000Y-252170000D03*
X252120000Y-252170000D03*
X254660000Y-252170000D03*
X257200000Y-252170000D03*
X259740000Y-252170000D03*
X262280000Y-252170000D03*
X262280000Y-244550000D03*
X259740000Y-244550000D03*
X257200000Y-244550000D03*
X254660000Y-244550000D03*
X252120000Y-244550000D03*
X249580000Y-244550000D03*
X247040000Y-244550000D03*
X544220000Y-163270000D03*
X546760000Y-163270000D03*
X549300000Y-163270000D03*
X551840000Y-163270000D03*
X554380000Y-163270000D03*
X556920000Y-163270000D03*
X559460000Y-163270000D03*
X562000000Y-163270000D03*
X562000000Y-155650000D03*
X559460000Y-155650000D03*
X556920000Y-155650000D03*
X554380000Y-155650000D03*
X551840000Y-155650000D03*
X549300000Y-155650000D03*
X546760000Y-155650000D03*
X544220000Y-155650000D03*
D16*
X214500000Y-109580000D03*
X189500000Y-109580000D03*
D17*
X207540000Y-111000000D03*
D18*
X204770000Y-111000000D03*
X202000000Y-111000000D03*
X199230000Y-111000000D03*
X196460000Y-111000000D03*
X206155000Y-108160000D03*
X203385000Y-108160000D03*
X200615000Y-108160000D03*
X197845000Y-108160000D03*
D10*
X503580000Y-269950000D03*
X506120000Y-269950000D03*
X508660000Y-269950000D03*
X511200000Y-269950000D03*
X513740000Y-269950000D03*
X516280000Y-269950000D03*
X518820000Y-269950000D03*
X518820000Y-262330000D03*
X516280000Y-262330000D03*
X513740000Y-262330000D03*
X511200000Y-262330000D03*
X508660000Y-262330000D03*
X506120000Y-262330000D03*
X503580000Y-262330000D03*
X282600000Y-198830000D03*
X285140000Y-198830000D03*
X287680000Y-198830000D03*
X290220000Y-198830000D03*
X292760000Y-198830000D03*
X295300000Y-198830000D03*
X297840000Y-198830000D03*
X300380000Y-198830000D03*
X300380000Y-191210000D03*
X297840000Y-191210000D03*
X295300000Y-191210000D03*
X292760000Y-191210000D03*
X290220000Y-191210000D03*
X287680000Y-191210000D03*
X285140000Y-191210000D03*
X282600000Y-191210000D03*
X351180000Y-210895000D03*
X351180000Y-214705000D03*
X140360000Y-234390000D03*
X142900000Y-234390000D03*
X145440000Y-234390000D03*
X147980000Y-234390000D03*
X150520000Y-234390000D03*
X153060000Y-234390000D03*
X155600000Y-234390000D03*
X155600000Y-226770000D03*
X153060000Y-226770000D03*
X150520000Y-226770000D03*
X147980000Y-226770000D03*
X145440000Y-226770000D03*
X142900000Y-226770000D03*
X140360000Y-226770000D03*
X511200000Y-220420000D03*
X515010000Y-220420000D03*
X175920000Y-163270000D03*
X178460000Y-163270000D03*
X181000000Y-163270000D03*
X183540000Y-163270000D03*
X186080000Y-163270000D03*
X188620000Y-163270000D03*
X191160000Y-163270000D03*
X191160000Y-155650000D03*
X188620000Y-155650000D03*
X186080000Y-155650000D03*
X183540000Y-155650000D03*
X181000000Y-155650000D03*
X178460000Y-155650000D03*
X175920000Y-155650000D03*
D19*
X109880000Y-225500000D03*
X104800000Y-230580000D03*
X109880000Y-235660000D03*
D10*
X275615000Y-175335000D03*
X275615000Y-179145000D03*
X560730000Y-211530000D03*
X548030000Y-211530000D03*
X427380000Y-139775000D03*
X427380000Y-143585000D03*
X503580000Y-198830000D03*
X506120000Y-198830000D03*
X508660000Y-198830000D03*
X511200000Y-198830000D03*
X513740000Y-198830000D03*
X516280000Y-198830000D03*
X518820000Y-198830000D03*
X518820000Y-191210000D03*
X516280000Y-191210000D03*
X513740000Y-191210000D03*
X511200000Y-191210000D03*
X508660000Y-191210000D03*
X506120000Y-191210000D03*
X503580000Y-191210000D03*
X353720000Y-198830000D03*
X356260000Y-198830000D03*
X358800000Y-198830000D03*
X361340000Y-198830000D03*
X363880000Y-198830000D03*
X366420000Y-198830000D03*
X368960000Y-198830000D03*
X371500000Y-198830000D03*
X374040000Y-198830000D03*
X374040000Y-191210000D03*
X371500000Y-191210000D03*
X368960000Y-191210000D03*
X366420000Y-191210000D03*
X363880000Y-191210000D03*
X361340000Y-191210000D03*
X358800000Y-191210000D03*
X356260000Y-191210000D03*
X353720000Y-191210000D03*
X186080000Y-148030000D03*
X186080000Y-135330000D03*
X371500000Y-132790000D03*
X371500000Y-120090000D03*
X117500000Y-186130000D03*
X104800000Y-186130000D03*
X548030000Y-206450000D03*
X560730000Y-206450000D03*
X211480000Y-181050000D03*
X214020000Y-181050000D03*
X216560000Y-181050000D03*
X219100000Y-181050000D03*
X221640000Y-181050000D03*
X224180000Y-181050000D03*
X226720000Y-181050000D03*
X226720000Y-173430000D03*
X224180000Y-173430000D03*
X221640000Y-173430000D03*
X219100000Y-173430000D03*
X216560000Y-173430000D03*
X214020000Y-173430000D03*
X211480000Y-173430000D03*
D20*
X391820000Y-142560000D03*
D10*
X394360000Y-142560000D03*
X396900000Y-142560000D03*
X399440000Y-142560000D03*
X401980000Y-142560000D03*
X404520000Y-142560000D03*
X407060000Y-142560000D03*
X409600000Y-142560000D03*
X412140000Y-142560000D03*
X414680000Y-142560000D03*
X417220000Y-142560000D03*
X419760000Y-142560000D03*
X419760000Y-127320000D03*
X417220000Y-127320000D03*
X414680000Y-127320000D03*
X412140000Y-127320000D03*
X409600000Y-127320000D03*
X407060000Y-127320000D03*
X404520000Y-127320000D03*
X401980000Y-127320000D03*
X399440000Y-127320000D03*
X396900000Y-127320000D03*
X394360000Y-127320000D03*
X391820000Y-127320000D03*
X309270000Y-259790000D03*
X309270000Y-272490000D03*
X318160000Y-234390000D03*
X320700000Y-234390000D03*
X323240000Y-234390000D03*
X325780000Y-234390000D03*
X328320000Y-234390000D03*
X330860000Y-234390000D03*
X333400000Y-234390000D03*
X335940000Y-234390000D03*
X338480000Y-234390000D03*
X341020000Y-234390000D03*
X341020000Y-226770000D03*
X338480000Y-226770000D03*
X335940000Y-226770000D03*
X333400000Y-226770000D03*
X330860000Y-226770000D03*
X328320000Y-226770000D03*
X325780000Y-226770000D03*
X323240000Y-226770000D03*
X320700000Y-226770000D03*
X318160000Y-226770000D03*
D21*
X407192080Y-107620000D03*
X392195920Y-107620000D03*
D22*
X392195920Y-112618720D03*
D12*
X394695280Y-115118080D03*
X399694000Y-112618720D03*
X404692720Y-115118080D03*
X407192080Y-112618720D03*
X399694000Y-117619980D03*
X404692720Y-102621280D03*
X402193360Y-102621280D03*
X397194640Y-102621280D03*
X394695280Y-102621280D03*
D10*
X531520000Y-107390000D03*
X531520000Y-109930000D03*
X528980000Y-107390000D03*
X528980000Y-109930000D03*
X526440000Y-107390000D03*
X526440000Y-109930000D03*
X523900000Y-107390000D03*
X523900000Y-109930000D03*
X521360000Y-107390000D03*
X521360000Y-109930000D03*
X518820000Y-107390000D03*
X518820000Y-109930000D03*
X516280000Y-107390000D03*
X516280000Y-109930000D03*
X513740000Y-107390000D03*
X513740000Y-109930000D03*
X511200000Y-107390000D03*
X511200000Y-109930000D03*
X508660000Y-107390000D03*
X508660000Y-109930000D03*
X506120000Y-107390000D03*
X506120000Y-109930000D03*
X503580000Y-107390000D03*
X503580000Y-109930000D03*
X501040000Y-107390000D03*
X501040000Y-109930000D03*
X498500000Y-107390000D03*
X498500000Y-109930000D03*
X495960000Y-107390000D03*
X495960000Y-109930000D03*
X493420000Y-107390000D03*
X493420000Y-109930000D03*
X490880000Y-107390000D03*
X490880000Y-109930000D03*
X140360000Y-216610000D03*
X142900000Y-216610000D03*
X145440000Y-216610000D03*
X147980000Y-216610000D03*
X150520000Y-216610000D03*
X153060000Y-216610000D03*
X155600000Y-216610000D03*
X155600000Y-208990000D03*
X153060000Y-208990000D03*
X150520000Y-208990000D03*
X147980000Y-208990000D03*
X145440000Y-208990000D03*
X142900000Y-208990000D03*
X140360000Y-208990000D03*
X224180000Y-242010000D03*
X211480000Y-242010000D03*
X191160000Y-193750000D03*
X191160000Y-188670000D03*
X140360000Y-252170000D03*
X142900000Y-252170000D03*
X145440000Y-252170000D03*
X147980000Y-252170000D03*
X150520000Y-252170000D03*
X153060000Y-252170000D03*
X155600000Y-252170000D03*
X158140000Y-252170000D03*
X158140000Y-244550000D03*
X155600000Y-244550000D03*
X153060000Y-244550000D03*
X150520000Y-244550000D03*
X147980000Y-244550000D03*
X145440000Y-244550000D03*
X142900000Y-244550000D03*
X140360000Y-244550000D03*
X353720000Y-269950000D03*
X356260000Y-269950000D03*
X358800000Y-269950000D03*
X361340000Y-269950000D03*
X363880000Y-269950000D03*
X366420000Y-269950000D03*
X368960000Y-269950000D03*
X371500000Y-269950000D03*
X371500000Y-262330000D03*
X368960000Y-262330000D03*
X366420000Y-262330000D03*
X363880000Y-262330000D03*
X361340000Y-262330000D03*
X358800000Y-262330000D03*
X356260000Y-262330000D03*
X353720000Y-262330000D03*
X311810000Y-272490000D03*
X311810000Y-259790000D03*
X501040000Y-165810000D03*
X501040000Y-153110000D03*
X117500000Y-195020000D03*
X112420000Y-195020000D03*
X219100000Y-184860000D03*
X214020000Y-184860000D03*
X181000000Y-257250000D03*
X181000000Y-269950000D03*
X394360000Y-252170000D03*
X396900000Y-252170000D03*
X399440000Y-252170000D03*
X401980000Y-252170000D03*
X404520000Y-252170000D03*
X407060000Y-252170000D03*
X409600000Y-252170000D03*
X409600000Y-244550000D03*
X407060000Y-244550000D03*
X404520000Y-244550000D03*
X401980000Y-244550000D03*
X399440000Y-244550000D03*
X396900000Y-244550000D03*
X394360000Y-244550000D03*
X196240000Y-201370000D03*
X196240000Y-188670000D03*
X503580000Y-165810000D03*
X503580000Y-153110000D03*
X175920000Y-216610000D03*
X178460000Y-216610000D03*
X181000000Y-216610000D03*
X183540000Y-216610000D03*
X186080000Y-216610000D03*
X188620000Y-216610000D03*
X191160000Y-216610000D03*
X191160000Y-208990000D03*
X188620000Y-208990000D03*
X186080000Y-208990000D03*
X183540000Y-208990000D03*
X181000000Y-208990000D03*
X178460000Y-208990000D03*
X175920000Y-208990000D03*
X468020000Y-198830000D03*
X470560000Y-198830000D03*
X473100000Y-198830000D03*
X475640000Y-198830000D03*
X478180000Y-198830000D03*
X480720000Y-198830000D03*
X483260000Y-198830000D03*
X483260000Y-191210000D03*
X480720000Y-191210000D03*
X478180000Y-191210000D03*
X475640000Y-191210000D03*
X473100000Y-191210000D03*
X470560000Y-191210000D03*
X468020000Y-191210000D03*
X163220000Y-269950000D03*
X163220000Y-257250000D03*
X269900000Y-259790000D03*
X269900000Y-272490000D03*
X546760000Y-238200000D03*
X550570000Y-238200000D03*
X526440000Y-153110000D03*
X526440000Y-165810000D03*
X536600000Y-139775000D03*
X536600000Y-143585000D03*
X200050000Y-224230000D03*
X196240000Y-224230000D03*
X175920000Y-252170000D03*
X178460000Y-252170000D03*
X181000000Y-252170000D03*
X183540000Y-252170000D03*
X186080000Y-252170000D03*
X188620000Y-252170000D03*
X191160000Y-252170000D03*
X193700000Y-252170000D03*
X193700000Y-244550000D03*
X191160000Y-244550000D03*
X188620000Y-244550000D03*
X186080000Y-244550000D03*
X183540000Y-244550000D03*
X181000000Y-244550000D03*
X178460000Y-244550000D03*
X175920000Y-244550000D03*
X313080000Y-156920000D03*
X315620000Y-156920000D03*
X318160000Y-156920000D03*
X320700000Y-156920000D03*
X323240000Y-156920000D03*
X325780000Y-156920000D03*
X328320000Y-156920000D03*
X330860000Y-156920000D03*
X333400000Y-156920000D03*
X335940000Y-156920000D03*
X338480000Y-156920000D03*
X341020000Y-156920000D03*
X343560000Y-156920000D03*
X346100000Y-156920000D03*
X346100000Y-141680000D03*
X343560000Y-141680000D03*
X341020000Y-141680000D03*
X338480000Y-141680000D03*
X335940000Y-141680000D03*
X333400000Y-141680000D03*
X330860000Y-141680000D03*
X328320000Y-141680000D03*
X325780000Y-141680000D03*
X323240000Y-141680000D03*
X320700000Y-141680000D03*
X318160000Y-141680000D03*
X315620000Y-141680000D03*
X313080000Y-141680000D03*
X424840000Y-143585000D03*
X424840000Y-130885000D03*
X468020000Y-252170000D03*
X470560000Y-252170000D03*
X473100000Y-252170000D03*
X475640000Y-252170000D03*
X478180000Y-252170000D03*
X480720000Y-252170000D03*
X483260000Y-252170000D03*
X483260000Y-244550000D03*
X480720000Y-244550000D03*
X478180000Y-244550000D03*
X475640000Y-244550000D03*
X473100000Y-244550000D03*
X470560000Y-244550000D03*
X468020000Y-244550000D03*
X211480000Y-163270000D03*
X214020000Y-163270000D03*
X216560000Y-163270000D03*
X219100000Y-163270000D03*
X221640000Y-163270000D03*
X224180000Y-163270000D03*
X226720000Y-163270000D03*
X229260000Y-163270000D03*
X229260000Y-155650000D03*
X226720000Y-155650000D03*
X224180000Y-155650000D03*
X221640000Y-155650000D03*
X219100000Y-155650000D03*
X216560000Y-155650000D03*
X214020000Y-155650000D03*
X211480000Y-155650000D03*
X125120000Y-224230000D03*
X125120000Y-236930000D03*
X506120000Y-165810000D03*
X506120000Y-153110000D03*
X348640000Y-228675000D03*
X348640000Y-232485000D03*
X501040000Y-236930000D03*
X501040000Y-224230000D03*
X548030000Y-208990000D03*
X560730000Y-208990000D03*
X172110000Y-157555000D03*
X172110000Y-161365000D03*
X211480000Y-269950000D03*
X214020000Y-269950000D03*
X216560000Y-269950000D03*
X219100000Y-269950000D03*
X221640000Y-269950000D03*
X224180000Y-269950000D03*
X226720000Y-269950000D03*
X226720000Y-262330000D03*
X224180000Y-262330000D03*
X221640000Y-262330000D03*
X219100000Y-262330000D03*
X216560000Y-262330000D03*
X214020000Y-262330000D03*
X211480000Y-262330000D03*
X492150000Y-228675000D03*
X492150000Y-232485000D03*
X346100000Y-122312500D03*
X346100000Y-126757500D03*
X531520000Y-215340000D03*
X531520000Y-210260000D03*
X539140000Y-207720000D03*
X539140000Y-217880000D03*
X382295000Y-132790000D03*
X382295000Y-120090000D03*
X173380000Y-269950000D03*
X173380000Y-257250000D03*
X120040000Y-240740000D03*
X114960000Y-240740000D03*
X544220000Y-252170000D03*
X546760000Y-252170000D03*
X549300000Y-252170000D03*
X551840000Y-252170000D03*
X554380000Y-252170000D03*
X556920000Y-252170000D03*
X559460000Y-252170000D03*
X559460000Y-244550000D03*
X556920000Y-244550000D03*
X554380000Y-244550000D03*
X551840000Y-244550000D03*
X549300000Y-244550000D03*
X546760000Y-244550000D03*
X544220000Y-244550000D03*
X295300000Y-168350000D03*
X282600000Y-168350000D03*
X353720000Y-181050000D03*
X356260000Y-181050000D03*
X358800000Y-181050000D03*
X361340000Y-181050000D03*
X363880000Y-181050000D03*
X366420000Y-181050000D03*
X368960000Y-181050000D03*
X371500000Y-181050000D03*
X374040000Y-181050000D03*
X376580000Y-181050000D03*
X376580000Y-173430000D03*
X374040000Y-173430000D03*
X371500000Y-173430000D03*
X368960000Y-173430000D03*
X366420000Y-173430000D03*
X363880000Y-173430000D03*
X361340000Y-173430000D03*
X358800000Y-173430000D03*
X356260000Y-173430000D03*
X353720000Y-173430000D03*
X181000000Y-148030000D03*
X181000000Y-135330000D03*
X531520000Y-115010000D03*
X531520000Y-117550000D03*
X528980000Y-115010000D03*
X528980000Y-117550000D03*
X526440000Y-115010000D03*
X526440000Y-117550000D03*
X523900000Y-115010000D03*
X523900000Y-117550000D03*
X521360000Y-115010000D03*
X521360000Y-117550000D03*
X518820000Y-115010000D03*
X518820000Y-117550000D03*
X516280000Y-115010000D03*
X516280000Y-117550000D03*
X513740000Y-115010000D03*
X513740000Y-117550000D03*
X511200000Y-115010000D03*
X511200000Y-117550000D03*
X508660000Y-115010000D03*
X508660000Y-117550000D03*
X506120000Y-115010000D03*
X506120000Y-117550000D03*
X503580000Y-115010000D03*
X503580000Y-117550000D03*
X501040000Y-115010000D03*
X501040000Y-117550000D03*
X498500000Y-115010000D03*
X498500000Y-117550000D03*
X495960000Y-115010000D03*
X495960000Y-117550000D03*
X493420000Y-115010000D03*
X493420000Y-117550000D03*
X490880000Y-115010000D03*
X490880000Y-117550000D03*
X468020000Y-181050000D03*
X470560000Y-181050000D03*
X473100000Y-181050000D03*
X475640000Y-181050000D03*
X478180000Y-181050000D03*
X480720000Y-181050000D03*
X483260000Y-181050000D03*
X483260000Y-173430000D03*
X480720000Y-173430000D03*
X478180000Y-173430000D03*
X475640000Y-173430000D03*
X473100000Y-173430000D03*
X470560000Y-173430000D03*
X468020000Y-173430000D03*
X492150000Y-246455000D03*
X492150000Y-250265000D03*
X123850000Y-195020000D03*
X123850000Y-192480000D03*
X121310000Y-192480000D03*
X140360000Y-267410000D03*
X142900000Y-267410000D03*
X145440000Y-267410000D03*
X147980000Y-267410000D03*
X150520000Y-267410000D03*
X153060000Y-267410000D03*
X155600000Y-267410000D03*
X158140000Y-267410000D03*
X158140000Y-259790000D03*
X155600000Y-259790000D03*
X153060000Y-259790000D03*
X150520000Y-259790000D03*
X147980000Y-259790000D03*
X145440000Y-259790000D03*
X142900000Y-259790000D03*
X140360000Y-259790000D03*
X544220000Y-198830000D03*
X546760000Y-198830000D03*
X549300000Y-198830000D03*
X551840000Y-198830000D03*
X554380000Y-198830000D03*
X556920000Y-198830000D03*
X559460000Y-198830000D03*
X562000000Y-198830000D03*
X562000000Y-191210000D03*
X559460000Y-191210000D03*
X556920000Y-191210000D03*
X554380000Y-191210000D03*
X551840000Y-191210000D03*
X549300000Y-191210000D03*
X546760000Y-191210000D03*
X544220000Y-191210000D03*
X498500000Y-224230000D03*
X498500000Y-236930000D03*
X374040000Y-120090000D03*
X374040000Y-132790000D03*
X366420000Y-132790000D03*
X366420000Y-120090000D03*
X511200000Y-236930000D03*
X511200000Y-224230000D03*
X117500000Y-236930000D03*
X117500000Y-224230000D03*
X318160000Y-216610000D03*
X320700000Y-216610000D03*
X323240000Y-216610000D03*
X325780000Y-216610000D03*
X328320000Y-216610000D03*
X330860000Y-216610000D03*
X333400000Y-216610000D03*
X335940000Y-216610000D03*
X335940000Y-208990000D03*
X333400000Y-208990000D03*
X330860000Y-208990000D03*
X328320000Y-208990000D03*
X325780000Y-208990000D03*
X323240000Y-208990000D03*
X320700000Y-208990000D03*
X318160000Y-208990000D03*
D18*
X574700000Y-121040000D03*
X569620000Y-121040000D03*
X574700000Y-131840000D03*
X569620000Y-131840000D03*
X567080000Y-125170000D03*
X567080000Y-127710000D03*
D10*
X198780000Y-257250000D03*
X198780000Y-269950000D03*
X211480000Y-216610000D03*
X214020000Y-216610000D03*
X216560000Y-216610000D03*
X219100000Y-216610000D03*
X221640000Y-216610000D03*
X224180000Y-216610000D03*
X226720000Y-216610000D03*
X226720000Y-208990000D03*
X224180000Y-208990000D03*
X221640000Y-208990000D03*
X219100000Y-208990000D03*
X216560000Y-208990000D03*
X214020000Y-208990000D03*
X211480000Y-208990000D03*
X513740000Y-153110000D03*
X513740000Y-165810000D03*
X258470000Y-156920000D03*
X261010000Y-156920000D03*
X263550000Y-156920000D03*
X266090000Y-156920000D03*
X268630000Y-156920000D03*
X271170000Y-156920000D03*
X273710000Y-156920000D03*
X276250000Y-156920000D03*
X278790000Y-156920000D03*
X281330000Y-156920000D03*
X283870000Y-156920000D03*
X286410000Y-156920000D03*
X288950000Y-156920000D03*
X291490000Y-156920000D03*
X294030000Y-156920000D03*
X296570000Y-156920000D03*
X299110000Y-156920000D03*
X301650000Y-156920000D03*
X304190000Y-156920000D03*
X306730000Y-156920000D03*
X306730000Y-141680000D03*
X304190000Y-141680000D03*
X301650000Y-141680000D03*
X299110000Y-141680000D03*
X296570000Y-141680000D03*
X294030000Y-141680000D03*
X291490000Y-141680000D03*
X288950000Y-141680000D03*
X286410000Y-141680000D03*
X283870000Y-141680000D03*
X281330000Y-141680000D03*
X278790000Y-141680000D03*
X276250000Y-141680000D03*
X273710000Y-141680000D03*
X271170000Y-141680000D03*
X268630000Y-141680000D03*
X266090000Y-141680000D03*
X263550000Y-141680000D03*
X261010000Y-141680000D03*
X258470000Y-141680000D03*
X468020000Y-216610000D03*
X470560000Y-216610000D03*
X473100000Y-216610000D03*
X475640000Y-216610000D03*
X478180000Y-216610000D03*
X480720000Y-216610000D03*
X483260000Y-216610000D03*
X483260000Y-208990000D03*
X480720000Y-208990000D03*
X478180000Y-208990000D03*
X475640000Y-208990000D03*
X473100000Y-208990000D03*
X470560000Y-208990000D03*
X468020000Y-208990000D03*
X318160000Y-198830000D03*
X320700000Y-198830000D03*
X323240000Y-198830000D03*
X325780000Y-198830000D03*
X328320000Y-198830000D03*
X330860000Y-198830000D03*
X333400000Y-198830000D03*
X335940000Y-198830000D03*
X338480000Y-198830000D03*
X341020000Y-198830000D03*
X341020000Y-191210000D03*
X338480000Y-191210000D03*
X335940000Y-191210000D03*
X333400000Y-191210000D03*
X330860000Y-191210000D03*
X328320000Y-191210000D03*
X325780000Y-191210000D03*
X323240000Y-191210000D03*
X320700000Y-191210000D03*
X318160000Y-191210000D03*
X247040000Y-198830000D03*
X249580000Y-198830000D03*
X252120000Y-198830000D03*
X254660000Y-198830000D03*
X257200000Y-198830000D03*
X259740000Y-198830000D03*
X262280000Y-198830000D03*
X264820000Y-198830000D03*
X264820000Y-191210000D03*
X262280000Y-191210000D03*
X259740000Y-191210000D03*
X257200000Y-191210000D03*
X254660000Y-191210000D03*
X252120000Y-191210000D03*
X249580000Y-191210000D03*
X247040000Y-191210000D03*
X191160000Y-269950000D03*
X191160000Y-257250000D03*
X353720000Y-216610000D03*
X356260000Y-216610000D03*
X358800000Y-216610000D03*
X361340000Y-216610000D03*
X363880000Y-216610000D03*
X366420000Y-216610000D03*
X368960000Y-216610000D03*
X371500000Y-216610000D03*
X374040000Y-216610000D03*
X374040000Y-208990000D03*
X371500000Y-208990000D03*
X368960000Y-208990000D03*
X366420000Y-208990000D03*
X363880000Y-208990000D03*
X361340000Y-208990000D03*
X358800000Y-208990000D03*
X356260000Y-208990000D03*
X353720000Y-208990000D03*
X183540000Y-188670000D03*
X183540000Y-201370000D03*
X475640000Y-168350000D03*
X473100000Y-168350000D03*
D23*
X244310000Y-105900000D03*
X252310000Y-105900000D03*
D10*
X489610000Y-175335000D03*
X489610000Y-179145000D03*
X197510000Y-175335000D03*
X197510000Y-179145000D03*
X526440000Y-219150000D03*
X526440000Y-206450000D03*
X193700000Y-269950000D03*
X193700000Y-257250000D03*
X282600000Y-181050000D03*
X285140000Y-181050000D03*
X287680000Y-181050000D03*
X290220000Y-181050000D03*
X292760000Y-181050000D03*
X295300000Y-181050000D03*
X297840000Y-181050000D03*
X300380000Y-181050000D03*
X300380000Y-173430000D03*
X297840000Y-173430000D03*
X295300000Y-173430000D03*
X292760000Y-173430000D03*
X290220000Y-173430000D03*
X287680000Y-173430000D03*
X285140000Y-173430000D03*
X282600000Y-173430000D03*
D19*
X125120000Y-201370000D03*
X125120000Y-208990000D03*
X117500000Y-208990000D03*
X117500000Y-201370000D03*
D24*
X115810000Y-205180000D03*
X126810000Y-205180000D03*
D10*
X304825000Y-210895000D03*
X304825000Y-214705000D03*
X536600000Y-175335000D03*
X536600000Y-179145000D03*
X492150000Y-210895000D03*
X492150000Y-214705000D03*
X526440000Y-175335000D03*
X526440000Y-172795000D03*
X523900000Y-172795000D03*
X544220000Y-142950000D03*
X546760000Y-142950000D03*
X549300000Y-142950000D03*
X551840000Y-142950000D03*
X554380000Y-142950000D03*
X556920000Y-142950000D03*
X559460000Y-142950000D03*
X559460000Y-135330000D03*
X556920000Y-135330000D03*
X554380000Y-135330000D03*
X551840000Y-135330000D03*
X549300000Y-135330000D03*
X546760000Y-135330000D03*
X544220000Y-135330000D03*
X537235000Y-193115000D03*
X537235000Y-196925000D03*
X556920000Y-220420000D03*
X560730000Y-220420000D03*
X494690000Y-157555000D03*
X494690000Y-153745000D03*
X227990000Y-239440000D03*
X230530000Y-239440000D03*
X407060000Y-193750000D03*
X419760000Y-193750000D03*
X201320000Y-210895000D03*
X201320000Y-214705000D03*
X130200000Y-236930000D03*
X130200000Y-224230000D03*
X211480000Y-198830000D03*
X214020000Y-198830000D03*
X216560000Y-198830000D03*
X219100000Y-198830000D03*
X221640000Y-198830000D03*
X224180000Y-198830000D03*
X226720000Y-198830000D03*
X226720000Y-191210000D03*
X224180000Y-191210000D03*
X221640000Y-191210000D03*
X219100000Y-191210000D03*
X216560000Y-191210000D03*
X214020000Y-191210000D03*
X211480000Y-191210000D03*
X536600000Y-156285000D03*
X536600000Y-160095000D03*
X468020000Y-234390000D03*
X470560000Y-234390000D03*
X473100000Y-234390000D03*
X475640000Y-234390000D03*
X478180000Y-234390000D03*
X480720000Y-234390000D03*
X483260000Y-234390000D03*
X483260000Y-226770000D03*
X480720000Y-226770000D03*
X478180000Y-226770000D03*
X475640000Y-226770000D03*
X473100000Y-226770000D03*
X470560000Y-226770000D03*
X468020000Y-226770000D03*
X489610000Y-193115000D03*
X489610000Y-196925000D03*
X361340000Y-132790000D03*
X361340000Y-120090000D03*
D16*
X444960000Y-109580000D03*
X419960000Y-109580000D03*
D17*
X426920000Y-111000000D03*
D18*
X429690000Y-111000000D03*
X432460000Y-111000000D03*
X435230000Y-111000000D03*
X438000000Y-111000000D03*
X428305000Y-108160000D03*
X431075000Y-108160000D03*
X433845000Y-108160000D03*
X436615000Y-108160000D03*
D10*
X117500000Y-188670000D03*
X104800000Y-188670000D03*
X269900000Y-137870000D03*
X272440000Y-137870000D03*
X274980000Y-137870000D03*
X277520000Y-137870000D03*
X280060000Y-137870000D03*
X282600000Y-137870000D03*
X285140000Y-137870000D03*
X287680000Y-137870000D03*
X290220000Y-137870000D03*
X383565000Y-246455000D03*
X383565000Y-250265000D03*
X130200000Y-246455000D03*
X130200000Y-250265000D03*
X544220000Y-181050000D03*
X546760000Y-181050000D03*
X549300000Y-181050000D03*
X551840000Y-181050000D03*
X554380000Y-181050000D03*
X556920000Y-181050000D03*
X559460000Y-181050000D03*
X562000000Y-181050000D03*
X562000000Y-173430000D03*
X559460000Y-173430000D03*
X556920000Y-173430000D03*
X554380000Y-173430000D03*
X551840000Y-173430000D03*
X549300000Y-173430000D03*
X546760000Y-173430000D03*
X544220000Y-173430000D03*
X178460000Y-148030000D03*
X178460000Y-135330000D03*
X282600000Y-252170000D03*
X285140000Y-252170000D03*
X287680000Y-252170000D03*
X290220000Y-252170000D03*
X292760000Y-252170000D03*
X295300000Y-252170000D03*
X297840000Y-252170000D03*
X300380000Y-252170000D03*
X300380000Y-244550000D03*
X297840000Y-244550000D03*
X295300000Y-244550000D03*
X292760000Y-244550000D03*
X290220000Y-244550000D03*
X287680000Y-244550000D03*
X285140000Y-244550000D03*
X282600000Y-244550000D03*
X170840000Y-269950000D03*
X170840000Y-257250000D03*
X183540000Y-257250000D03*
X183540000Y-269950000D03*
X386740000Y-167080000D03*
X389280000Y-167080000D03*
X391820000Y-167080000D03*
X394360000Y-167080000D03*
X396900000Y-167080000D03*
X399440000Y-167080000D03*
X401980000Y-167080000D03*
X404520000Y-167080000D03*
X407060000Y-167080000D03*
X409600000Y-167080000D03*
X412140000Y-167080000D03*
X414680000Y-167080000D03*
X417220000Y-167080000D03*
X419760000Y-167080000D03*
X419760000Y-151840000D03*
X417220000Y-151840000D03*
X414680000Y-151840000D03*
X412140000Y-151840000D03*
X409600000Y-151840000D03*
X407060000Y-151840000D03*
X404520000Y-151840000D03*
X401980000Y-151840000D03*
X399440000Y-151840000D03*
X396900000Y-151840000D03*
X394360000Y-151840000D03*
X391820000Y-151840000D03*
X389280000Y-151840000D03*
X386740000Y-151840000D03*
X226720000Y-117550000D03*
X226720000Y-130250000D03*
X196240000Y-269950000D03*
X196240000Y-257250000D03*
X318160000Y-181050000D03*
X320700000Y-181050000D03*
X323240000Y-181050000D03*
X325780000Y-181050000D03*
X328320000Y-181050000D03*
X330860000Y-181050000D03*
X333400000Y-181050000D03*
X335940000Y-181050000D03*
X338480000Y-181050000D03*
X341020000Y-181050000D03*
X341020000Y-173430000D03*
X338480000Y-173430000D03*
X335940000Y-173430000D03*
X333400000Y-173430000D03*
X330860000Y-173430000D03*
X328320000Y-173430000D03*
X325780000Y-173430000D03*
X323240000Y-173430000D03*
X320700000Y-173430000D03*
X318160000Y-173430000D03*
X432460000Y-181050000D03*
X435000000Y-181050000D03*
X437540000Y-181050000D03*
X440080000Y-181050000D03*
X442620000Y-181050000D03*
X445160000Y-181050000D03*
X447700000Y-181050000D03*
X447700000Y-173430000D03*
X445160000Y-173430000D03*
X442620000Y-173430000D03*
X440080000Y-173430000D03*
X437540000Y-173430000D03*
X435000000Y-173430000D03*
X432460000Y-173430000D03*
X394360000Y-234390000D03*
X396900000Y-234390000D03*
X399440000Y-234390000D03*
X401980000Y-234390000D03*
X404520000Y-234390000D03*
X407060000Y-234390000D03*
X409600000Y-234390000D03*
X412140000Y-234390000D03*
X412140000Y-226770000D03*
X409600000Y-226770000D03*
X407060000Y-226770000D03*
X404520000Y-226770000D03*
X401980000Y-226770000D03*
X399440000Y-226770000D03*
X396900000Y-226770000D03*
X394360000Y-226770000D03*
X394360000Y-269950000D03*
X396900000Y-269950000D03*
X399440000Y-269950000D03*
X401980000Y-269950000D03*
X404520000Y-269950000D03*
X407060000Y-269950000D03*
X409600000Y-269950000D03*
X409600000Y-262330000D03*
X407060000Y-262330000D03*
X404520000Y-262330000D03*
X401980000Y-262330000D03*
X399440000Y-262330000D03*
X396900000Y-262330000D03*
X394360000Y-262330000D03*
X358800000Y-125170000D03*
X358800000Y-120090000D03*
X140360000Y-198830000D03*
X142900000Y-198830000D03*
X145440000Y-198830000D03*
X147980000Y-198830000D03*
X150520000Y-198830000D03*
X153060000Y-198830000D03*
X155600000Y-198830000D03*
X155600000Y-191210000D03*
X153060000Y-191210000D03*
X150520000Y-191210000D03*
X147980000Y-191210000D03*
X145440000Y-191210000D03*
X142900000Y-191210000D03*
X140360000Y-191210000D03*
X521360000Y-153110000D03*
X521360000Y-165810000D03*
X353720000Y-120090000D03*
X353720000Y-132790000D03*
X432460000Y-145490000D03*
X435000000Y-145490000D03*
X437540000Y-145490000D03*
X440080000Y-145490000D03*
X442620000Y-145490000D03*
X445160000Y-145490000D03*
X447700000Y-145490000D03*
X450240000Y-145490000D03*
X450240000Y-137870000D03*
X447700000Y-137870000D03*
X445160000Y-137870000D03*
X442620000Y-137870000D03*
X440080000Y-137870000D03*
X437540000Y-137870000D03*
X435000000Y-137870000D03*
X432460000Y-137870000D03*
X318160000Y-252170000D03*
X320700000Y-252170000D03*
X323240000Y-252170000D03*
X325780000Y-252170000D03*
X328320000Y-252170000D03*
X330860000Y-252170000D03*
X333400000Y-252170000D03*
X335940000Y-252170000D03*
X338480000Y-252170000D03*
X341020000Y-252170000D03*
X341020000Y-244550000D03*
X338480000Y-244550000D03*
X335940000Y-244550000D03*
X333400000Y-244550000D03*
X330860000Y-244550000D03*
X328320000Y-244550000D03*
X325780000Y-244550000D03*
X323240000Y-244550000D03*
X320700000Y-244550000D03*
X318160000Y-244550000D03*
X198780000Y-246455000D03*
X198780000Y-250265000D03*
X123850000Y-186130000D03*
X120040000Y-186130000D03*
X135280000Y-183590000D03*
X132740000Y-183590000D03*
X130200000Y-183590000D03*
X127660000Y-183590000D03*
X247040000Y-269950000D03*
X249580000Y-269950000D03*
X252120000Y-269950000D03*
X254660000Y-269950000D03*
X257200000Y-269950000D03*
X259740000Y-269950000D03*
X262280000Y-269950000D03*
X262280000Y-262330000D03*
X259740000Y-262330000D03*
X257200000Y-262330000D03*
X254660000Y-262330000D03*
X252120000Y-262330000D03*
X249580000Y-262330000D03*
X247040000Y-262330000D03*
X200050000Y-127710000D03*
X202590000Y-127710000D03*
X205130000Y-127710000D03*
X207670000Y-127710000D03*
X210210000Y-127710000D03*
X212750000Y-127710000D03*
X215290000Y-127710000D03*
X217830000Y-127710000D03*
X217830000Y-120090000D03*
X215290000Y-120090000D03*
X212750000Y-120090000D03*
X210210000Y-120090000D03*
X207670000Y-120090000D03*
X205130000Y-120090000D03*
X202590000Y-120090000D03*
X200050000Y-120090000D03*
X531520000Y-268680000D03*
X531520000Y-264870000D03*
X282600000Y-269950000D03*
X285140000Y-269950000D03*
X287680000Y-269950000D03*
X290220000Y-269950000D03*
X292760000Y-269950000D03*
X295300000Y-269950000D03*
X297840000Y-269950000D03*
X297840000Y-262330000D03*
X295300000Y-262330000D03*
X292760000Y-262330000D03*
X290220000Y-262330000D03*
X287680000Y-262330000D03*
X285140000Y-262330000D03*
X282600000Y-262330000D03*
X503580000Y-216610000D03*
X506120000Y-216610000D03*
X508660000Y-216610000D03*
X511200000Y-216610000D03*
X513740000Y-216610000D03*
X516280000Y-216610000D03*
X518820000Y-216610000D03*
X518820000Y-208990000D03*
X516280000Y-208990000D03*
X513740000Y-208990000D03*
X511200000Y-208990000D03*
X508660000Y-208990000D03*
X506120000Y-208990000D03*
X503580000Y-208990000D03*
X432460000Y-252170000D03*
X435000000Y-252170000D03*
X437540000Y-252170000D03*
X440080000Y-252170000D03*
X442620000Y-252170000D03*
X445160000Y-252170000D03*
X447700000Y-252170000D03*
X447700000Y-244550000D03*
X445160000Y-244550000D03*
X442620000Y-244550000D03*
X440080000Y-244550000D03*
X437540000Y-244550000D03*
X435000000Y-244550000D03*
X432460000Y-244550000D03*
X436270000Y-193750000D03*
X423570000Y-193750000D03*
X560730000Y-222960000D03*
X556920000Y-222960000D03*
X358800000Y-132790000D03*
X358800000Y-127710000D03*
X379120000Y-120090000D03*
X379120000Y-125170000D03*
X132740000Y-224230000D03*
X132740000Y-236930000D03*
X386740000Y-272490000D03*
X386740000Y-259790000D03*
X421030000Y-246455000D03*
X421030000Y-250265000D03*
X455320000Y-157555000D03*
X455320000Y-161365000D03*
X109880000Y-216610000D03*
X114960000Y-216610000D03*
X172110000Y-175335000D03*
X172110000Y-179145000D03*
X191160000Y-135330000D03*
X191160000Y-148030000D03*
X511200000Y-165810000D03*
X511200000Y-153110000D03*
X127660000Y-224230000D03*
X127660000Y-236930000D03*
X273710000Y-246455000D03*
X273710000Y-250265000D03*
X503580000Y-252170000D03*
X506120000Y-252170000D03*
X508660000Y-252170000D03*
X511200000Y-252170000D03*
X513740000Y-252170000D03*
X516280000Y-252170000D03*
X518820000Y-252170000D03*
X518820000Y-244550000D03*
X516280000Y-244550000D03*
X513740000Y-244550000D03*
X511200000Y-244550000D03*
X508660000Y-244550000D03*
X506120000Y-244550000D03*
X503580000Y-244550000D03*
X544220000Y-269950000D03*
X546760000Y-269950000D03*
X549300000Y-269950000D03*
X551840000Y-269950000D03*
X554380000Y-269950000D03*
X556920000Y-269950000D03*
X559460000Y-269950000D03*
X559460000Y-262330000D03*
X556920000Y-262330000D03*
X554380000Y-262330000D03*
X551840000Y-262330000D03*
X549300000Y-262330000D03*
X546760000Y-262330000D03*
X544220000Y-262330000D03*
X353720000Y-234390000D03*
X356260000Y-234390000D03*
X358800000Y-234390000D03*
X361340000Y-234390000D03*
X363880000Y-234390000D03*
X366420000Y-234390000D03*
X368960000Y-234390000D03*
X371500000Y-234390000D03*
X371500000Y-226770000D03*
X368960000Y-226770000D03*
X366420000Y-226770000D03*
X363880000Y-226770000D03*
X361340000Y-226770000D03*
X358800000Y-226770000D03*
X356260000Y-226770000D03*
X353720000Y-226770000D03*
X346100000Y-246455000D03*
X346100000Y-250265000D03*
X363880000Y-132790000D03*
X363880000Y-120090000D03*
X318160000Y-269950000D03*
X320700000Y-269950000D03*
X323240000Y-269950000D03*
X325780000Y-269950000D03*
X328320000Y-269950000D03*
X330860000Y-269950000D03*
X333400000Y-269950000D03*
X335940000Y-269950000D03*
X335940000Y-262330000D03*
X333400000Y-262330000D03*
X330860000Y-262330000D03*
X328320000Y-262330000D03*
X325780000Y-262330000D03*
X323240000Y-262330000D03*
X320700000Y-262330000D03*
X318160000Y-262330000D03*
X188620000Y-269950000D03*
X188620000Y-257250000D03*
X105435000Y-195020000D03*
X107975000Y-195020000D03*
X107975000Y-192480000D03*
X104800000Y-183590000D03*
X117500000Y-183590000D03*
X435000000Y-239470000D03*
X447700000Y-239470000D03*
D16*
X179730000Y-109580000D03*
X154730000Y-109580000D03*
D17*
X161690000Y-111000000D03*
D18*
X164460000Y-111000000D03*
X167230000Y-111000000D03*
X170000000Y-111000000D03*
X172770000Y-111000000D03*
X163075000Y-108160000D03*
X165845000Y-108160000D03*
X168615000Y-108160000D03*
X171385000Y-108160000D03*
D10*
X544220000Y-145490000D03*
X546760000Y-145490000D03*
X549300000Y-145490000D03*
X551840000Y-145490000D03*
X551840000Y-137870000D03*
X549300000Y-137870000D03*
X546760000Y-137870000D03*
X544220000Y-137870000D03*
X188620000Y-135330000D03*
X188620000Y-148030000D03*
X494690000Y-139775000D03*
X494690000Y-143585000D03*
X394360000Y-145490000D03*
X396900000Y-145490000D03*
X399440000Y-145490000D03*
X401980000Y-145490000D03*
X404520000Y-145490000D03*
X407060000Y-145490000D03*
X409600000Y-145490000D03*
X412140000Y-145490000D03*
X414680000Y-145490000D03*
X414680000Y-137870000D03*
X412140000Y-137870000D03*
X409600000Y-137870000D03*
X407060000Y-137870000D03*
X404520000Y-137870000D03*
X401980000Y-137870000D03*
X399440000Y-137870000D03*
X396900000Y-137870000D03*
X394360000Y-137870000D03*
X123850000Y-216610000D03*
X118770000Y-216610000D03*
X224180000Y-239470000D03*
X211480000Y-239470000D03*
X186080000Y-269950000D03*
X186080000Y-257250000D03*
X229260000Y-117550000D03*
X229260000Y-130250000D03*
X508660000Y-236930000D03*
X508660000Y-224230000D03*
X468020000Y-269950000D03*
X470560000Y-269950000D03*
X473100000Y-269950000D03*
X475640000Y-269950000D03*
X478180000Y-269950000D03*
X480720000Y-269950000D03*
X483260000Y-269950000D03*
X485800000Y-269950000D03*
X485800000Y-262330000D03*
X483260000Y-262330000D03*
X480720000Y-262330000D03*
X478180000Y-262330000D03*
X475640000Y-262330000D03*
X473100000Y-262330000D03*
X470560000Y-262330000D03*
X468020000Y-262330000D03*
X475640000Y-220420000D03*
X488340000Y-220420000D03*
X544220000Y-234390000D03*
X546760000Y-234390000D03*
X549300000Y-234390000D03*
X551840000Y-234390000D03*
X554380000Y-234390000D03*
X556920000Y-234390000D03*
X559460000Y-234390000D03*
X559460000Y-226770000D03*
X556920000Y-226770000D03*
X554380000Y-226770000D03*
X551840000Y-226770000D03*
X549300000Y-226770000D03*
X546760000Y-226770000D03*
X544220000Y-226770000D03*
D12*
X456590000Y-102945000D03*
X456590000Y-110070000D03*
X474370000Y-102945000D03*
X474370000Y-110070000D03*
X459765000Y-112470000D03*
X459765000Y-115645000D03*
X463575000Y-112470000D03*
X463575000Y-115645000D03*
X467385000Y-112470000D03*
X467385000Y-115645000D03*
X471195000Y-112470000D03*
X471195000Y-115645000D03*
D10*
X468020000Y-145490000D03*
X470560000Y-145490000D03*
X473100000Y-145490000D03*
X475640000Y-145490000D03*
X478180000Y-145490000D03*
X480720000Y-145490000D03*
X483260000Y-145490000D03*
X483260000Y-137870000D03*
X480720000Y-137870000D03*
X478180000Y-137870000D03*
X475640000Y-137870000D03*
X473100000Y-137870000D03*
X470560000Y-137870000D03*
X468020000Y-137870000D03*
X282600000Y-216610000D03*
X285140000Y-216610000D03*
X287680000Y-216610000D03*
X290220000Y-216610000D03*
X292760000Y-216610000D03*
X295300000Y-216610000D03*
X297840000Y-216610000D03*
X300380000Y-216610000D03*
X300380000Y-208990000D03*
X297840000Y-208990000D03*
X295300000Y-208990000D03*
X292760000Y-208990000D03*
X290220000Y-208990000D03*
X287680000Y-208990000D03*
X285140000Y-208990000D03*
X282600000Y-208990000D03*
X390550000Y-228675000D03*
X390550000Y-232485000D03*
X419760000Y-175335000D03*
X419760000Y-179145000D03*
X468020000Y-163270000D03*
X470560000Y-163270000D03*
X473100000Y-163270000D03*
X475640000Y-163270000D03*
X478180000Y-163270000D03*
X480720000Y-163270000D03*
X483260000Y-163270000D03*
X485800000Y-163270000D03*
X485800000Y-155650000D03*
X483260000Y-155650000D03*
X480720000Y-155650000D03*
X478180000Y-155650000D03*
X475640000Y-155650000D03*
X473100000Y-155650000D03*
X470560000Y-155650000D03*
X468020000Y-155650000D03*
X109880000Y-212800000D03*
X104800000Y-212800000D03*
X102260000Y-205180000D03*
X112420000Y-205180000D03*
X459765000Y-139775000D03*
X459765000Y-143585000D03*
X178460000Y-257250000D03*
X178460000Y-269950000D03*
X350545000Y-193115000D03*
X350545000Y-196925000D03*
X384835000Y-115645000D03*
X382295000Y-115645000D03*
X247040000Y-234390000D03*
X249580000Y-234390000D03*
X252120000Y-234390000D03*
X254660000Y-234390000D03*
X257200000Y-234390000D03*
X259740000Y-234390000D03*
X262280000Y-234390000D03*
X262280000Y-226770000D03*
X259740000Y-226770000D03*
X257200000Y-226770000D03*
X254660000Y-226770000D03*
X252120000Y-226770000D03*
X249580000Y-226770000D03*
X247040000Y-226770000D03*
X178460000Y-201370000D03*
X178460000Y-188670000D03*
X188620000Y-201370000D03*
X188620000Y-188670000D03*
X175920000Y-234390000D03*
X178460000Y-234390000D03*
X181000000Y-234390000D03*
X183540000Y-234390000D03*
X186080000Y-234390000D03*
X188620000Y-234390000D03*
X191160000Y-234390000D03*
X193700000Y-234390000D03*
X193700000Y-226770000D03*
X191160000Y-226770000D03*
X188620000Y-226770000D03*
X186080000Y-226770000D03*
X183540000Y-226770000D03*
X181000000Y-226770000D03*
X178460000Y-226770000D03*
X175920000Y-226770000D03*
X211480000Y-252170000D03*
X214020000Y-252170000D03*
X216560000Y-252170000D03*
X219100000Y-252170000D03*
X221640000Y-252170000D03*
X224180000Y-252170000D03*
X226720000Y-252170000D03*
X229260000Y-252170000D03*
X229260000Y-244550000D03*
X226720000Y-244550000D03*
X224180000Y-244550000D03*
X221640000Y-244550000D03*
X219100000Y-244550000D03*
X216560000Y-244550000D03*
X214020000Y-244550000D03*
X211480000Y-244550000D03*
X313080000Y-175335000D03*
X313080000Y-179145000D03*
X183540000Y-148030000D03*
X183540000Y-135330000D03*
X432460000Y-234390000D03*
X435000000Y-234390000D03*
X437540000Y-234390000D03*
X440080000Y-234390000D03*
X442620000Y-234390000D03*
X445160000Y-234390000D03*
X447700000Y-234390000D03*
X447700000Y-226770000D03*
X445160000Y-226770000D03*
X442620000Y-226770000D03*
X440080000Y-226770000D03*
X437540000Y-226770000D03*
X435000000Y-226770000D03*
X432460000Y-226770000D03*
X531520000Y-246455000D03*
X531520000Y-250265000D03*
X384200000Y-272490000D03*
X384200000Y-259790000D03*
X246405000Y-221055000D03*
X259105000Y-221055000D03*
X508660000Y-153110000D03*
X508660000Y-165810000D03*
X224180000Y-117550000D03*
X224180000Y-130250000D03*
X202590000Y-145490000D03*
X205130000Y-145490000D03*
X207670000Y-145490000D03*
X210210000Y-145490000D03*
X212750000Y-145490000D03*
X215290000Y-145490000D03*
X217830000Y-145490000D03*
X217830000Y-137870000D03*
X215290000Y-137870000D03*
X212750000Y-137870000D03*
X210210000Y-137870000D03*
X207670000Y-137870000D03*
X205130000Y-137870000D03*
X202590000Y-137870000D03*
M02*
