%TF.GenerationSoftware,KiCad,Pcbnew,7.0.1-0*%
%TF.CreationDate,2023-04-25T08:12:11+03:00*%
%TF.ProjectId,HC2000,48433230-3030-42e6-9b69-6361645f7063,rev?*%
%TF.SameCoordinates,Original*%
%TF.FileFunction,Drillmap*%
%TF.FilePolarity,Positive*%
%FSLAX45Y45*%
G04 Gerber Fmt 4.5, Leading zero omitted, Abs format (unit mm)*
G04 Created by KiCad (PCBNEW 7.0.1-0) date 2023-04-25 08:12:11*
%MOMM*%
%LPD*%
G01*
G04 APERTURE LIST*
%ADD10C,0.100000*%
%ADD11C,0.200000*%
%ADD12C,0.239776*%
%ADD13C,0.279400*%
G04 APERTURE END LIST*
D10*
X44000000Y-27200000D02*
X44000000Y-28300000D01*
X56300000Y-11700000D02*
X56300000Y-10000000D01*
X45700000Y-28300000D02*
X45700000Y-27200000D01*
X11800000Y-26550000D02*
X10000000Y-26550000D01*
X11800000Y-28300000D02*
X44000000Y-28300000D01*
X57800000Y-11700000D02*
X57800000Y-28300000D01*
X11800000Y-11750000D02*
X10000000Y-11750000D01*
X45700000Y-27200000D02*
X44000000Y-27200000D01*
X10000000Y-11750000D02*
X10000000Y-26550000D01*
X11800000Y-10000000D02*
X11800000Y-11750000D01*
X27371000Y-10000000D02*
X27371000Y-10873000D01*
X27371000Y-10000000D02*
X11800000Y-10000000D01*
X27625000Y-10000000D02*
X56300000Y-10000000D01*
X27371000Y-10873000D02*
G75*
G03*
X27625000Y-10873000I127000J0D01*
G01*
X57800000Y-11700000D02*
X56300000Y-11700000D01*
X27625000Y-10873000D02*
X27625000Y-10000000D01*
X11800000Y-28300000D02*
X11800000Y-26550000D01*
X57800000Y-28300000D02*
X45700000Y-28300000D01*
D11*
D12*
X39074304Y-10642112D02*
X39314080Y-10881888D01*
X39314080Y-10642112D02*
X39074304Y-10881888D01*
X40573920Y-10642112D02*
X40813696Y-10881888D01*
X40813696Y-10642112D02*
X40573920Y-10881888D01*
D13*
X35932700Y-10762000D02*
G75*
G03*
X35932700Y-10762000I-139700J0D01*
G01*
X37456700Y-10762000D02*
G75*
G03*
X37456700Y-10762000I-139700J0D01*
G01*
D11*
X10242619Y-28617524D02*
X10242619Y-28417524D01*
X10242619Y-28417524D02*
X10290238Y-28417524D01*
X10290238Y-28417524D02*
X10318810Y-28427048D01*
X10318810Y-28427048D02*
X10337857Y-28446095D01*
X10337857Y-28446095D02*
X10347381Y-28465143D01*
X10347381Y-28465143D02*
X10356905Y-28503238D01*
X10356905Y-28503238D02*
X10356905Y-28531809D01*
X10356905Y-28531809D02*
X10347381Y-28569905D01*
X10347381Y-28569905D02*
X10337857Y-28588952D01*
X10337857Y-28588952D02*
X10318810Y-28608000D01*
X10318810Y-28608000D02*
X10290238Y-28617524D01*
X10290238Y-28617524D02*
X10242619Y-28617524D01*
X10442619Y-28617524D02*
X10442619Y-28484190D01*
X10442619Y-28522286D02*
X10452143Y-28503238D01*
X10452143Y-28503238D02*
X10461667Y-28493714D01*
X10461667Y-28493714D02*
X10480714Y-28484190D01*
X10480714Y-28484190D02*
X10499762Y-28484190D01*
X10566429Y-28617524D02*
X10566429Y-28484190D01*
X10566429Y-28417524D02*
X10556905Y-28427048D01*
X10556905Y-28427048D02*
X10566429Y-28436571D01*
X10566429Y-28436571D02*
X10575952Y-28427048D01*
X10575952Y-28427048D02*
X10566429Y-28417524D01*
X10566429Y-28417524D02*
X10566429Y-28436571D01*
X10690238Y-28617524D02*
X10671190Y-28608000D01*
X10671190Y-28608000D02*
X10661667Y-28588952D01*
X10661667Y-28588952D02*
X10661667Y-28417524D01*
X10795000Y-28617524D02*
X10775952Y-28608000D01*
X10775952Y-28608000D02*
X10766429Y-28588952D01*
X10766429Y-28588952D02*
X10766429Y-28417524D01*
X11023571Y-28617524D02*
X11023571Y-28417524D01*
X11023571Y-28417524D02*
X11090238Y-28560381D01*
X11090238Y-28560381D02*
X11156905Y-28417524D01*
X11156905Y-28417524D02*
X11156905Y-28617524D01*
X11337857Y-28617524D02*
X11337857Y-28512762D01*
X11337857Y-28512762D02*
X11328333Y-28493714D01*
X11328333Y-28493714D02*
X11309286Y-28484190D01*
X11309286Y-28484190D02*
X11271190Y-28484190D01*
X11271190Y-28484190D02*
X11252143Y-28493714D01*
X11337857Y-28608000D02*
X11318809Y-28617524D01*
X11318809Y-28617524D02*
X11271190Y-28617524D01*
X11271190Y-28617524D02*
X11252143Y-28608000D01*
X11252143Y-28608000D02*
X11242619Y-28588952D01*
X11242619Y-28588952D02*
X11242619Y-28569905D01*
X11242619Y-28569905D02*
X11252143Y-28550857D01*
X11252143Y-28550857D02*
X11271190Y-28541333D01*
X11271190Y-28541333D02*
X11318809Y-28541333D01*
X11318809Y-28541333D02*
X11337857Y-28531809D01*
X11433095Y-28484190D02*
X11433095Y-28684190D01*
X11433095Y-28493714D02*
X11452143Y-28484190D01*
X11452143Y-28484190D02*
X11490238Y-28484190D01*
X11490238Y-28484190D02*
X11509286Y-28493714D01*
X11509286Y-28493714D02*
X11518809Y-28503238D01*
X11518809Y-28503238D02*
X11528333Y-28522286D01*
X11528333Y-28522286D02*
X11528333Y-28579428D01*
X11528333Y-28579428D02*
X11518809Y-28598476D01*
X11518809Y-28598476D02*
X11509286Y-28608000D01*
X11509286Y-28608000D02*
X11490238Y-28617524D01*
X11490238Y-28617524D02*
X11452143Y-28617524D01*
X11452143Y-28617524D02*
X11433095Y-28608000D01*
X11614048Y-28598476D02*
X11623571Y-28608000D01*
X11623571Y-28608000D02*
X11614048Y-28617524D01*
X11614048Y-28617524D02*
X11604524Y-28608000D01*
X11604524Y-28608000D02*
X11614048Y-28598476D01*
X11614048Y-28598476D02*
X11614048Y-28617524D01*
X11614048Y-28493714D02*
X11623571Y-28503238D01*
X11623571Y-28503238D02*
X11614048Y-28512762D01*
X11614048Y-28512762D02*
X11604524Y-28503238D01*
X11604524Y-28503238D02*
X11614048Y-28493714D01*
X11614048Y-28493714D02*
X11614048Y-28512762D01*
X9795000Y-28845000D02*
X9995000Y-29045000D01*
X9995000Y-28845000D02*
X9795000Y-29045000D01*
X10233095Y-28856571D02*
X10242619Y-28847048D01*
X10242619Y-28847048D02*
X10261667Y-28837524D01*
X10261667Y-28837524D02*
X10309286Y-28837524D01*
X10309286Y-28837524D02*
X10328333Y-28847048D01*
X10328333Y-28847048D02*
X10337857Y-28856571D01*
X10337857Y-28856571D02*
X10347381Y-28875619D01*
X10347381Y-28875619D02*
X10347381Y-28894667D01*
X10347381Y-28894667D02*
X10337857Y-28923238D01*
X10337857Y-28923238D02*
X10223571Y-29037524D01*
X10223571Y-29037524D02*
X10347381Y-29037524D01*
X10433095Y-29018476D02*
X10442619Y-29028000D01*
X10442619Y-29028000D02*
X10433095Y-29037524D01*
X10433095Y-29037524D02*
X10423571Y-29028000D01*
X10423571Y-29028000D02*
X10433095Y-29018476D01*
X10433095Y-29018476D02*
X10433095Y-29037524D01*
X10509286Y-28837524D02*
X10633095Y-28837524D01*
X10633095Y-28837524D02*
X10566429Y-28913714D01*
X10566429Y-28913714D02*
X10595000Y-28913714D01*
X10595000Y-28913714D02*
X10614048Y-28923238D01*
X10614048Y-28923238D02*
X10623571Y-28932762D01*
X10623571Y-28932762D02*
X10633095Y-28951809D01*
X10633095Y-28951809D02*
X10633095Y-28999428D01*
X10633095Y-28999428D02*
X10623571Y-29018476D01*
X10623571Y-29018476D02*
X10614048Y-29028000D01*
X10614048Y-29028000D02*
X10595000Y-29037524D01*
X10595000Y-29037524D02*
X10537857Y-29037524D01*
X10537857Y-29037524D02*
X10518810Y-29028000D01*
X10518810Y-29028000D02*
X10509286Y-29018476D01*
X10728333Y-29037524D02*
X10766429Y-29037524D01*
X10766429Y-29037524D02*
X10785476Y-29028000D01*
X10785476Y-29028000D02*
X10795000Y-29018476D01*
X10795000Y-29018476D02*
X10814048Y-28989905D01*
X10814048Y-28989905D02*
X10823571Y-28951809D01*
X10823571Y-28951809D02*
X10823571Y-28875619D01*
X10823571Y-28875619D02*
X10814048Y-28856571D01*
X10814048Y-28856571D02*
X10804524Y-28847048D01*
X10804524Y-28847048D02*
X10785476Y-28837524D01*
X10785476Y-28837524D02*
X10747381Y-28837524D01*
X10747381Y-28837524D02*
X10728333Y-28847048D01*
X10728333Y-28847048D02*
X10718810Y-28856571D01*
X10718810Y-28856571D02*
X10709286Y-28875619D01*
X10709286Y-28875619D02*
X10709286Y-28923238D01*
X10709286Y-28923238D02*
X10718810Y-28942286D01*
X10718810Y-28942286D02*
X10728333Y-28951809D01*
X10728333Y-28951809D02*
X10747381Y-28961333D01*
X10747381Y-28961333D02*
X10785476Y-28961333D01*
X10785476Y-28961333D02*
X10804524Y-28951809D01*
X10804524Y-28951809D02*
X10814048Y-28942286D01*
X10814048Y-28942286D02*
X10823571Y-28923238D01*
X10937857Y-28923238D02*
X10918810Y-28913714D01*
X10918810Y-28913714D02*
X10909286Y-28904190D01*
X10909286Y-28904190D02*
X10899762Y-28885143D01*
X10899762Y-28885143D02*
X10899762Y-28875619D01*
X10899762Y-28875619D02*
X10909286Y-28856571D01*
X10909286Y-28856571D02*
X10918810Y-28847048D01*
X10918810Y-28847048D02*
X10937857Y-28837524D01*
X10937857Y-28837524D02*
X10975952Y-28837524D01*
X10975952Y-28837524D02*
X10995000Y-28847048D01*
X10995000Y-28847048D02*
X11004524Y-28856571D01*
X11004524Y-28856571D02*
X11014048Y-28875619D01*
X11014048Y-28875619D02*
X11014048Y-28885143D01*
X11014048Y-28885143D02*
X11004524Y-28904190D01*
X11004524Y-28904190D02*
X10995000Y-28913714D01*
X10995000Y-28913714D02*
X10975952Y-28923238D01*
X10975952Y-28923238D02*
X10937857Y-28923238D01*
X10937857Y-28923238D02*
X10918810Y-28932762D01*
X10918810Y-28932762D02*
X10909286Y-28942286D01*
X10909286Y-28942286D02*
X10899762Y-28961333D01*
X10899762Y-28961333D02*
X10899762Y-28999428D01*
X10899762Y-28999428D02*
X10909286Y-29018476D01*
X10909286Y-29018476D02*
X10918810Y-29028000D01*
X10918810Y-29028000D02*
X10937857Y-29037524D01*
X10937857Y-29037524D02*
X10975952Y-29037524D01*
X10975952Y-29037524D02*
X10995000Y-29028000D01*
X10995000Y-29028000D02*
X11004524Y-29018476D01*
X11004524Y-29018476D02*
X11014048Y-28999428D01*
X11014048Y-28999428D02*
X11014048Y-28961333D01*
X11014048Y-28961333D02*
X11004524Y-28942286D01*
X11004524Y-28942286D02*
X10995000Y-28932762D01*
X10995000Y-28932762D02*
X10975952Y-28923238D01*
X11099762Y-29037524D02*
X11099762Y-28904190D01*
X11099762Y-28923238D02*
X11109286Y-28913714D01*
X11109286Y-28913714D02*
X11128333Y-28904190D01*
X11128333Y-28904190D02*
X11156905Y-28904190D01*
X11156905Y-28904190D02*
X11175952Y-28913714D01*
X11175952Y-28913714D02*
X11185476Y-28932762D01*
X11185476Y-28932762D02*
X11185476Y-29037524D01*
X11185476Y-28932762D02*
X11195000Y-28913714D01*
X11195000Y-28913714D02*
X11214048Y-28904190D01*
X11214048Y-28904190D02*
X11242619Y-28904190D01*
X11242619Y-28904190D02*
X11261667Y-28913714D01*
X11261667Y-28913714D02*
X11271190Y-28932762D01*
X11271190Y-28932762D02*
X11271190Y-29037524D01*
X11366429Y-29037524D02*
X11366429Y-28904190D01*
X11366429Y-28923238D02*
X11375952Y-28913714D01*
X11375952Y-28913714D02*
X11395000Y-28904190D01*
X11395000Y-28904190D02*
X11423571Y-28904190D01*
X11423571Y-28904190D02*
X11442619Y-28913714D01*
X11442619Y-28913714D02*
X11452143Y-28932762D01*
X11452143Y-28932762D02*
X11452143Y-29037524D01*
X11452143Y-28932762D02*
X11461667Y-28913714D01*
X11461667Y-28913714D02*
X11480714Y-28904190D01*
X11480714Y-28904190D02*
X11509286Y-28904190D01*
X11509286Y-28904190D02*
X11528333Y-28913714D01*
X11528333Y-28913714D02*
X11537857Y-28932762D01*
X11537857Y-28932762D02*
X11537857Y-29037524D01*
X11928333Y-28828000D02*
X11756905Y-29085143D01*
X12185476Y-28837524D02*
X12204524Y-28837524D01*
X12204524Y-28837524D02*
X12223572Y-28847048D01*
X12223572Y-28847048D02*
X12233095Y-28856571D01*
X12233095Y-28856571D02*
X12242619Y-28875619D01*
X12242619Y-28875619D02*
X12252143Y-28913714D01*
X12252143Y-28913714D02*
X12252143Y-28961333D01*
X12252143Y-28961333D02*
X12242619Y-28999428D01*
X12242619Y-28999428D02*
X12233095Y-29018476D01*
X12233095Y-29018476D02*
X12223572Y-29028000D01*
X12223572Y-29028000D02*
X12204524Y-29037524D01*
X12204524Y-29037524D02*
X12185476Y-29037524D01*
X12185476Y-29037524D02*
X12166429Y-29028000D01*
X12166429Y-29028000D02*
X12156905Y-29018476D01*
X12156905Y-29018476D02*
X12147381Y-28999428D01*
X12147381Y-28999428D02*
X12137857Y-28961333D01*
X12137857Y-28961333D02*
X12137857Y-28913714D01*
X12137857Y-28913714D02*
X12147381Y-28875619D01*
X12147381Y-28875619D02*
X12156905Y-28856571D01*
X12156905Y-28856571D02*
X12166429Y-28847048D01*
X12166429Y-28847048D02*
X12185476Y-28837524D01*
X12337857Y-29018476D02*
X12347381Y-29028000D01*
X12347381Y-29028000D02*
X12337857Y-29037524D01*
X12337857Y-29037524D02*
X12328333Y-29028000D01*
X12328333Y-29028000D02*
X12337857Y-29018476D01*
X12337857Y-29018476D02*
X12337857Y-29037524D01*
X12471191Y-28837524D02*
X12490238Y-28837524D01*
X12490238Y-28837524D02*
X12509286Y-28847048D01*
X12509286Y-28847048D02*
X12518810Y-28856571D01*
X12518810Y-28856571D02*
X12528333Y-28875619D01*
X12528333Y-28875619D02*
X12537857Y-28913714D01*
X12537857Y-28913714D02*
X12537857Y-28961333D01*
X12537857Y-28961333D02*
X12528333Y-28999428D01*
X12528333Y-28999428D02*
X12518810Y-29018476D01*
X12518810Y-29018476D02*
X12509286Y-29028000D01*
X12509286Y-29028000D02*
X12490238Y-29037524D01*
X12490238Y-29037524D02*
X12471191Y-29037524D01*
X12471191Y-29037524D02*
X12452143Y-29028000D01*
X12452143Y-29028000D02*
X12442619Y-29018476D01*
X12442619Y-29018476D02*
X12433095Y-28999428D01*
X12433095Y-28999428D02*
X12423572Y-28961333D01*
X12423572Y-28961333D02*
X12423572Y-28913714D01*
X12423572Y-28913714D02*
X12433095Y-28875619D01*
X12433095Y-28875619D02*
X12442619Y-28856571D01*
X12442619Y-28856571D02*
X12452143Y-28847048D01*
X12452143Y-28847048D02*
X12471191Y-28837524D01*
X12633095Y-29037524D02*
X12671191Y-29037524D01*
X12671191Y-29037524D02*
X12690238Y-29028000D01*
X12690238Y-29028000D02*
X12699762Y-29018476D01*
X12699762Y-29018476D02*
X12718810Y-28989905D01*
X12718810Y-28989905D02*
X12728333Y-28951809D01*
X12728333Y-28951809D02*
X12728333Y-28875619D01*
X12728333Y-28875619D02*
X12718810Y-28856571D01*
X12718810Y-28856571D02*
X12709286Y-28847048D01*
X12709286Y-28847048D02*
X12690238Y-28837524D01*
X12690238Y-28837524D02*
X12652143Y-28837524D01*
X12652143Y-28837524D02*
X12633095Y-28847048D01*
X12633095Y-28847048D02*
X12623572Y-28856571D01*
X12623572Y-28856571D02*
X12614048Y-28875619D01*
X12614048Y-28875619D02*
X12614048Y-28923238D01*
X12614048Y-28923238D02*
X12623572Y-28942286D01*
X12623572Y-28942286D02*
X12633095Y-28951809D01*
X12633095Y-28951809D02*
X12652143Y-28961333D01*
X12652143Y-28961333D02*
X12690238Y-28961333D01*
X12690238Y-28961333D02*
X12709286Y-28951809D01*
X12709286Y-28951809D02*
X12718810Y-28942286D01*
X12718810Y-28942286D02*
X12728333Y-28923238D01*
X12899762Y-28904190D02*
X12899762Y-29037524D01*
X12852143Y-28828000D02*
X12804524Y-28970857D01*
X12804524Y-28970857D02*
X12928333Y-28970857D01*
X13090238Y-28904190D02*
X13090238Y-29037524D01*
X13042619Y-28828000D02*
X12995000Y-28970857D01*
X12995000Y-28970857D02*
X13118810Y-28970857D01*
X13185476Y-28837524D02*
X13185476Y-28875619D01*
X13261667Y-28837524D02*
X13261667Y-28875619D01*
X13556905Y-29113714D02*
X13547381Y-29104190D01*
X13547381Y-29104190D02*
X13528334Y-29075619D01*
X13528334Y-29075619D02*
X13518810Y-29056571D01*
X13518810Y-29056571D02*
X13509286Y-29028000D01*
X13509286Y-29028000D02*
X13499762Y-28980381D01*
X13499762Y-28980381D02*
X13499762Y-28942286D01*
X13499762Y-28942286D02*
X13509286Y-28894667D01*
X13509286Y-28894667D02*
X13518810Y-28866095D01*
X13518810Y-28866095D02*
X13528334Y-28847048D01*
X13528334Y-28847048D02*
X13547381Y-28818476D01*
X13547381Y-28818476D02*
X13556905Y-28808952D01*
X13623572Y-28856571D02*
X13633095Y-28847048D01*
X13633095Y-28847048D02*
X13652143Y-28837524D01*
X13652143Y-28837524D02*
X13699762Y-28837524D01*
X13699762Y-28837524D02*
X13718810Y-28847048D01*
X13718810Y-28847048D02*
X13728334Y-28856571D01*
X13728334Y-28856571D02*
X13737857Y-28875619D01*
X13737857Y-28875619D02*
X13737857Y-28894667D01*
X13737857Y-28894667D02*
X13728334Y-28923238D01*
X13728334Y-28923238D02*
X13614048Y-29037524D01*
X13614048Y-29037524D02*
X13737857Y-29037524D01*
X13975953Y-29037524D02*
X13975953Y-28837524D01*
X14061667Y-29037524D02*
X14061667Y-28932762D01*
X14061667Y-28932762D02*
X14052143Y-28913714D01*
X14052143Y-28913714D02*
X14033096Y-28904190D01*
X14033096Y-28904190D02*
X14004524Y-28904190D01*
X14004524Y-28904190D02*
X13985476Y-28913714D01*
X13985476Y-28913714D02*
X13975953Y-28923238D01*
X14185476Y-29037524D02*
X14166429Y-29028000D01*
X14166429Y-29028000D02*
X14156905Y-29018476D01*
X14156905Y-29018476D02*
X14147381Y-28999428D01*
X14147381Y-28999428D02*
X14147381Y-28942286D01*
X14147381Y-28942286D02*
X14156905Y-28923238D01*
X14156905Y-28923238D02*
X14166429Y-28913714D01*
X14166429Y-28913714D02*
X14185476Y-28904190D01*
X14185476Y-28904190D02*
X14214048Y-28904190D01*
X14214048Y-28904190D02*
X14233096Y-28913714D01*
X14233096Y-28913714D02*
X14242619Y-28923238D01*
X14242619Y-28923238D02*
X14252143Y-28942286D01*
X14252143Y-28942286D02*
X14252143Y-28999428D01*
X14252143Y-28999428D02*
X14242619Y-29018476D01*
X14242619Y-29018476D02*
X14233096Y-29028000D01*
X14233096Y-29028000D02*
X14214048Y-29037524D01*
X14214048Y-29037524D02*
X14185476Y-29037524D01*
X14366429Y-29037524D02*
X14347381Y-29028000D01*
X14347381Y-29028000D02*
X14337857Y-29008952D01*
X14337857Y-29008952D02*
X14337857Y-28837524D01*
X14518810Y-29028000D02*
X14499762Y-29037524D01*
X14499762Y-29037524D02*
X14461667Y-29037524D01*
X14461667Y-29037524D02*
X14442619Y-29028000D01*
X14442619Y-29028000D02*
X14433096Y-29008952D01*
X14433096Y-29008952D02*
X14433096Y-28932762D01*
X14433096Y-28932762D02*
X14442619Y-28913714D01*
X14442619Y-28913714D02*
X14461667Y-28904190D01*
X14461667Y-28904190D02*
X14499762Y-28904190D01*
X14499762Y-28904190D02*
X14518810Y-28913714D01*
X14518810Y-28913714D02*
X14528334Y-28932762D01*
X14528334Y-28932762D02*
X14528334Y-28951809D01*
X14528334Y-28951809D02*
X14433096Y-28970857D01*
X14604524Y-29028000D02*
X14623572Y-29037524D01*
X14623572Y-29037524D02*
X14661667Y-29037524D01*
X14661667Y-29037524D02*
X14680715Y-29028000D01*
X14680715Y-29028000D02*
X14690238Y-29008952D01*
X14690238Y-29008952D02*
X14690238Y-28999428D01*
X14690238Y-28999428D02*
X14680715Y-28980381D01*
X14680715Y-28980381D02*
X14661667Y-28970857D01*
X14661667Y-28970857D02*
X14633096Y-28970857D01*
X14633096Y-28970857D02*
X14614048Y-28961333D01*
X14614048Y-28961333D02*
X14604524Y-28942286D01*
X14604524Y-28942286D02*
X14604524Y-28932762D01*
X14604524Y-28932762D02*
X14614048Y-28913714D01*
X14614048Y-28913714D02*
X14633096Y-28904190D01*
X14633096Y-28904190D02*
X14661667Y-28904190D01*
X14661667Y-28904190D02*
X14680715Y-28913714D01*
X14756905Y-29113714D02*
X14766429Y-29104190D01*
X14766429Y-29104190D02*
X14785477Y-29075619D01*
X14785477Y-29075619D02*
X14795000Y-29056571D01*
X14795000Y-29056571D02*
X14804524Y-29028000D01*
X14804524Y-29028000D02*
X14814048Y-28980381D01*
X14814048Y-28980381D02*
X14814048Y-28942286D01*
X14814048Y-28942286D02*
X14804524Y-28894667D01*
X14804524Y-28894667D02*
X14795000Y-28866095D01*
X14795000Y-28866095D02*
X14785477Y-28847048D01*
X14785477Y-28847048D02*
X14766429Y-28818476D01*
X14766429Y-28818476D02*
X14756905Y-28808952D01*
X15118810Y-29113714D02*
X15109286Y-29104190D01*
X15109286Y-29104190D02*
X15090238Y-29075619D01*
X15090238Y-29075619D02*
X15080715Y-29056571D01*
X15080715Y-29056571D02*
X15071191Y-29028000D01*
X15071191Y-29028000D02*
X15061667Y-28980381D01*
X15061667Y-28980381D02*
X15061667Y-28942286D01*
X15061667Y-28942286D02*
X15071191Y-28894667D01*
X15071191Y-28894667D02*
X15080715Y-28866095D01*
X15080715Y-28866095D02*
X15090238Y-28847048D01*
X15090238Y-28847048D02*
X15109286Y-28818476D01*
X15109286Y-28818476D02*
X15118810Y-28808952D01*
X15195000Y-28904190D02*
X15195000Y-29037524D01*
X15195000Y-28923238D02*
X15204524Y-28913714D01*
X15204524Y-28913714D02*
X15223572Y-28904190D01*
X15223572Y-28904190D02*
X15252143Y-28904190D01*
X15252143Y-28904190D02*
X15271191Y-28913714D01*
X15271191Y-28913714D02*
X15280715Y-28932762D01*
X15280715Y-28932762D02*
X15280715Y-29037524D01*
X15404524Y-29037524D02*
X15385477Y-29028000D01*
X15385477Y-29028000D02*
X15375953Y-29018476D01*
X15375953Y-29018476D02*
X15366429Y-28999428D01*
X15366429Y-28999428D02*
X15366429Y-28942286D01*
X15366429Y-28942286D02*
X15375953Y-28923238D01*
X15375953Y-28923238D02*
X15385477Y-28913714D01*
X15385477Y-28913714D02*
X15404524Y-28904190D01*
X15404524Y-28904190D02*
X15433096Y-28904190D01*
X15433096Y-28904190D02*
X15452143Y-28913714D01*
X15452143Y-28913714D02*
X15461667Y-28923238D01*
X15461667Y-28923238D02*
X15471191Y-28942286D01*
X15471191Y-28942286D02*
X15471191Y-28999428D01*
X15471191Y-28999428D02*
X15461667Y-29018476D01*
X15461667Y-29018476D02*
X15452143Y-29028000D01*
X15452143Y-29028000D02*
X15433096Y-29037524D01*
X15433096Y-29037524D02*
X15404524Y-29037524D01*
X15528334Y-28904190D02*
X15604524Y-28904190D01*
X15556905Y-28837524D02*
X15556905Y-29008952D01*
X15556905Y-29008952D02*
X15566429Y-29028000D01*
X15566429Y-29028000D02*
X15585477Y-29037524D01*
X15585477Y-29037524D02*
X15604524Y-29037524D01*
X15823572Y-28904190D02*
X15823572Y-29104190D01*
X15823572Y-28913714D02*
X15842619Y-28904190D01*
X15842619Y-28904190D02*
X15880715Y-28904190D01*
X15880715Y-28904190D02*
X15899762Y-28913714D01*
X15899762Y-28913714D02*
X15909286Y-28923238D01*
X15909286Y-28923238D02*
X15918810Y-28942286D01*
X15918810Y-28942286D02*
X15918810Y-28999428D01*
X15918810Y-28999428D02*
X15909286Y-29018476D01*
X15909286Y-29018476D02*
X15899762Y-29028000D01*
X15899762Y-29028000D02*
X15880715Y-29037524D01*
X15880715Y-29037524D02*
X15842619Y-29037524D01*
X15842619Y-29037524D02*
X15823572Y-29028000D01*
X16033096Y-29037524D02*
X16014048Y-29028000D01*
X16014048Y-29028000D02*
X16004524Y-29008952D01*
X16004524Y-29008952D02*
X16004524Y-28837524D01*
X16195000Y-29037524D02*
X16195000Y-28932762D01*
X16195000Y-28932762D02*
X16185477Y-28913714D01*
X16185477Y-28913714D02*
X16166429Y-28904190D01*
X16166429Y-28904190D02*
X16128334Y-28904190D01*
X16128334Y-28904190D02*
X16109286Y-28913714D01*
X16195000Y-29028000D02*
X16175953Y-29037524D01*
X16175953Y-29037524D02*
X16128334Y-29037524D01*
X16128334Y-29037524D02*
X16109286Y-29028000D01*
X16109286Y-29028000D02*
X16099762Y-29008952D01*
X16099762Y-29008952D02*
X16099762Y-28989905D01*
X16099762Y-28989905D02*
X16109286Y-28970857D01*
X16109286Y-28970857D02*
X16128334Y-28961333D01*
X16128334Y-28961333D02*
X16175953Y-28961333D01*
X16175953Y-28961333D02*
X16195000Y-28951809D01*
X16261667Y-28904190D02*
X16337858Y-28904190D01*
X16290239Y-28837524D02*
X16290239Y-29008952D01*
X16290239Y-29008952D02*
X16299762Y-29028000D01*
X16299762Y-29028000D02*
X16318810Y-29037524D01*
X16318810Y-29037524D02*
X16337858Y-29037524D01*
X16480715Y-29028000D02*
X16461667Y-29037524D01*
X16461667Y-29037524D02*
X16423572Y-29037524D01*
X16423572Y-29037524D02*
X16404524Y-29028000D01*
X16404524Y-29028000D02*
X16395000Y-29008952D01*
X16395000Y-29008952D02*
X16395000Y-28932762D01*
X16395000Y-28932762D02*
X16404524Y-28913714D01*
X16404524Y-28913714D02*
X16423572Y-28904190D01*
X16423572Y-28904190D02*
X16461667Y-28904190D01*
X16461667Y-28904190D02*
X16480715Y-28913714D01*
X16480715Y-28913714D02*
X16490239Y-28932762D01*
X16490239Y-28932762D02*
X16490239Y-28951809D01*
X16490239Y-28951809D02*
X16395000Y-28970857D01*
X16661667Y-29037524D02*
X16661667Y-28837524D01*
X16661667Y-29028000D02*
X16642620Y-29037524D01*
X16642620Y-29037524D02*
X16604524Y-29037524D01*
X16604524Y-29037524D02*
X16585477Y-29028000D01*
X16585477Y-29028000D02*
X16575953Y-29018476D01*
X16575953Y-29018476D02*
X16566429Y-28999428D01*
X16566429Y-28999428D02*
X16566429Y-28942286D01*
X16566429Y-28942286D02*
X16575953Y-28923238D01*
X16575953Y-28923238D02*
X16585477Y-28913714D01*
X16585477Y-28913714D02*
X16604524Y-28904190D01*
X16604524Y-28904190D02*
X16642620Y-28904190D01*
X16642620Y-28904190D02*
X16661667Y-28913714D01*
X16737858Y-29113714D02*
X16747381Y-29104190D01*
X16747381Y-29104190D02*
X16766429Y-29075619D01*
X16766429Y-29075619D02*
X16775953Y-29056571D01*
X16775953Y-29056571D02*
X16785477Y-29028000D01*
X16785477Y-29028000D02*
X16795001Y-28980381D01*
X16795001Y-28980381D02*
X16795001Y-28942286D01*
X16795001Y-28942286D02*
X16785477Y-28894667D01*
X16785477Y-28894667D02*
X16775953Y-28866095D01*
X16775953Y-28866095D02*
X16766429Y-28847048D01*
X16766429Y-28847048D02*
X16747381Y-28818476D01*
X16747381Y-28818476D02*
X16737858Y-28808952D01*
X9995000Y-29265000D02*
G75*
G03*
X9995000Y-29265000I-100000J0D01*
G01*
X10233095Y-29176571D02*
X10242619Y-29167048D01*
X10242619Y-29167048D02*
X10261667Y-29157524D01*
X10261667Y-29157524D02*
X10309286Y-29157524D01*
X10309286Y-29157524D02*
X10328333Y-29167048D01*
X10328333Y-29167048D02*
X10337857Y-29176571D01*
X10337857Y-29176571D02*
X10347381Y-29195619D01*
X10347381Y-29195619D02*
X10347381Y-29214667D01*
X10347381Y-29214667D02*
X10337857Y-29243238D01*
X10337857Y-29243238D02*
X10223571Y-29357524D01*
X10223571Y-29357524D02*
X10347381Y-29357524D01*
X10433095Y-29338476D02*
X10442619Y-29348000D01*
X10442619Y-29348000D02*
X10433095Y-29357524D01*
X10433095Y-29357524D02*
X10423571Y-29348000D01*
X10423571Y-29348000D02*
X10433095Y-29338476D01*
X10433095Y-29338476D02*
X10433095Y-29357524D01*
X10509286Y-29157524D02*
X10642619Y-29157524D01*
X10642619Y-29157524D02*
X10556905Y-29357524D01*
X10728333Y-29357524D02*
X10766429Y-29357524D01*
X10766429Y-29357524D02*
X10785476Y-29348000D01*
X10785476Y-29348000D02*
X10795000Y-29338476D01*
X10795000Y-29338476D02*
X10814048Y-29309905D01*
X10814048Y-29309905D02*
X10823571Y-29271809D01*
X10823571Y-29271809D02*
X10823571Y-29195619D01*
X10823571Y-29195619D02*
X10814048Y-29176571D01*
X10814048Y-29176571D02*
X10804524Y-29167048D01*
X10804524Y-29167048D02*
X10785476Y-29157524D01*
X10785476Y-29157524D02*
X10747381Y-29157524D01*
X10747381Y-29157524D02*
X10728333Y-29167048D01*
X10728333Y-29167048D02*
X10718810Y-29176571D01*
X10718810Y-29176571D02*
X10709286Y-29195619D01*
X10709286Y-29195619D02*
X10709286Y-29243238D01*
X10709286Y-29243238D02*
X10718810Y-29262286D01*
X10718810Y-29262286D02*
X10728333Y-29271809D01*
X10728333Y-29271809D02*
X10747381Y-29281333D01*
X10747381Y-29281333D02*
X10785476Y-29281333D01*
X10785476Y-29281333D02*
X10804524Y-29271809D01*
X10804524Y-29271809D02*
X10814048Y-29262286D01*
X10814048Y-29262286D02*
X10823571Y-29243238D01*
X10995000Y-29224190D02*
X10995000Y-29357524D01*
X10947381Y-29148000D02*
X10899762Y-29290857D01*
X10899762Y-29290857D02*
X11023571Y-29290857D01*
X11099762Y-29357524D02*
X11099762Y-29224190D01*
X11099762Y-29243238D02*
X11109286Y-29233714D01*
X11109286Y-29233714D02*
X11128333Y-29224190D01*
X11128333Y-29224190D02*
X11156905Y-29224190D01*
X11156905Y-29224190D02*
X11175952Y-29233714D01*
X11175952Y-29233714D02*
X11185476Y-29252762D01*
X11185476Y-29252762D02*
X11185476Y-29357524D01*
X11185476Y-29252762D02*
X11195000Y-29233714D01*
X11195000Y-29233714D02*
X11214048Y-29224190D01*
X11214048Y-29224190D02*
X11242619Y-29224190D01*
X11242619Y-29224190D02*
X11261667Y-29233714D01*
X11261667Y-29233714D02*
X11271190Y-29252762D01*
X11271190Y-29252762D02*
X11271190Y-29357524D01*
X11366429Y-29357524D02*
X11366429Y-29224190D01*
X11366429Y-29243238D02*
X11375952Y-29233714D01*
X11375952Y-29233714D02*
X11395000Y-29224190D01*
X11395000Y-29224190D02*
X11423571Y-29224190D01*
X11423571Y-29224190D02*
X11442619Y-29233714D01*
X11442619Y-29233714D02*
X11452143Y-29252762D01*
X11452143Y-29252762D02*
X11452143Y-29357524D01*
X11452143Y-29252762D02*
X11461667Y-29233714D01*
X11461667Y-29233714D02*
X11480714Y-29224190D01*
X11480714Y-29224190D02*
X11509286Y-29224190D01*
X11509286Y-29224190D02*
X11528333Y-29233714D01*
X11528333Y-29233714D02*
X11537857Y-29252762D01*
X11537857Y-29252762D02*
X11537857Y-29357524D01*
X11928333Y-29148000D02*
X11756905Y-29405143D01*
X12185476Y-29157524D02*
X12204524Y-29157524D01*
X12204524Y-29157524D02*
X12223572Y-29167048D01*
X12223572Y-29167048D02*
X12233095Y-29176571D01*
X12233095Y-29176571D02*
X12242619Y-29195619D01*
X12242619Y-29195619D02*
X12252143Y-29233714D01*
X12252143Y-29233714D02*
X12252143Y-29281333D01*
X12252143Y-29281333D02*
X12242619Y-29319428D01*
X12242619Y-29319428D02*
X12233095Y-29338476D01*
X12233095Y-29338476D02*
X12223572Y-29348000D01*
X12223572Y-29348000D02*
X12204524Y-29357524D01*
X12204524Y-29357524D02*
X12185476Y-29357524D01*
X12185476Y-29357524D02*
X12166429Y-29348000D01*
X12166429Y-29348000D02*
X12156905Y-29338476D01*
X12156905Y-29338476D02*
X12147381Y-29319428D01*
X12147381Y-29319428D02*
X12137857Y-29281333D01*
X12137857Y-29281333D02*
X12137857Y-29233714D01*
X12137857Y-29233714D02*
X12147381Y-29195619D01*
X12147381Y-29195619D02*
X12156905Y-29176571D01*
X12156905Y-29176571D02*
X12166429Y-29167048D01*
X12166429Y-29167048D02*
X12185476Y-29157524D01*
X12337857Y-29338476D02*
X12347381Y-29348000D01*
X12347381Y-29348000D02*
X12337857Y-29357524D01*
X12337857Y-29357524D02*
X12328333Y-29348000D01*
X12328333Y-29348000D02*
X12337857Y-29338476D01*
X12337857Y-29338476D02*
X12337857Y-29357524D01*
X12537857Y-29357524D02*
X12423572Y-29357524D01*
X12480714Y-29357524D02*
X12480714Y-29157524D01*
X12480714Y-29157524D02*
X12461667Y-29186095D01*
X12461667Y-29186095D02*
X12442619Y-29205143D01*
X12442619Y-29205143D02*
X12423572Y-29214667D01*
X12728333Y-29357524D02*
X12614048Y-29357524D01*
X12671191Y-29357524D02*
X12671191Y-29157524D01*
X12671191Y-29157524D02*
X12652143Y-29186095D01*
X12652143Y-29186095D02*
X12633095Y-29205143D01*
X12633095Y-29205143D02*
X12614048Y-29214667D01*
X12852143Y-29157524D02*
X12871191Y-29157524D01*
X12871191Y-29157524D02*
X12890238Y-29167048D01*
X12890238Y-29167048D02*
X12899762Y-29176571D01*
X12899762Y-29176571D02*
X12909286Y-29195619D01*
X12909286Y-29195619D02*
X12918810Y-29233714D01*
X12918810Y-29233714D02*
X12918810Y-29281333D01*
X12918810Y-29281333D02*
X12909286Y-29319428D01*
X12909286Y-29319428D02*
X12899762Y-29338476D01*
X12899762Y-29338476D02*
X12890238Y-29348000D01*
X12890238Y-29348000D02*
X12871191Y-29357524D01*
X12871191Y-29357524D02*
X12852143Y-29357524D01*
X12852143Y-29357524D02*
X12833095Y-29348000D01*
X12833095Y-29348000D02*
X12823572Y-29338476D01*
X12823572Y-29338476D02*
X12814048Y-29319428D01*
X12814048Y-29319428D02*
X12804524Y-29281333D01*
X12804524Y-29281333D02*
X12804524Y-29233714D01*
X12804524Y-29233714D02*
X12814048Y-29195619D01*
X12814048Y-29195619D02*
X12823572Y-29176571D01*
X12823572Y-29176571D02*
X12833095Y-29167048D01*
X12833095Y-29167048D02*
X12852143Y-29157524D01*
X13042619Y-29157524D02*
X13061667Y-29157524D01*
X13061667Y-29157524D02*
X13080714Y-29167048D01*
X13080714Y-29167048D02*
X13090238Y-29176571D01*
X13090238Y-29176571D02*
X13099762Y-29195619D01*
X13099762Y-29195619D02*
X13109286Y-29233714D01*
X13109286Y-29233714D02*
X13109286Y-29281333D01*
X13109286Y-29281333D02*
X13099762Y-29319428D01*
X13099762Y-29319428D02*
X13090238Y-29338476D01*
X13090238Y-29338476D02*
X13080714Y-29348000D01*
X13080714Y-29348000D02*
X13061667Y-29357524D01*
X13061667Y-29357524D02*
X13042619Y-29357524D01*
X13042619Y-29357524D02*
X13023572Y-29348000D01*
X13023572Y-29348000D02*
X13014048Y-29338476D01*
X13014048Y-29338476D02*
X13004524Y-29319428D01*
X13004524Y-29319428D02*
X12995000Y-29281333D01*
X12995000Y-29281333D02*
X12995000Y-29233714D01*
X12995000Y-29233714D02*
X13004524Y-29195619D01*
X13004524Y-29195619D02*
X13014048Y-29176571D01*
X13014048Y-29176571D02*
X13023572Y-29167048D01*
X13023572Y-29167048D02*
X13042619Y-29157524D01*
X13185476Y-29157524D02*
X13185476Y-29195619D01*
X13261667Y-29157524D02*
X13261667Y-29195619D01*
X13556905Y-29433714D02*
X13547381Y-29424190D01*
X13547381Y-29424190D02*
X13528334Y-29395619D01*
X13528334Y-29395619D02*
X13518810Y-29376571D01*
X13518810Y-29376571D02*
X13509286Y-29348000D01*
X13509286Y-29348000D02*
X13499762Y-29300381D01*
X13499762Y-29300381D02*
X13499762Y-29262286D01*
X13499762Y-29262286D02*
X13509286Y-29214667D01*
X13509286Y-29214667D02*
X13518810Y-29186095D01*
X13518810Y-29186095D02*
X13528334Y-29167048D01*
X13528334Y-29167048D02*
X13547381Y-29138476D01*
X13547381Y-29138476D02*
X13556905Y-29128952D01*
X13623572Y-29176571D02*
X13633095Y-29167048D01*
X13633095Y-29167048D02*
X13652143Y-29157524D01*
X13652143Y-29157524D02*
X13699762Y-29157524D01*
X13699762Y-29157524D02*
X13718810Y-29167048D01*
X13718810Y-29167048D02*
X13728334Y-29176571D01*
X13728334Y-29176571D02*
X13737857Y-29195619D01*
X13737857Y-29195619D02*
X13737857Y-29214667D01*
X13737857Y-29214667D02*
X13728334Y-29243238D01*
X13728334Y-29243238D02*
X13614048Y-29357524D01*
X13614048Y-29357524D02*
X13737857Y-29357524D01*
X13975953Y-29357524D02*
X13975953Y-29157524D01*
X14061667Y-29357524D02*
X14061667Y-29252762D01*
X14061667Y-29252762D02*
X14052143Y-29233714D01*
X14052143Y-29233714D02*
X14033096Y-29224190D01*
X14033096Y-29224190D02*
X14004524Y-29224190D01*
X14004524Y-29224190D02*
X13985476Y-29233714D01*
X13985476Y-29233714D02*
X13975953Y-29243238D01*
X14185476Y-29357524D02*
X14166429Y-29348000D01*
X14166429Y-29348000D02*
X14156905Y-29338476D01*
X14156905Y-29338476D02*
X14147381Y-29319428D01*
X14147381Y-29319428D02*
X14147381Y-29262286D01*
X14147381Y-29262286D02*
X14156905Y-29243238D01*
X14156905Y-29243238D02*
X14166429Y-29233714D01*
X14166429Y-29233714D02*
X14185476Y-29224190D01*
X14185476Y-29224190D02*
X14214048Y-29224190D01*
X14214048Y-29224190D02*
X14233096Y-29233714D01*
X14233096Y-29233714D02*
X14242619Y-29243238D01*
X14242619Y-29243238D02*
X14252143Y-29262286D01*
X14252143Y-29262286D02*
X14252143Y-29319428D01*
X14252143Y-29319428D02*
X14242619Y-29338476D01*
X14242619Y-29338476D02*
X14233096Y-29348000D01*
X14233096Y-29348000D02*
X14214048Y-29357524D01*
X14214048Y-29357524D02*
X14185476Y-29357524D01*
X14366429Y-29357524D02*
X14347381Y-29348000D01*
X14347381Y-29348000D02*
X14337857Y-29328952D01*
X14337857Y-29328952D02*
X14337857Y-29157524D01*
X14518810Y-29348000D02*
X14499762Y-29357524D01*
X14499762Y-29357524D02*
X14461667Y-29357524D01*
X14461667Y-29357524D02*
X14442619Y-29348000D01*
X14442619Y-29348000D02*
X14433096Y-29328952D01*
X14433096Y-29328952D02*
X14433096Y-29252762D01*
X14433096Y-29252762D02*
X14442619Y-29233714D01*
X14442619Y-29233714D02*
X14461667Y-29224190D01*
X14461667Y-29224190D02*
X14499762Y-29224190D01*
X14499762Y-29224190D02*
X14518810Y-29233714D01*
X14518810Y-29233714D02*
X14528334Y-29252762D01*
X14528334Y-29252762D02*
X14528334Y-29271809D01*
X14528334Y-29271809D02*
X14433096Y-29290857D01*
X14604524Y-29348000D02*
X14623572Y-29357524D01*
X14623572Y-29357524D02*
X14661667Y-29357524D01*
X14661667Y-29357524D02*
X14680715Y-29348000D01*
X14680715Y-29348000D02*
X14690238Y-29328952D01*
X14690238Y-29328952D02*
X14690238Y-29319428D01*
X14690238Y-29319428D02*
X14680715Y-29300381D01*
X14680715Y-29300381D02*
X14661667Y-29290857D01*
X14661667Y-29290857D02*
X14633096Y-29290857D01*
X14633096Y-29290857D02*
X14614048Y-29281333D01*
X14614048Y-29281333D02*
X14604524Y-29262286D01*
X14604524Y-29262286D02*
X14604524Y-29252762D01*
X14604524Y-29252762D02*
X14614048Y-29233714D01*
X14614048Y-29233714D02*
X14633096Y-29224190D01*
X14633096Y-29224190D02*
X14661667Y-29224190D01*
X14661667Y-29224190D02*
X14680715Y-29233714D01*
X14756905Y-29433714D02*
X14766429Y-29424190D01*
X14766429Y-29424190D02*
X14785477Y-29395619D01*
X14785477Y-29395619D02*
X14795000Y-29376571D01*
X14795000Y-29376571D02*
X14804524Y-29348000D01*
X14804524Y-29348000D02*
X14814048Y-29300381D01*
X14814048Y-29300381D02*
X14814048Y-29262286D01*
X14814048Y-29262286D02*
X14804524Y-29214667D01*
X14804524Y-29214667D02*
X14795000Y-29186095D01*
X14795000Y-29186095D02*
X14785477Y-29167048D01*
X14785477Y-29167048D02*
X14766429Y-29138476D01*
X14766429Y-29138476D02*
X14756905Y-29128952D01*
X15118810Y-29433714D02*
X15109286Y-29424190D01*
X15109286Y-29424190D02*
X15090238Y-29395619D01*
X15090238Y-29395619D02*
X15080715Y-29376571D01*
X15080715Y-29376571D02*
X15071191Y-29348000D01*
X15071191Y-29348000D02*
X15061667Y-29300381D01*
X15061667Y-29300381D02*
X15061667Y-29262286D01*
X15061667Y-29262286D02*
X15071191Y-29214667D01*
X15071191Y-29214667D02*
X15080715Y-29186095D01*
X15080715Y-29186095D02*
X15090238Y-29167048D01*
X15090238Y-29167048D02*
X15109286Y-29138476D01*
X15109286Y-29138476D02*
X15118810Y-29128952D01*
X15195000Y-29224190D02*
X15195000Y-29357524D01*
X15195000Y-29243238D02*
X15204524Y-29233714D01*
X15204524Y-29233714D02*
X15223572Y-29224190D01*
X15223572Y-29224190D02*
X15252143Y-29224190D01*
X15252143Y-29224190D02*
X15271191Y-29233714D01*
X15271191Y-29233714D02*
X15280715Y-29252762D01*
X15280715Y-29252762D02*
X15280715Y-29357524D01*
X15404524Y-29357524D02*
X15385477Y-29348000D01*
X15385477Y-29348000D02*
X15375953Y-29338476D01*
X15375953Y-29338476D02*
X15366429Y-29319428D01*
X15366429Y-29319428D02*
X15366429Y-29262286D01*
X15366429Y-29262286D02*
X15375953Y-29243238D01*
X15375953Y-29243238D02*
X15385477Y-29233714D01*
X15385477Y-29233714D02*
X15404524Y-29224190D01*
X15404524Y-29224190D02*
X15433096Y-29224190D01*
X15433096Y-29224190D02*
X15452143Y-29233714D01*
X15452143Y-29233714D02*
X15461667Y-29243238D01*
X15461667Y-29243238D02*
X15471191Y-29262286D01*
X15471191Y-29262286D02*
X15471191Y-29319428D01*
X15471191Y-29319428D02*
X15461667Y-29338476D01*
X15461667Y-29338476D02*
X15452143Y-29348000D01*
X15452143Y-29348000D02*
X15433096Y-29357524D01*
X15433096Y-29357524D02*
X15404524Y-29357524D01*
X15528334Y-29224190D02*
X15604524Y-29224190D01*
X15556905Y-29157524D02*
X15556905Y-29328952D01*
X15556905Y-29328952D02*
X15566429Y-29348000D01*
X15566429Y-29348000D02*
X15585477Y-29357524D01*
X15585477Y-29357524D02*
X15604524Y-29357524D01*
X15823572Y-29224190D02*
X15823572Y-29424190D01*
X15823572Y-29233714D02*
X15842619Y-29224190D01*
X15842619Y-29224190D02*
X15880715Y-29224190D01*
X15880715Y-29224190D02*
X15899762Y-29233714D01*
X15899762Y-29233714D02*
X15909286Y-29243238D01*
X15909286Y-29243238D02*
X15918810Y-29262286D01*
X15918810Y-29262286D02*
X15918810Y-29319428D01*
X15918810Y-29319428D02*
X15909286Y-29338476D01*
X15909286Y-29338476D02*
X15899762Y-29348000D01*
X15899762Y-29348000D02*
X15880715Y-29357524D01*
X15880715Y-29357524D02*
X15842619Y-29357524D01*
X15842619Y-29357524D02*
X15823572Y-29348000D01*
X16033096Y-29357524D02*
X16014048Y-29348000D01*
X16014048Y-29348000D02*
X16004524Y-29328952D01*
X16004524Y-29328952D02*
X16004524Y-29157524D01*
X16195000Y-29357524D02*
X16195000Y-29252762D01*
X16195000Y-29252762D02*
X16185477Y-29233714D01*
X16185477Y-29233714D02*
X16166429Y-29224190D01*
X16166429Y-29224190D02*
X16128334Y-29224190D01*
X16128334Y-29224190D02*
X16109286Y-29233714D01*
X16195000Y-29348000D02*
X16175953Y-29357524D01*
X16175953Y-29357524D02*
X16128334Y-29357524D01*
X16128334Y-29357524D02*
X16109286Y-29348000D01*
X16109286Y-29348000D02*
X16099762Y-29328952D01*
X16099762Y-29328952D02*
X16099762Y-29309905D01*
X16099762Y-29309905D02*
X16109286Y-29290857D01*
X16109286Y-29290857D02*
X16128334Y-29281333D01*
X16128334Y-29281333D02*
X16175953Y-29281333D01*
X16175953Y-29281333D02*
X16195000Y-29271809D01*
X16261667Y-29224190D02*
X16337858Y-29224190D01*
X16290239Y-29157524D02*
X16290239Y-29328952D01*
X16290239Y-29328952D02*
X16299762Y-29348000D01*
X16299762Y-29348000D02*
X16318810Y-29357524D01*
X16318810Y-29357524D02*
X16337858Y-29357524D01*
X16480715Y-29348000D02*
X16461667Y-29357524D01*
X16461667Y-29357524D02*
X16423572Y-29357524D01*
X16423572Y-29357524D02*
X16404524Y-29348000D01*
X16404524Y-29348000D02*
X16395000Y-29328952D01*
X16395000Y-29328952D02*
X16395000Y-29252762D01*
X16395000Y-29252762D02*
X16404524Y-29233714D01*
X16404524Y-29233714D02*
X16423572Y-29224190D01*
X16423572Y-29224190D02*
X16461667Y-29224190D01*
X16461667Y-29224190D02*
X16480715Y-29233714D01*
X16480715Y-29233714D02*
X16490239Y-29252762D01*
X16490239Y-29252762D02*
X16490239Y-29271809D01*
X16490239Y-29271809D02*
X16395000Y-29290857D01*
X16661667Y-29357524D02*
X16661667Y-29157524D01*
X16661667Y-29348000D02*
X16642620Y-29357524D01*
X16642620Y-29357524D02*
X16604524Y-29357524D01*
X16604524Y-29357524D02*
X16585477Y-29348000D01*
X16585477Y-29348000D02*
X16575953Y-29338476D01*
X16575953Y-29338476D02*
X16566429Y-29319428D01*
X16566429Y-29319428D02*
X16566429Y-29262286D01*
X16566429Y-29262286D02*
X16575953Y-29243238D01*
X16575953Y-29243238D02*
X16585477Y-29233714D01*
X16585477Y-29233714D02*
X16604524Y-29224190D01*
X16604524Y-29224190D02*
X16642620Y-29224190D01*
X16642620Y-29224190D02*
X16661667Y-29233714D01*
X16737858Y-29433714D02*
X16747381Y-29424190D01*
X16747381Y-29424190D02*
X16766429Y-29395619D01*
X16766429Y-29395619D02*
X16775953Y-29376571D01*
X16775953Y-29376571D02*
X16785477Y-29348000D01*
X16785477Y-29348000D02*
X16795001Y-29300381D01*
X16795001Y-29300381D02*
X16795001Y-29262286D01*
X16795001Y-29262286D02*
X16785477Y-29214667D01*
X16785477Y-29214667D02*
X16775953Y-29186095D01*
X16775953Y-29186095D02*
X16766429Y-29167048D01*
X16766429Y-29167048D02*
X16747381Y-29138476D01*
X16747381Y-29138476D02*
X16737858Y-29128952D01*
M02*
