%TF.GenerationSoftware,KiCad,Pcbnew,7.0.1-0*%
%TF.CreationDate,2023-04-25T08:11:44+03:00*%
%TF.ProjectId,HC2000,48433230-3030-42e6-9b69-6361645f7063,rev?*%
%TF.SameCoordinates,Original*%
%TF.FileFunction,OtherDrawing,Comment*%
%FSLAX46Y46*%
G04 Gerber Fmt 4.6, Leading zero omitted, Abs format (unit mm)*
G04 Created by KiCad (PCBNEW 7.0.1-0) date 2023-04-25 08:11:44*
%MOMM*%
%LPD*%
G01*
G04 APERTURE LIST*
%ADD10C,0.127000*%
%ADD11C,0.508000*%
%ADD12C,0.152400*%
%ADD13C,0.066040*%
%ADD14C,0.050800*%
%ADD15C,0.254000*%
%ADD16C,0.048260*%
%ADD17C,0.198120*%
%ADD18C,0.609600*%
%ADD19C,0.203200*%
%ADD20C,0.101600*%
G04 APERTURE END LIST*
D10*
X518772526Y-226407142D02*
X518772526Y-227132857D01*
X518772526Y-226770000D02*
X517502526Y-226770000D01*
X517502526Y-226770000D02*
X517683954Y-226890952D01*
X517683954Y-226890952D02*
X517804907Y-227011904D01*
X517804907Y-227011904D02*
X517865383Y-227132857D01*
X519407526Y-229098333D02*
X519407526Y-228312142D01*
X519407526Y-228312142D02*
X519891335Y-228735476D01*
X519891335Y-228735476D02*
X519891335Y-228554047D01*
X519891335Y-228554047D02*
X519951811Y-228433095D01*
X519951811Y-228433095D02*
X520012288Y-228372619D01*
X520012288Y-228372619D02*
X520133240Y-228312142D01*
X520133240Y-228312142D02*
X520435621Y-228312142D01*
X520435621Y-228312142D02*
X520556573Y-228372619D01*
X520556573Y-228372619D02*
X520617050Y-228433095D01*
X520617050Y-228433095D02*
X520677526Y-228554047D01*
X520677526Y-228554047D02*
X520677526Y-228916904D01*
X520677526Y-228916904D02*
X520617050Y-229037857D01*
X520617050Y-229037857D02*
X520556573Y-229098333D01*
X517623478Y-229672857D02*
X517563002Y-229612381D01*
X517563002Y-229612381D02*
X517502526Y-229491428D01*
X517502526Y-229491428D02*
X517502526Y-229189047D01*
X517502526Y-229189047D02*
X517563002Y-229068095D01*
X517563002Y-229068095D02*
X517623478Y-229007619D01*
X517623478Y-229007619D02*
X517744430Y-228947142D01*
X517744430Y-228947142D02*
X517865383Y-228947142D01*
X517865383Y-228947142D02*
X518046811Y-229007619D01*
X518046811Y-229007619D02*
X518772526Y-229733333D01*
X518772526Y-229733333D02*
X518772526Y-228947142D01*
X123802526Y-194657142D02*
X123802526Y-195382857D01*
X123802526Y-195020000D02*
X122532526Y-195020000D01*
X122532526Y-195020000D02*
X122713954Y-195140952D01*
X122713954Y-195140952D02*
X122834907Y-195261904D01*
X122834907Y-195261904D02*
X122895383Y-195382857D01*
X120627526Y-193538333D02*
X120627526Y-192752142D01*
X120627526Y-192752142D02*
X121111335Y-193175476D01*
X121111335Y-193175476D02*
X121111335Y-192994047D01*
X121111335Y-192994047D02*
X121171811Y-192873095D01*
X121171811Y-192873095D02*
X121232288Y-192812619D01*
X121232288Y-192812619D02*
X121353240Y-192752142D01*
X121353240Y-192752142D02*
X121655621Y-192752142D01*
X121655621Y-192752142D02*
X121776573Y-192812619D01*
X121776573Y-192812619D02*
X121837050Y-192873095D01*
X121837050Y-192873095D02*
X121897526Y-192994047D01*
X121897526Y-192994047D02*
X121897526Y-193356904D01*
X121897526Y-193356904D02*
X121837050Y-193477857D01*
X121837050Y-193477857D02*
X121776573Y-193538333D01*
X122653478Y-192842857D02*
X122593002Y-192782381D01*
X122593002Y-192782381D02*
X122532526Y-192661428D01*
X122532526Y-192661428D02*
X122532526Y-192359047D01*
X122532526Y-192359047D02*
X122593002Y-192238095D01*
X122593002Y-192238095D02*
X122653478Y-192177619D01*
X122653478Y-192177619D02*
X122774430Y-192117142D01*
X122774430Y-192117142D02*
X122895383Y-192117142D01*
X122895383Y-192117142D02*
X123076811Y-192177619D01*
X123076811Y-192177619D02*
X123802526Y-192903333D01*
X123802526Y-192903333D02*
X123802526Y-192117142D01*
X525243478Y-173157857D02*
X525183002Y-173097381D01*
X525183002Y-173097381D02*
X525122526Y-172976428D01*
X525122526Y-172976428D02*
X525122526Y-172674047D01*
X525122526Y-172674047D02*
X525183002Y-172553095D01*
X525183002Y-172553095D02*
X525243478Y-172492619D01*
X525243478Y-172492619D02*
X525364430Y-172432142D01*
X525364430Y-172432142D02*
X525485383Y-172432142D01*
X525485383Y-172432142D02*
X525666811Y-172492619D01*
X525666811Y-172492619D02*
X526392526Y-173218333D01*
X526392526Y-173218333D02*
X526392526Y-172432142D01*
X526392526Y-174972142D02*
X526392526Y-175697857D01*
X526392526Y-175335000D02*
X525122526Y-175335000D01*
X525122526Y-175335000D02*
X525303954Y-175455952D01*
X525303954Y-175455952D02*
X525424907Y-175576904D01*
X525424907Y-175576904D02*
X525485383Y-175697857D01*
X523217526Y-173853333D02*
X523217526Y-173067142D01*
X523217526Y-173067142D02*
X523701335Y-173490476D01*
X523701335Y-173490476D02*
X523701335Y-173309047D01*
X523701335Y-173309047D02*
X523761811Y-173188095D01*
X523761811Y-173188095D02*
X523822288Y-173127619D01*
X523822288Y-173127619D02*
X523943240Y-173067142D01*
X523943240Y-173067142D02*
X524245621Y-173067142D01*
X524245621Y-173067142D02*
X524366573Y-173127619D01*
X524366573Y-173127619D02*
X524427050Y-173188095D01*
X524427050Y-173188095D02*
X524487526Y-173309047D01*
X524487526Y-173309047D02*
X524487526Y-173671904D01*
X524487526Y-173671904D02*
X524427050Y-173792857D01*
X524427050Y-173792857D02*
X524366573Y-173853333D01*
X106916666Y-191797526D02*
X107702857Y-191797526D01*
X107702857Y-191797526D02*
X107279523Y-192281335D01*
X107279523Y-192281335D02*
X107460952Y-192281335D01*
X107460952Y-192281335D02*
X107581904Y-192341811D01*
X107581904Y-192341811D02*
X107642380Y-192402288D01*
X107642380Y-192402288D02*
X107702857Y-192523240D01*
X107702857Y-192523240D02*
X107702857Y-192825621D01*
X107702857Y-192825621D02*
X107642380Y-192946573D01*
X107642380Y-192946573D02*
X107581904Y-193007050D01*
X107581904Y-193007050D02*
X107460952Y-193067526D01*
X107460952Y-193067526D02*
X107098095Y-193067526D01*
X107098095Y-193067526D02*
X106977142Y-193007050D01*
X106977142Y-193007050D02*
X106916666Y-192946573D01*
X105797857Y-194972526D02*
X105072142Y-194972526D01*
X105434999Y-194972526D02*
X105434999Y-193702526D01*
X105434999Y-193702526D02*
X105314047Y-193883954D01*
X105314047Y-193883954D02*
X105193095Y-194004907D01*
X105193095Y-194004907D02*
X105072142Y-194065383D01*
X107612142Y-193823478D02*
X107672618Y-193763002D01*
X107672618Y-193763002D02*
X107793571Y-193702526D01*
X107793571Y-193702526D02*
X108095952Y-193702526D01*
X108095952Y-193702526D02*
X108216904Y-193763002D01*
X108216904Y-193763002D02*
X108277380Y-193823478D01*
X108277380Y-193823478D02*
X108337857Y-193944430D01*
X108337857Y-193944430D02*
X108337857Y-194065383D01*
X108337857Y-194065383D02*
X108277380Y-194246811D01*
X108277380Y-194246811D02*
X107551666Y-194972526D01*
X107551666Y-194972526D02*
X108337857Y-194972526D01*
D11*
X523900000Y-153210000D02*
X523900000Y-156539000D01*
X523900000Y-165710000D02*
X523900000Y-162381000D01*
X506120000Y-236830000D02*
X506120000Y-233501000D01*
X506120000Y-224330000D02*
X506120000Y-227659000D01*
D12*
X374310460Y-114097000D02*
X372662000Y-114097000D01*
D13*
X373551000Y-113208000D02*
X368725000Y-113208000D01*
X373551000Y-112192000D02*
X373551000Y-113208000D01*
X373551000Y-112192000D02*
X368725000Y-112192000D01*
D12*
X373170000Y-109017000D02*
X373170000Y-106223000D01*
X372662000Y-114097000D02*
X371773000Y-116256000D01*
X371900000Y-114097000D02*
X372662000Y-114097000D01*
X371900000Y-114097000D02*
X371900000Y-110160000D01*
D13*
X371011000Y-115748000D02*
X366185000Y-115748000D01*
X371011000Y-114732000D02*
X371011000Y-115748000D01*
X371011000Y-114732000D02*
X366185000Y-114732000D01*
D12*
X368725000Y-114097000D02*
X371900000Y-114097000D01*
D13*
X368725000Y-112192000D02*
X368725000Y-113208000D01*
D12*
X367455000Y-116256000D02*
X371773000Y-116256000D01*
X366947000Y-101905000D02*
X369233000Y-101905000D01*
D13*
X366185000Y-114732000D02*
X366185000Y-115748000D01*
X364915000Y-115748000D02*
X360089000Y-115748000D01*
X364915000Y-114732000D02*
X364915000Y-115748000D01*
X364915000Y-114732000D02*
X360089000Y-114732000D01*
X362375000Y-113208000D02*
X357549000Y-113208000D01*
X362375000Y-112192000D02*
X362375000Y-113208000D01*
X362375000Y-112192000D02*
X357549000Y-112192000D01*
D12*
X361867000Y-101905000D02*
X364153000Y-101905000D01*
D13*
X360089000Y-114732000D02*
X360089000Y-115748000D01*
D12*
X359454000Y-116256000D02*
X363645000Y-116256000D01*
X359454000Y-116256000D02*
X358438000Y-113970000D01*
X359200000Y-113970000D02*
X362375000Y-113970000D01*
X359200000Y-113970000D02*
X359200000Y-110160000D01*
X358438000Y-113970000D02*
X359200000Y-113970000D01*
X357930000Y-109017000D02*
X357930000Y-106223000D01*
D13*
X357549000Y-112192000D02*
X357549000Y-113208000D01*
D12*
X356789540Y-113970000D02*
X358438000Y-113970000D01*
D11*
X193700000Y-201270000D02*
X193700000Y-197941000D01*
X193700000Y-188770000D02*
X193700000Y-192099000D01*
X503580000Y-224330000D02*
X503580000Y-227659000D01*
X503580000Y-236830000D02*
X503580000Y-233501000D01*
X197510000Y-135430000D02*
X197510000Y-138759000D01*
X197510000Y-147930000D02*
X197510000Y-144601000D01*
X513740000Y-236830000D02*
X513740000Y-233501000D01*
X513740000Y-224330000D02*
X513740000Y-227659000D01*
X231800000Y-117650000D02*
X231800000Y-120979000D01*
X231800000Y-130150000D02*
X231800000Y-126821000D01*
X175920000Y-269850000D02*
X175920000Y-266521000D01*
X175920000Y-257350000D02*
X175920000Y-260679000D01*
X193700000Y-147930000D02*
X193700000Y-144601000D01*
X193700000Y-135430000D02*
X193700000Y-138759000D01*
X201320000Y-257350000D02*
X201320000Y-260679000D01*
X201320000Y-269850000D02*
X201320000Y-266521000D01*
X186080000Y-188770000D02*
X186080000Y-190829000D01*
X186080000Y-201270000D02*
X186080000Y-199211000D01*
X135280000Y-236830000D02*
X135280000Y-234771000D01*
X135280000Y-224330000D02*
X135280000Y-226389000D01*
X165760000Y-257350000D02*
X165760000Y-259409000D01*
X165760000Y-269850000D02*
X165760000Y-267791000D01*
X168300000Y-269850000D02*
X168300000Y-266521000D01*
X168300000Y-257350000D02*
X168300000Y-260679000D01*
X175920000Y-135430000D02*
X175920000Y-138759000D01*
X175920000Y-147930000D02*
X175920000Y-144601000D01*
D14*
X517890560Y-225815937D02*
G75*
G03*
X516594961Y-227112900I929441J-2224063D01*
G01*
X519749440Y-230264064D02*
G75*
G03*
X521045040Y-228967100I-929440J2224064D01*
G01*
X516595937Y-228969440D02*
G75*
G03*
X517892900Y-230265039I2224063J929441D01*
G01*
D11*
X560630000Y-214070000D02*
X557301000Y-214070000D01*
X548130000Y-214070000D02*
X551459000Y-214070000D01*
X120040000Y-224330000D02*
X120040000Y-227659000D01*
X120040000Y-236830000D02*
X120040000Y-233501000D01*
D15*
X113436000Y-230580000D02*
G75*
G03*
X113436000Y-230580000I-3556000J0D01*
G01*
D11*
X560630000Y-211530000D02*
X557301000Y-211530000D01*
X548130000Y-211530000D02*
X551459000Y-211530000D01*
X186080000Y-147930000D02*
X186080000Y-144601000D01*
X186080000Y-135430000D02*
X186080000Y-138759000D01*
X371500000Y-132690000D02*
X371500000Y-129361000D01*
X371500000Y-120190000D02*
X371500000Y-123519000D01*
X117400000Y-186130000D02*
X114071000Y-186130000D01*
X104900000Y-186130000D02*
X108229000Y-186130000D01*
X548130000Y-206450000D02*
X551459000Y-206450000D01*
X560630000Y-206450000D02*
X557301000Y-206450000D01*
X309270000Y-259890000D02*
X309270000Y-263219000D01*
X309270000Y-272390000D02*
X309270000Y-269061000D01*
D16*
X409688900Y-115869920D02*
X405688400Y-115869920D01*
X409688900Y-99870460D02*
X409688900Y-115869920D01*
D10*
X409439980Y-115618460D02*
X389440020Y-115618460D01*
X409439980Y-100121920D02*
X409439980Y-115618460D01*
D16*
X405688400Y-116349980D02*
X400669360Y-116349980D01*
X405688400Y-115869920D02*
X405688400Y-116349980D01*
X400669360Y-118849340D02*
X398210640Y-118849340D01*
X400669360Y-116349980D02*
X400669360Y-118849340D01*
X398210640Y-118849340D02*
X398210640Y-116349980D01*
X398210640Y-116349980D02*
X393191600Y-116349980D01*
X393191600Y-116349980D02*
X393191600Y-115869920D01*
X393191600Y-115869920D02*
X389191100Y-115869920D01*
D10*
X389440020Y-115618460D02*
X389440020Y-100121920D01*
X389440020Y-100121920D02*
X409439980Y-100121920D01*
D16*
X389191100Y-115869920D02*
X389191100Y-99870460D01*
X389191100Y-99870460D02*
X409688900Y-99870460D01*
D17*
X388777080Y-112712700D02*
G75*
G03*
X388777080Y-112712700I-99060J0D01*
G01*
D13*
X531774000Y-110184000D02*
X531266000Y-110184000D01*
X531774000Y-109676000D02*
X531774000Y-110184000D01*
X531774000Y-109676000D02*
X531266000Y-109676000D01*
X531774000Y-107644000D02*
X531266000Y-107644000D01*
X531774000Y-107136000D02*
X531774000Y-107644000D01*
X531774000Y-107136000D02*
X531266000Y-107136000D01*
X531266000Y-109676000D02*
X531266000Y-110184000D01*
X531266000Y-107136000D02*
X531266000Y-107644000D01*
X529234000Y-110184000D02*
X528723460Y-110184000D01*
X529234000Y-109676000D02*
X529234000Y-110184000D01*
X529234000Y-109676000D02*
X528723460Y-109676000D01*
X529234000Y-107644000D02*
X528723460Y-107644000D01*
X529234000Y-107136000D02*
X529234000Y-107644000D01*
X529234000Y-107136000D02*
X528723460Y-107136000D01*
X528723460Y-109676000D02*
X528723460Y-110184000D01*
X528723460Y-107136000D02*
X528723460Y-107644000D01*
X526694000Y-110184000D02*
X526186000Y-110184000D01*
X526694000Y-109676000D02*
X526694000Y-110184000D01*
X526694000Y-109676000D02*
X526186000Y-109676000D01*
X526694000Y-107644000D02*
X526186000Y-107644000D01*
X526694000Y-107136000D02*
X526694000Y-107644000D01*
X526694000Y-107136000D02*
X526186000Y-107136000D01*
X526186000Y-109676000D02*
X526186000Y-110184000D01*
X526186000Y-107136000D02*
X526186000Y-107644000D01*
X524154000Y-110184000D02*
X523646000Y-110184000D01*
X524154000Y-109676000D02*
X524154000Y-110184000D01*
X524154000Y-109676000D02*
X523646000Y-109676000D01*
X524154000Y-107644000D02*
X523646000Y-107644000D01*
X524154000Y-107136000D02*
X524154000Y-107644000D01*
X524154000Y-107136000D02*
X523646000Y-107136000D01*
X523646000Y-109676000D02*
X523646000Y-110184000D01*
X523646000Y-107136000D02*
X523646000Y-107644000D01*
X521614000Y-110184000D02*
X521106000Y-110184000D01*
X521614000Y-109676000D02*
X521614000Y-110184000D01*
X521614000Y-109676000D02*
X521106000Y-109676000D01*
X521614000Y-107644000D02*
X521106000Y-107644000D01*
X521614000Y-107136000D02*
X521614000Y-107644000D01*
X521614000Y-107136000D02*
X521106000Y-107136000D01*
X521106000Y-109676000D02*
X521106000Y-110184000D01*
X521106000Y-107136000D02*
X521106000Y-107644000D01*
X519074000Y-110184000D02*
X518566000Y-110184000D01*
X519074000Y-109676000D02*
X519074000Y-110184000D01*
X519074000Y-109676000D02*
X518566000Y-109676000D01*
X519074000Y-107644000D02*
X518566000Y-107644000D01*
X519074000Y-107136000D02*
X519074000Y-107644000D01*
X519074000Y-107136000D02*
X518566000Y-107136000D01*
X518566000Y-109676000D02*
X518566000Y-110184000D01*
X518566000Y-107136000D02*
X518566000Y-107644000D01*
X516534000Y-110184000D02*
X516026000Y-110184000D01*
X516534000Y-109676000D02*
X516534000Y-110184000D01*
X516534000Y-109676000D02*
X516026000Y-109676000D01*
X516534000Y-107644000D02*
X516026000Y-107644000D01*
X516534000Y-107136000D02*
X516534000Y-107644000D01*
X516534000Y-107136000D02*
X516026000Y-107136000D01*
X516026000Y-109676000D02*
X516026000Y-110184000D01*
X516026000Y-107136000D02*
X516026000Y-107644000D01*
X513994000Y-110184000D02*
X513486000Y-110184000D01*
X513994000Y-109676000D02*
X513994000Y-110184000D01*
X513994000Y-109676000D02*
X513486000Y-109676000D01*
X513994000Y-107644000D02*
X513486000Y-107644000D01*
X513994000Y-107136000D02*
X513994000Y-107644000D01*
X513994000Y-107136000D02*
X513486000Y-107136000D01*
X513486000Y-109676000D02*
X513486000Y-110184000D01*
X513486000Y-107136000D02*
X513486000Y-107644000D01*
X511454000Y-110184000D02*
X510946000Y-110184000D01*
X511454000Y-109676000D02*
X511454000Y-110184000D01*
X511454000Y-109676000D02*
X510946000Y-109676000D01*
X511454000Y-107644000D02*
X510946000Y-107644000D01*
X511454000Y-107136000D02*
X511454000Y-107644000D01*
X511454000Y-107136000D02*
X510946000Y-107136000D01*
X510946000Y-109676000D02*
X510946000Y-110184000D01*
X510946000Y-107136000D02*
X510946000Y-107644000D01*
X508914000Y-110184000D02*
X508406000Y-110184000D01*
X508914000Y-109676000D02*
X508914000Y-110184000D01*
X508914000Y-109676000D02*
X508406000Y-109676000D01*
X508914000Y-107644000D02*
X508406000Y-107644000D01*
X508914000Y-107136000D02*
X508914000Y-107644000D01*
X508914000Y-107136000D02*
X508406000Y-107136000D01*
X508406000Y-109676000D02*
X508406000Y-110184000D01*
X508406000Y-107136000D02*
X508406000Y-107644000D01*
X506374000Y-110184000D02*
X505866000Y-110184000D01*
X506374000Y-109676000D02*
X506374000Y-110184000D01*
X506374000Y-109676000D02*
X505866000Y-109676000D01*
X506374000Y-107644000D02*
X505866000Y-107644000D01*
X506374000Y-107136000D02*
X506374000Y-107644000D01*
X506374000Y-107136000D02*
X505866000Y-107136000D01*
X505866000Y-109676000D02*
X505866000Y-110184000D01*
X505866000Y-107136000D02*
X505866000Y-107644000D01*
X503834000Y-110184000D02*
X503326000Y-110184000D01*
X503834000Y-109676000D02*
X503834000Y-110184000D01*
X503834000Y-109676000D02*
X503326000Y-109676000D01*
X503834000Y-107644000D02*
X503326000Y-107644000D01*
X503834000Y-107136000D02*
X503834000Y-107644000D01*
X503834000Y-107136000D02*
X503326000Y-107136000D01*
X503326000Y-109676000D02*
X503326000Y-110184000D01*
X503326000Y-107136000D02*
X503326000Y-107644000D01*
X501294000Y-110184000D02*
X500786000Y-110184000D01*
X501294000Y-109676000D02*
X501294000Y-110184000D01*
X501294000Y-109676000D02*
X500786000Y-109676000D01*
X501294000Y-107644000D02*
X500786000Y-107644000D01*
X501294000Y-107136000D02*
X501294000Y-107644000D01*
X501294000Y-107136000D02*
X500786000Y-107136000D01*
X500786000Y-109676000D02*
X500786000Y-110184000D01*
X500786000Y-107136000D02*
X500786000Y-107644000D01*
X498754000Y-110184000D02*
X498246000Y-110184000D01*
X498754000Y-109676000D02*
X498754000Y-110184000D01*
X498754000Y-109676000D02*
X498246000Y-109676000D01*
X498754000Y-107644000D02*
X498246000Y-107644000D01*
X498754000Y-107136000D02*
X498754000Y-107644000D01*
X498754000Y-107136000D02*
X498246000Y-107136000D01*
X498246000Y-109676000D02*
X498246000Y-110184000D01*
X498246000Y-107136000D02*
X498246000Y-107644000D01*
X496214000Y-110184000D02*
X495706000Y-110184000D01*
X496214000Y-109676000D02*
X496214000Y-110184000D01*
X496214000Y-109676000D02*
X495706000Y-109676000D01*
X496214000Y-107644000D02*
X495706000Y-107644000D01*
X496214000Y-107136000D02*
X496214000Y-107644000D01*
X496214000Y-107136000D02*
X495706000Y-107136000D01*
X495706000Y-109676000D02*
X495706000Y-110184000D01*
X495706000Y-107136000D02*
X495706000Y-107644000D01*
X493676540Y-110184000D02*
X493166000Y-110184000D01*
X493676540Y-109676000D02*
X493676540Y-110184000D01*
X493676540Y-109676000D02*
X493166000Y-109676000D01*
X493676540Y-107644000D02*
X493166000Y-107644000D01*
X493676540Y-107136000D02*
X493676540Y-107644000D01*
X493676540Y-107136000D02*
X493166000Y-107136000D01*
X493166000Y-109676000D02*
X493166000Y-110184000D01*
X493166000Y-107136000D02*
X493166000Y-107644000D01*
X491134000Y-110184000D02*
X490626000Y-110184000D01*
X491134000Y-109676000D02*
X491134000Y-110184000D01*
X491134000Y-109676000D02*
X490626000Y-109676000D01*
X491134000Y-107644000D02*
X490626000Y-107644000D01*
X491134000Y-107136000D02*
X491134000Y-107644000D01*
X491134000Y-107136000D02*
X490626000Y-107136000D01*
X490626000Y-109676000D02*
X490626000Y-110184000D01*
X490626000Y-107136000D02*
X490626000Y-107644000D01*
D11*
X224080000Y-242010000D02*
X220751000Y-242010000D01*
X211580000Y-242010000D02*
X214909000Y-242010000D01*
X311810000Y-272390000D02*
X311810000Y-269061000D01*
X311810000Y-259890000D02*
X311810000Y-263219000D01*
X501040000Y-165710000D02*
X501040000Y-162381000D01*
X501040000Y-153210000D02*
X501040000Y-156539000D01*
X181000000Y-257350000D02*
X181000000Y-260679000D01*
X181000000Y-269850000D02*
X181000000Y-266521000D01*
X196240000Y-201270000D02*
X196240000Y-197941000D01*
X196240000Y-188770000D02*
X196240000Y-192099000D01*
X503580000Y-165710000D02*
X503580000Y-162381000D01*
X503580000Y-153210000D02*
X503580000Y-156539000D01*
X163220000Y-269850000D02*
X163220000Y-266521000D01*
X163220000Y-257350000D02*
X163220000Y-260679000D01*
X269900000Y-259890000D02*
X269900000Y-263219000D01*
X269900000Y-272390000D02*
X269900000Y-269061000D01*
X526440000Y-153210000D02*
X526440000Y-156539000D01*
X526440000Y-165710000D02*
X526440000Y-162381000D01*
X424840000Y-143485000D02*
X424840000Y-140156000D01*
X424840000Y-130985000D02*
X424840000Y-134314000D01*
X125120000Y-224330000D02*
X125120000Y-227659000D01*
X125120000Y-236830000D02*
X125120000Y-233501000D01*
X506120000Y-153210000D02*
X506120000Y-155269000D01*
X506120000Y-165710000D02*
X506120000Y-163651000D01*
X501040000Y-236830000D02*
X501040000Y-233501000D01*
X501040000Y-224330000D02*
X501040000Y-227659000D01*
X548130000Y-208990000D02*
X551459000Y-208990000D01*
X560630000Y-208990000D02*
X557301000Y-208990000D01*
D13*
X546125000Y-206450000D02*
X546125000Y-219150000D01*
X531520000Y-206450000D02*
X546125000Y-206450000D01*
X531520000Y-206450000D02*
X531520000Y-219150000D01*
D12*
X539775000Y-207720000D02*
X538505000Y-207720000D01*
D18*
X539140000Y-208736000D02*
X539140000Y-207720000D01*
X533298000Y-210260000D02*
X531520000Y-210260000D01*
X533298000Y-215340000D02*
X531520000Y-215340000D01*
X539140000Y-216610000D02*
X539140000Y-217245000D01*
X539140000Y-217372000D02*
X539140000Y-217880000D01*
D12*
X539140000Y-217880000D02*
X539902000Y-217880000D01*
X539140000Y-217880000D02*
X538378000Y-217880000D01*
D13*
X531520000Y-219150000D02*
X546125000Y-219150000D01*
D11*
X382295000Y-132690000D02*
X382295000Y-129361000D01*
X382295000Y-120190000D02*
X382295000Y-123519000D01*
X173380000Y-269850000D02*
X173380000Y-266521000D01*
X173380000Y-257350000D02*
X173380000Y-260679000D01*
X295200000Y-168350000D02*
X291871000Y-168350000D01*
X282700000Y-168350000D02*
X286029000Y-168350000D01*
X181000000Y-147930000D02*
X181000000Y-144601000D01*
X181000000Y-135430000D02*
X181000000Y-138759000D01*
D13*
X531774000Y-117804000D02*
X531266000Y-117804000D01*
X531774000Y-117296000D02*
X531774000Y-117804000D01*
X531774000Y-117296000D02*
X531266000Y-117296000D01*
X531774000Y-115264000D02*
X531266000Y-115264000D01*
X531774000Y-114756000D02*
X531774000Y-115264000D01*
X531774000Y-114756000D02*
X531266000Y-114756000D01*
X531266000Y-117296000D02*
X531266000Y-117804000D01*
X531266000Y-114756000D02*
X531266000Y-115264000D01*
X529234000Y-117804000D02*
X528723460Y-117804000D01*
X529234000Y-117296000D02*
X529234000Y-117804000D01*
X529234000Y-117296000D02*
X528723460Y-117296000D01*
X529234000Y-115264000D02*
X528723460Y-115264000D01*
X529234000Y-114756000D02*
X529234000Y-115264000D01*
X529234000Y-114756000D02*
X528723460Y-114756000D01*
X528723460Y-117296000D02*
X528723460Y-117804000D01*
X528723460Y-114756000D02*
X528723460Y-115264000D01*
X526694000Y-117804000D02*
X526186000Y-117804000D01*
X526694000Y-117296000D02*
X526694000Y-117804000D01*
X526694000Y-117296000D02*
X526186000Y-117296000D01*
X526694000Y-115264000D02*
X526186000Y-115264000D01*
X526694000Y-114756000D02*
X526694000Y-115264000D01*
X526694000Y-114756000D02*
X526186000Y-114756000D01*
X526186000Y-117296000D02*
X526186000Y-117804000D01*
X526186000Y-114756000D02*
X526186000Y-115264000D01*
X524154000Y-117804000D02*
X523646000Y-117804000D01*
X524154000Y-117296000D02*
X524154000Y-117804000D01*
X524154000Y-117296000D02*
X523646000Y-117296000D01*
X524154000Y-115264000D02*
X523646000Y-115264000D01*
X524154000Y-114756000D02*
X524154000Y-115264000D01*
X524154000Y-114756000D02*
X523646000Y-114756000D01*
X523646000Y-117296000D02*
X523646000Y-117804000D01*
X523646000Y-114756000D02*
X523646000Y-115264000D01*
X521614000Y-117804000D02*
X521106000Y-117804000D01*
X521614000Y-117296000D02*
X521614000Y-117804000D01*
X521614000Y-117296000D02*
X521106000Y-117296000D01*
X521614000Y-115264000D02*
X521106000Y-115264000D01*
X521614000Y-114756000D02*
X521614000Y-115264000D01*
X521614000Y-114756000D02*
X521106000Y-114756000D01*
X521106000Y-117296000D02*
X521106000Y-117804000D01*
X521106000Y-114756000D02*
X521106000Y-115264000D01*
X519074000Y-117804000D02*
X518566000Y-117804000D01*
X519074000Y-117296000D02*
X519074000Y-117804000D01*
X519074000Y-117296000D02*
X518566000Y-117296000D01*
X519074000Y-115264000D02*
X518566000Y-115264000D01*
X519074000Y-114756000D02*
X519074000Y-115264000D01*
X519074000Y-114756000D02*
X518566000Y-114756000D01*
X518566000Y-117296000D02*
X518566000Y-117804000D01*
X518566000Y-114756000D02*
X518566000Y-115264000D01*
X516534000Y-117804000D02*
X516026000Y-117804000D01*
X516534000Y-117296000D02*
X516534000Y-117804000D01*
X516534000Y-117296000D02*
X516026000Y-117296000D01*
X516534000Y-115264000D02*
X516026000Y-115264000D01*
X516534000Y-114756000D02*
X516534000Y-115264000D01*
X516534000Y-114756000D02*
X516026000Y-114756000D01*
X516026000Y-117296000D02*
X516026000Y-117804000D01*
X516026000Y-114756000D02*
X516026000Y-115264000D01*
X513994000Y-117804000D02*
X513486000Y-117804000D01*
X513994000Y-117296000D02*
X513994000Y-117804000D01*
X513994000Y-117296000D02*
X513486000Y-117296000D01*
X513994000Y-115264000D02*
X513486000Y-115264000D01*
X513994000Y-114756000D02*
X513994000Y-115264000D01*
X513994000Y-114756000D02*
X513486000Y-114756000D01*
X513486000Y-117296000D02*
X513486000Y-117804000D01*
X513486000Y-114756000D02*
X513486000Y-115264000D01*
X511454000Y-117804000D02*
X510946000Y-117804000D01*
X511454000Y-117296000D02*
X511454000Y-117804000D01*
X511454000Y-117296000D02*
X510946000Y-117296000D01*
X511454000Y-115264000D02*
X510946000Y-115264000D01*
X511454000Y-114756000D02*
X511454000Y-115264000D01*
X511454000Y-114756000D02*
X510946000Y-114756000D01*
X510946000Y-117296000D02*
X510946000Y-117804000D01*
X510946000Y-114756000D02*
X510946000Y-115264000D01*
X508914000Y-117804000D02*
X508406000Y-117804000D01*
X508914000Y-117296000D02*
X508914000Y-117804000D01*
X508914000Y-117296000D02*
X508406000Y-117296000D01*
X508914000Y-115264000D02*
X508406000Y-115264000D01*
X508914000Y-114756000D02*
X508914000Y-115264000D01*
X508914000Y-114756000D02*
X508406000Y-114756000D01*
X508406000Y-117296000D02*
X508406000Y-117804000D01*
X508406000Y-114756000D02*
X508406000Y-115264000D01*
X506374000Y-117804000D02*
X505866000Y-117804000D01*
X506374000Y-117296000D02*
X506374000Y-117804000D01*
X506374000Y-117296000D02*
X505866000Y-117296000D01*
X506374000Y-115264000D02*
X505866000Y-115264000D01*
X506374000Y-114756000D02*
X506374000Y-115264000D01*
X506374000Y-114756000D02*
X505866000Y-114756000D01*
X505866000Y-117296000D02*
X505866000Y-117804000D01*
X505866000Y-114756000D02*
X505866000Y-115264000D01*
X503834000Y-117804000D02*
X503326000Y-117804000D01*
X503834000Y-117296000D02*
X503834000Y-117804000D01*
X503834000Y-117296000D02*
X503326000Y-117296000D01*
X503834000Y-115264000D02*
X503326000Y-115264000D01*
X503834000Y-114756000D02*
X503834000Y-115264000D01*
X503834000Y-114756000D02*
X503326000Y-114756000D01*
X503326000Y-117296000D02*
X503326000Y-117804000D01*
X503326000Y-114756000D02*
X503326000Y-115264000D01*
X501294000Y-117804000D02*
X500786000Y-117804000D01*
X501294000Y-117296000D02*
X501294000Y-117804000D01*
X501294000Y-117296000D02*
X500786000Y-117296000D01*
X501294000Y-115264000D02*
X500786000Y-115264000D01*
X501294000Y-114756000D02*
X501294000Y-115264000D01*
X501294000Y-114756000D02*
X500786000Y-114756000D01*
X500786000Y-117296000D02*
X500786000Y-117804000D01*
X500786000Y-114756000D02*
X500786000Y-115264000D01*
X498754000Y-117804000D02*
X498246000Y-117804000D01*
X498754000Y-117296000D02*
X498754000Y-117804000D01*
X498754000Y-117296000D02*
X498246000Y-117296000D01*
X498754000Y-115264000D02*
X498246000Y-115264000D01*
X498754000Y-114756000D02*
X498754000Y-115264000D01*
X498754000Y-114756000D02*
X498246000Y-114756000D01*
X498246000Y-117296000D02*
X498246000Y-117804000D01*
X498246000Y-114756000D02*
X498246000Y-115264000D01*
X496214000Y-117804000D02*
X495706000Y-117804000D01*
X496214000Y-117296000D02*
X496214000Y-117804000D01*
X496214000Y-117296000D02*
X495706000Y-117296000D01*
X496214000Y-115264000D02*
X495706000Y-115264000D01*
X496214000Y-114756000D02*
X496214000Y-115264000D01*
X496214000Y-114756000D02*
X495706000Y-114756000D01*
X495706000Y-117296000D02*
X495706000Y-117804000D01*
X495706000Y-114756000D02*
X495706000Y-115264000D01*
X493676540Y-117804000D02*
X493166000Y-117804000D01*
X493676540Y-117296000D02*
X493676540Y-117804000D01*
X493676540Y-117296000D02*
X493166000Y-117296000D01*
X493676540Y-115264000D02*
X493166000Y-115264000D01*
X493676540Y-114756000D02*
X493676540Y-115264000D01*
X493676540Y-114756000D02*
X493166000Y-114756000D01*
X493166000Y-117296000D02*
X493166000Y-117804000D01*
X493166000Y-114756000D02*
X493166000Y-115264000D01*
X491134000Y-117804000D02*
X490626000Y-117804000D01*
X491134000Y-117296000D02*
X491134000Y-117804000D01*
X491134000Y-117296000D02*
X490626000Y-117296000D01*
X491134000Y-115264000D02*
X490626000Y-115264000D01*
X491134000Y-114756000D02*
X491134000Y-115264000D01*
X491134000Y-114756000D02*
X490626000Y-114756000D01*
X490626000Y-117296000D02*
X490626000Y-117804000D01*
X490626000Y-114756000D02*
X490626000Y-115264000D01*
D14*
X123509440Y-195974063D02*
G75*
G03*
X124805039Y-194677100I-929441J2224063D01*
G01*
X121650560Y-191525936D02*
G75*
G03*
X120354960Y-192822900I929440J-2224064D01*
G01*
X124804063Y-192820560D02*
G75*
G03*
X123507100Y-191524961I-2224063J-929441D01*
G01*
D11*
X498500000Y-224330000D02*
X498500000Y-227659000D01*
X498500000Y-236830000D02*
X498500000Y-233501000D01*
X374040000Y-120190000D02*
X374040000Y-123519000D01*
X374040000Y-132690000D02*
X374040000Y-129361000D01*
X366420000Y-132690000D02*
X366420000Y-129361000D01*
X366420000Y-120190000D02*
X366420000Y-123519000D01*
X511200000Y-236830000D02*
X511200000Y-233501000D01*
X511200000Y-224330000D02*
X511200000Y-227659000D01*
X117500000Y-236830000D02*
X117500000Y-233501000D01*
X117500000Y-224330000D02*
X117500000Y-227659000D01*
X198780000Y-257350000D02*
X198780000Y-260679000D01*
X198780000Y-269850000D02*
X198780000Y-266521000D01*
X513740000Y-153210000D02*
X513740000Y-156539000D01*
X513740000Y-165710000D02*
X513740000Y-162381000D01*
X191160000Y-269850000D02*
X191160000Y-266521000D01*
X191160000Y-257350000D02*
X191160000Y-260679000D01*
X183540000Y-188770000D02*
X183540000Y-192099000D01*
X183540000Y-201270000D02*
X183540000Y-197941000D01*
D13*
X472795200Y-168654800D02*
X472795200Y-168045200D01*
X473404800Y-168654800D02*
X472795200Y-168654800D01*
X473404800Y-168654800D02*
X473404800Y-168045200D01*
X475335200Y-168654800D02*
X475335200Y-168045200D01*
X475944800Y-168654800D02*
X475335200Y-168654800D01*
X475944800Y-168654800D02*
X475944800Y-168045200D01*
X473404800Y-168045200D02*
X472795200Y-168045200D01*
X475944800Y-168045200D02*
X475335200Y-168045200D01*
D11*
X526440000Y-219050000D02*
X526440000Y-215721000D01*
X526440000Y-206550000D02*
X526440000Y-209879000D01*
X193700000Y-269850000D02*
X193700000Y-266521000D01*
X193700000Y-257350000D02*
X193700000Y-260679000D01*
D19*
X115810000Y-210680000D02*
X126810000Y-210680000D01*
X126810000Y-199680000D02*
X115810000Y-199680000D01*
D20*
X124056927Y-204053618D02*
G75*
G03*
X118437261Y-205804840I-2731687J-1126382D01*
G01*
X118563073Y-206306382D02*
G75*
G03*
X124182739Y-204555160I2731687J1126382D01*
G01*
D14*
X526099440Y-176289063D02*
G75*
G03*
X527395039Y-174992100I-929441J2224063D01*
G01*
X524240560Y-171840936D02*
G75*
G03*
X522944960Y-173137900I929440J-2224064D01*
G01*
X527394063Y-173135560D02*
G75*
G03*
X526097100Y-171839961I-2224063J-929441D01*
G01*
D11*
X407160000Y-193750000D02*
X410489000Y-193750000D01*
X419660000Y-193750000D02*
X416331000Y-193750000D01*
X130200000Y-236830000D02*
X130200000Y-233501000D01*
X130200000Y-224330000D02*
X130200000Y-227659000D01*
X361340000Y-132690000D02*
X361340000Y-129361000D01*
X361340000Y-120190000D02*
X361340000Y-123519000D01*
X117400000Y-188670000D02*
X114071000Y-188670000D01*
X104900000Y-188670000D02*
X108229000Y-188670000D01*
D12*
X269138000Y-137108000D02*
X270662000Y-137108000D01*
X269138000Y-138632000D02*
X269138000Y-137108000D01*
X270662000Y-137108000D02*
X270662000Y-138632000D01*
X270662000Y-138632000D02*
X269138000Y-138632000D01*
X278282000Y-137870000D02*
X278917000Y-137870000D01*
X278917000Y-137489000D02*
X281203000Y-137489000D01*
X278917000Y-137870000D02*
X278917000Y-137489000D01*
X278917000Y-138251000D02*
X278917000Y-137870000D01*
X281203000Y-137489000D02*
X281203000Y-137870000D01*
X281203000Y-137870000D02*
X281203000Y-138251000D01*
X281203000Y-138251000D02*
X278917000Y-138251000D01*
X281838000Y-137870000D02*
X281203000Y-137870000D01*
D11*
X178460000Y-147930000D02*
X178460000Y-144601000D01*
X178460000Y-135430000D02*
X178460000Y-138759000D01*
X170840000Y-257350000D02*
X170840000Y-259409000D01*
X170840000Y-269850000D02*
X170840000Y-267791000D01*
X183540000Y-257350000D02*
X183540000Y-260679000D01*
X183540000Y-269850000D02*
X183540000Y-266521000D01*
X226720000Y-117650000D02*
X226720000Y-120979000D01*
X226720000Y-130150000D02*
X226720000Y-126821000D01*
X196240000Y-257350000D02*
X196240000Y-259409000D01*
X196240000Y-269850000D02*
X196240000Y-267791000D01*
X521360000Y-153210000D02*
X521360000Y-156539000D01*
X521360000Y-165710000D02*
X521360000Y-162381000D01*
X353720000Y-120190000D02*
X353720000Y-123519000D01*
X353720000Y-132690000D02*
X353720000Y-129361000D01*
X436170000Y-193750000D02*
X432841000Y-193750000D01*
X423670000Y-193750000D02*
X426999000Y-193750000D01*
X132740000Y-224330000D02*
X132740000Y-227659000D01*
X132740000Y-236830000D02*
X132740000Y-233501000D01*
X386740000Y-272390000D02*
X386740000Y-269061000D01*
X386740000Y-259890000D02*
X386740000Y-263219000D01*
X191160000Y-135430000D02*
X191160000Y-138759000D01*
X191160000Y-147930000D02*
X191160000Y-144601000D01*
X511200000Y-165710000D02*
X511200000Y-162381000D01*
X511200000Y-153210000D02*
X511200000Y-156539000D01*
X127660000Y-224330000D02*
X127660000Y-227659000D01*
X127660000Y-236830000D02*
X127660000Y-233501000D01*
X363880000Y-132690000D02*
X363880000Y-129361000D01*
X363880000Y-120190000D02*
X363880000Y-123519000D01*
X188620000Y-269850000D02*
X188620000Y-266521000D01*
X188620000Y-257350000D02*
X188620000Y-260679000D01*
D14*
X104480937Y-194679440D02*
G75*
G03*
X105777900Y-195975039I2224063J929441D01*
G01*
X108929064Y-192820560D02*
G75*
G03*
X107632100Y-191524960I-2224064J-929440D01*
G01*
X107634440Y-195974063D02*
G75*
G03*
X108930039Y-194677100I-929441J2224063D01*
G01*
D11*
X104900000Y-183590000D02*
X108229000Y-183590000D01*
X117400000Y-183590000D02*
X114071000Y-183590000D01*
X435100000Y-239470000D02*
X438429000Y-239470000D01*
X447600000Y-239470000D02*
X444271000Y-239470000D01*
X188620000Y-135430000D02*
X188620000Y-138759000D01*
X188620000Y-147930000D02*
X188620000Y-144601000D01*
X224080000Y-239470000D02*
X220751000Y-239470000D01*
X211580000Y-239470000D02*
X214909000Y-239470000D01*
X186080000Y-257350000D02*
X186080000Y-259409000D01*
X186080000Y-269850000D02*
X186080000Y-267791000D01*
X229260000Y-117650000D02*
X229260000Y-120979000D01*
X229260000Y-130150000D02*
X229260000Y-126821000D01*
X508660000Y-236830000D02*
X508660000Y-233501000D01*
X508660000Y-224330000D02*
X508660000Y-227659000D01*
X475740000Y-220420000D02*
X479069000Y-220420000D01*
X488240000Y-220420000D02*
X484911000Y-220420000D01*
D13*
X100990000Y-198195000D02*
X113690000Y-198195000D01*
X100990000Y-212800000D02*
X100990000Y-198195000D01*
X100990000Y-212800000D02*
X113690000Y-212800000D01*
D12*
X102260000Y-204545000D02*
X102260000Y-205815000D01*
D18*
X103276000Y-205180000D02*
X102260000Y-205180000D01*
X104800000Y-211022000D02*
X104800000Y-212800000D01*
X109880000Y-211022000D02*
X109880000Y-212800000D01*
X111150000Y-205180000D02*
X111785000Y-205180000D01*
X111912000Y-205180000D02*
X112420000Y-205180000D01*
D12*
X112420000Y-205180000D02*
X112420000Y-204418000D01*
X112420000Y-205180000D02*
X112420000Y-205942000D01*
D13*
X113690000Y-212800000D02*
X113690000Y-198195000D01*
D11*
X178460000Y-257350000D02*
X178460000Y-260679000D01*
X178460000Y-269850000D02*
X178460000Y-266521000D01*
D13*
X381990200Y-115949800D02*
X381990200Y-115340200D01*
X382599800Y-115949800D02*
X381990200Y-115949800D01*
X382599800Y-115949800D02*
X382599800Y-115340200D01*
X384530200Y-115949800D02*
X384530200Y-115340200D01*
X385139800Y-115949800D02*
X384530200Y-115949800D01*
X385139800Y-115949800D02*
X385139800Y-115340200D01*
X382599800Y-115340200D02*
X381990200Y-115340200D01*
X385139800Y-115340200D02*
X384530200Y-115340200D01*
D11*
X178460000Y-188770000D02*
X178460000Y-190829000D01*
X178460000Y-201270000D02*
X178460000Y-199211000D01*
X188620000Y-201270000D02*
X188620000Y-197941000D01*
X188620000Y-188770000D02*
X188620000Y-192099000D01*
X183540000Y-147930000D02*
X183540000Y-144601000D01*
X183540000Y-135430000D02*
X183540000Y-138759000D01*
X384200000Y-272390000D02*
X384200000Y-269061000D01*
X384200000Y-259890000D02*
X384200000Y-263219000D01*
X246505000Y-221055000D02*
X249834000Y-221055000D01*
X259005000Y-221055000D02*
X255676000Y-221055000D01*
X508660000Y-153210000D02*
X508660000Y-156539000D01*
X508660000Y-165710000D02*
X508660000Y-162381000D01*
X224180000Y-117650000D02*
X224180000Y-120979000D01*
X224180000Y-130150000D02*
X224180000Y-126821000D01*
M02*
