%TF.GenerationSoftware,KiCad,Pcbnew,7.0.1-0*%
%TF.CreationDate,2023-07-16T16:48:42+03:00*%
%TF.ProjectId,HC2000-Modulator,48433230-3030-42d4-9d6f-64756c61746f,rev?*%
%TF.SameCoordinates,Original*%
%TF.FileFunction,Legend,Top*%
%TF.FilePolarity,Positive*%
%FSLAX46Y46*%
G04 Gerber Fmt 4.6, Leading zero omitted, Abs format (unit mm)*
G04 Created by KiCad (PCBNEW 7.0.1-0) date 2023-07-16 16:48:42*
%MOMM*%
%LPD*%
G01*
G04 APERTURE LIST*
%ADD10C,0.150000*%
%ADD11C,0.050000*%
%ADD12C,0.120000*%
%ADD13C,0.152400*%
%ADD14C,0.076200*%
%ADD15C,2.000000*%
%ADD16O,2.000000X2.000000*%
%ADD17C,1.600000*%
%ADD18O,1.600000X1.600000*%
%ADD19R,1.500000X1.500000*%
%ADD20C,1.500000*%
%ADD21C,1.400000*%
%ADD22O,1.400000X1.400000*%
%ADD23C,1.524000*%
%ADD24C,1.800000*%
%ADD25C,2.400000*%
%ADD26O,2.400000X2.400000*%
%ADD27C,2.340000*%
G04 APERTURE END LIST*
D10*
X275510619Y-172702666D02*
X275510619Y-173178856D01*
X275510619Y-173178856D02*
X274510619Y-173178856D01*
X274510619Y-172464570D02*
X274510619Y-171845523D01*
X274510619Y-171845523D02*
X274891571Y-172178856D01*
X274891571Y-172178856D02*
X274891571Y-172035999D01*
X274891571Y-172035999D02*
X274939190Y-171940761D01*
X274939190Y-171940761D02*
X274986809Y-171893142D01*
X274986809Y-171893142D02*
X275082047Y-171845523D01*
X275082047Y-171845523D02*
X275320142Y-171845523D01*
X275320142Y-171845523D02*
X275415380Y-171893142D01*
X275415380Y-171893142D02*
X275463000Y-171940761D01*
X275463000Y-171940761D02*
X275510619Y-172035999D01*
X275510619Y-172035999D02*
X275510619Y-172321713D01*
X275510619Y-172321713D02*
X275463000Y-172416951D01*
X275463000Y-172416951D02*
X275415380Y-172464570D01*
X271384333Y-158422619D02*
X270908143Y-158422619D01*
X270908143Y-158422619D02*
X270908143Y-157422619D01*
X272241476Y-158422619D02*
X271670048Y-158422619D01*
X271955762Y-158422619D02*
X271955762Y-157422619D01*
X271955762Y-157422619D02*
X271860524Y-157565476D01*
X271860524Y-157565476D02*
X271765286Y-157660714D01*
X271765286Y-157660714D02*
X271670048Y-157708333D01*
X264196619Y-187135904D02*
X264196619Y-186564476D01*
X265196619Y-186850190D02*
X264196619Y-186850190D01*
X265196619Y-185707333D02*
X265196619Y-186278761D01*
X265196619Y-185993047D02*
X264196619Y-185993047D01*
X264196619Y-185993047D02*
X264339476Y-186088285D01*
X264339476Y-186088285D02*
X264434714Y-186183523D01*
X264434714Y-186183523D02*
X264482333Y-186278761D01*
X270188000Y-184669523D02*
X270235619Y-184764761D01*
X270235619Y-184764761D02*
X270235619Y-184955237D01*
X270235619Y-184955237D02*
X270188000Y-185050475D01*
X270188000Y-185050475D02*
X270092761Y-185098094D01*
X270092761Y-185098094D02*
X269711809Y-185098094D01*
X269711809Y-185098094D02*
X269616571Y-185050475D01*
X269616571Y-185050475D02*
X269568952Y-184955237D01*
X269568952Y-184955237D02*
X269568952Y-184764761D01*
X269568952Y-184764761D02*
X269616571Y-184669523D01*
X269616571Y-184669523D02*
X269711809Y-184621904D01*
X269711809Y-184621904D02*
X269807047Y-184621904D01*
X269807047Y-184621904D02*
X269902285Y-185098094D01*
X270188000Y-187669904D02*
X270235619Y-187765142D01*
X270235619Y-187765142D02*
X270235619Y-187955618D01*
X270235619Y-187955618D02*
X270188000Y-188050856D01*
X270188000Y-188050856D02*
X270140380Y-188098475D01*
X270140380Y-188098475D02*
X270045142Y-188146094D01*
X270045142Y-188146094D02*
X269759428Y-188146094D01*
X269759428Y-188146094D02*
X269664190Y-188098475D01*
X269664190Y-188098475D02*
X269616571Y-188050856D01*
X269616571Y-188050856D02*
X269568952Y-187955618D01*
X269568952Y-187955618D02*
X269568952Y-187765142D01*
X269568952Y-187765142D02*
X269616571Y-187669904D01*
X268203619Y-186598285D02*
X267203619Y-186598285D01*
X267584571Y-186598285D02*
X267536952Y-186503047D01*
X267536952Y-186503047D02*
X267536952Y-186312571D01*
X267536952Y-186312571D02*
X267584571Y-186217333D01*
X267584571Y-186217333D02*
X267632190Y-186169714D01*
X267632190Y-186169714D02*
X267727428Y-186122095D01*
X267727428Y-186122095D02*
X268013142Y-186122095D01*
X268013142Y-186122095D02*
X268108380Y-186169714D01*
X268108380Y-186169714D02*
X268156000Y-186217333D01*
X268156000Y-186217333D02*
X268203619Y-186312571D01*
X268203619Y-186312571D02*
X268203619Y-186503047D01*
X268203619Y-186503047D02*
X268156000Y-186598285D01*
X268971333Y-180481619D02*
X268638000Y-180005428D01*
X268399905Y-180481619D02*
X268399905Y-179481619D01*
X268399905Y-179481619D02*
X268780857Y-179481619D01*
X268780857Y-179481619D02*
X268876095Y-179529238D01*
X268876095Y-179529238D02*
X268923714Y-179576857D01*
X268923714Y-179576857D02*
X268971333Y-179672095D01*
X268971333Y-179672095D02*
X268971333Y-179814952D01*
X268971333Y-179814952D02*
X268923714Y-179910190D01*
X268923714Y-179910190D02*
X268876095Y-179957809D01*
X268876095Y-179957809D02*
X268780857Y-180005428D01*
X268780857Y-180005428D02*
X268399905Y-180005428D01*
X269352286Y-179576857D02*
X269399905Y-179529238D01*
X269399905Y-179529238D02*
X269495143Y-179481619D01*
X269495143Y-179481619D02*
X269733238Y-179481619D01*
X269733238Y-179481619D02*
X269828476Y-179529238D01*
X269828476Y-179529238D02*
X269876095Y-179576857D01*
X269876095Y-179576857D02*
X269923714Y-179672095D01*
X269923714Y-179672095D02*
X269923714Y-179767333D01*
X269923714Y-179767333D02*
X269876095Y-179910190D01*
X269876095Y-179910190D02*
X269304667Y-180481619D01*
X269304667Y-180481619D02*
X269923714Y-180481619D01*
X278886619Y-177406666D02*
X278410428Y-177739999D01*
X278886619Y-177978094D02*
X277886619Y-177978094D01*
X277886619Y-177978094D02*
X277886619Y-177597142D01*
X277886619Y-177597142D02*
X277934238Y-177501904D01*
X277934238Y-177501904D02*
X277981857Y-177454285D01*
X277981857Y-177454285D02*
X278077095Y-177406666D01*
X278077095Y-177406666D02*
X278219952Y-177406666D01*
X278219952Y-177406666D02*
X278315190Y-177454285D01*
X278315190Y-177454285D02*
X278362809Y-177501904D01*
X278362809Y-177501904D02*
X278410428Y-177597142D01*
X278410428Y-177597142D02*
X278410428Y-177978094D01*
X277886619Y-177073332D02*
X277886619Y-176406666D01*
X277886619Y-176406666D02*
X278886619Y-176835237D01*
X272760619Y-165849666D02*
X272284428Y-166182999D01*
X272760619Y-166421094D02*
X271760619Y-166421094D01*
X271760619Y-166421094D02*
X271760619Y-166040142D01*
X271760619Y-166040142D02*
X271808238Y-165944904D01*
X271808238Y-165944904D02*
X271855857Y-165897285D01*
X271855857Y-165897285D02*
X271951095Y-165849666D01*
X271951095Y-165849666D02*
X272093952Y-165849666D01*
X272093952Y-165849666D02*
X272189190Y-165897285D01*
X272189190Y-165897285D02*
X272236809Y-165944904D01*
X272236809Y-165944904D02*
X272284428Y-166040142D01*
X272284428Y-166040142D02*
X272284428Y-166421094D01*
X272189190Y-165278237D02*
X272141571Y-165373475D01*
X272141571Y-165373475D02*
X272093952Y-165421094D01*
X272093952Y-165421094D02*
X271998714Y-165468713D01*
X271998714Y-165468713D02*
X271951095Y-165468713D01*
X271951095Y-165468713D02*
X271855857Y-165421094D01*
X271855857Y-165421094D02*
X271808238Y-165373475D01*
X271808238Y-165373475D02*
X271760619Y-165278237D01*
X271760619Y-165278237D02*
X271760619Y-165087761D01*
X271760619Y-165087761D02*
X271808238Y-164992523D01*
X271808238Y-164992523D02*
X271855857Y-164944904D01*
X271855857Y-164944904D02*
X271951095Y-164897285D01*
X271951095Y-164897285D02*
X271998714Y-164897285D01*
X271998714Y-164897285D02*
X272093952Y-164944904D01*
X272093952Y-164944904D02*
X272141571Y-164992523D01*
X272141571Y-164992523D02*
X272189190Y-165087761D01*
X272189190Y-165087761D02*
X272189190Y-165278237D01*
X272189190Y-165278237D02*
X272236809Y-165373475D01*
X272236809Y-165373475D02*
X272284428Y-165421094D01*
X272284428Y-165421094D02*
X272379666Y-165468713D01*
X272379666Y-165468713D02*
X272570142Y-165468713D01*
X272570142Y-165468713D02*
X272665380Y-165421094D01*
X272665380Y-165421094D02*
X272713000Y-165373475D01*
X272713000Y-165373475D02*
X272760619Y-165278237D01*
X272760619Y-165278237D02*
X272760619Y-165087761D01*
X272760619Y-165087761D02*
X272713000Y-164992523D01*
X272713000Y-164992523D02*
X272665380Y-164944904D01*
X272665380Y-164944904D02*
X272570142Y-164897285D01*
X272570142Y-164897285D02*
X272379666Y-164897285D01*
X272379666Y-164897285D02*
X272284428Y-164944904D01*
X272284428Y-164944904D02*
X272236809Y-164992523D01*
X272236809Y-164992523D02*
X272189190Y-165087761D01*
D11*
X281697651Y-173997606D02*
X281683025Y-174037791D01*
X281683025Y-174037791D02*
X281613589Y-174103533D01*
X281613589Y-174103533D02*
X281558779Y-174129091D01*
X281558779Y-174129091D02*
X281463785Y-174140024D01*
X281463785Y-174140024D02*
X281383417Y-174110772D01*
X281383417Y-174110772D02*
X281330453Y-174068741D01*
X281330453Y-174068741D02*
X281251932Y-173971900D01*
X281251932Y-173971900D02*
X281213594Y-173889685D01*
X281213594Y-173889685D02*
X281189883Y-173767286D01*
X281189883Y-173767286D02*
X281191729Y-173699697D01*
X281191729Y-173699697D02*
X281220981Y-173619329D01*
X281220981Y-173619329D02*
X281290417Y-173553586D01*
X281290417Y-173553586D02*
X281345227Y-173528028D01*
X281345227Y-173528028D02*
X281440221Y-173517095D01*
X281440221Y-173517095D02*
X281480405Y-173531721D01*
X281948137Y-173246886D02*
X281838517Y-173298003D01*
X281838517Y-173298003D02*
X281796486Y-173350966D01*
X281796486Y-173350966D02*
X281781861Y-173391150D01*
X281781861Y-173391150D02*
X281765388Y-173498924D01*
X281765388Y-173498924D02*
X281789100Y-173621323D01*
X281789100Y-173621323D02*
X281891333Y-173840563D01*
X281891333Y-173840563D02*
X281944296Y-173882594D01*
X281944296Y-173882594D02*
X281984481Y-173897220D01*
X281984481Y-173897220D02*
X282052070Y-173899066D01*
X282052070Y-173899066D02*
X282161690Y-173847950D01*
X282161690Y-173847950D02*
X282203721Y-173794986D01*
X282203721Y-173794986D02*
X282218347Y-173754802D01*
X282218347Y-173754802D02*
X282220193Y-173687213D01*
X282220193Y-173687213D02*
X282156297Y-173550188D01*
X282156297Y-173550188D02*
X282103334Y-173508157D01*
X282103334Y-173508157D02*
X282063150Y-173493531D01*
X282063150Y-173493531D02*
X281995561Y-173491684D01*
X281995561Y-173491684D02*
X281885941Y-173542801D01*
X281885941Y-173542801D02*
X281843910Y-173595764D01*
X281843910Y-173595764D02*
X281829284Y-173635949D01*
X281829284Y-173635949D02*
X281827437Y-173703538D01*
X279531286Y-181790833D02*
X279561525Y-181821071D01*
X279561525Y-181821071D02*
X279591763Y-181911785D01*
X279591763Y-181911785D02*
X279591763Y-181972261D01*
X279591763Y-181972261D02*
X279561525Y-182062976D01*
X279561525Y-182062976D02*
X279501048Y-182123452D01*
X279501048Y-182123452D02*
X279440572Y-182153690D01*
X279440572Y-182153690D02*
X279319620Y-182183928D01*
X279319620Y-182183928D02*
X279228905Y-182183928D01*
X279228905Y-182183928D02*
X279107953Y-182153690D01*
X279107953Y-182153690D02*
X279047477Y-182123452D01*
X279047477Y-182123452D02*
X278987001Y-182062976D01*
X278987001Y-182062976D02*
X278956763Y-181972261D01*
X278956763Y-181972261D02*
X278956763Y-181911785D01*
X278956763Y-181911785D02*
X278987001Y-181821071D01*
X278987001Y-181821071D02*
X279017239Y-181790833D01*
X278956763Y-181216309D02*
X278956763Y-181518690D01*
X278956763Y-181518690D02*
X279259144Y-181548928D01*
X279259144Y-181548928D02*
X279228905Y-181518690D01*
X279228905Y-181518690D02*
X279198667Y-181458214D01*
X279198667Y-181458214D02*
X279198667Y-181307023D01*
X279198667Y-181307023D02*
X279228905Y-181246547D01*
X279228905Y-181246547D02*
X279259144Y-181216309D01*
X279259144Y-181216309D02*
X279319620Y-181186071D01*
X279319620Y-181186071D02*
X279470810Y-181186071D01*
X279470810Y-181186071D02*
X279531286Y-181216309D01*
X279531286Y-181216309D02*
X279561525Y-181246547D01*
X279561525Y-181246547D02*
X279591763Y-181307023D01*
X279591763Y-181307023D02*
X279591763Y-181458214D01*
X279591763Y-181458214D02*
X279561525Y-181518690D01*
X279561525Y-181518690D02*
X279531286Y-181548928D01*
D10*
X268463333Y-189879619D02*
X268130000Y-189403428D01*
X267891905Y-189879619D02*
X267891905Y-188879619D01*
X267891905Y-188879619D02*
X268272857Y-188879619D01*
X268272857Y-188879619D02*
X268368095Y-188927238D01*
X268368095Y-188927238D02*
X268415714Y-188974857D01*
X268415714Y-188974857D02*
X268463333Y-189070095D01*
X268463333Y-189070095D02*
X268463333Y-189212952D01*
X268463333Y-189212952D02*
X268415714Y-189308190D01*
X268415714Y-189308190D02*
X268368095Y-189355809D01*
X268368095Y-189355809D02*
X268272857Y-189403428D01*
X268272857Y-189403428D02*
X267891905Y-189403428D01*
X268939524Y-189879619D02*
X269130000Y-189879619D01*
X269130000Y-189879619D02*
X269225238Y-189832000D01*
X269225238Y-189832000D02*
X269272857Y-189784380D01*
X269272857Y-189784380D02*
X269368095Y-189641523D01*
X269368095Y-189641523D02*
X269415714Y-189451047D01*
X269415714Y-189451047D02*
X269415714Y-189070095D01*
X269415714Y-189070095D02*
X269368095Y-188974857D01*
X269368095Y-188974857D02*
X269320476Y-188927238D01*
X269320476Y-188927238D02*
X269225238Y-188879619D01*
X269225238Y-188879619D02*
X269034762Y-188879619D01*
X269034762Y-188879619D02*
X268939524Y-188927238D01*
X268939524Y-188927238D02*
X268891905Y-188974857D01*
X268891905Y-188974857D02*
X268844286Y-189070095D01*
X268844286Y-189070095D02*
X268844286Y-189308190D01*
X268844286Y-189308190D02*
X268891905Y-189403428D01*
X268891905Y-189403428D02*
X268939524Y-189451047D01*
X268939524Y-189451047D02*
X269034762Y-189498666D01*
X269034762Y-189498666D02*
X269225238Y-189498666D01*
X269225238Y-189498666D02*
X269320476Y-189451047D01*
X269320476Y-189451047D02*
X269368095Y-189403428D01*
X269368095Y-189403428D02*
X269415714Y-189308190D01*
D11*
X281732166Y-160963286D02*
X281701928Y-160993525D01*
X281701928Y-160993525D02*
X281611214Y-161023763D01*
X281611214Y-161023763D02*
X281550738Y-161023763D01*
X281550738Y-161023763D02*
X281460023Y-160993525D01*
X281460023Y-160993525D02*
X281399547Y-160933048D01*
X281399547Y-160933048D02*
X281369309Y-160872572D01*
X281369309Y-160872572D02*
X281339071Y-160751620D01*
X281339071Y-160751620D02*
X281339071Y-160660905D01*
X281339071Y-160660905D02*
X281369309Y-160539953D01*
X281369309Y-160539953D02*
X281399547Y-160479477D01*
X281399547Y-160479477D02*
X281460023Y-160419001D01*
X281460023Y-160419001D02*
X281550738Y-160388763D01*
X281550738Y-160388763D02*
X281611214Y-160388763D01*
X281611214Y-160388763D02*
X281701928Y-160419001D01*
X281701928Y-160419001D02*
X281732166Y-160449239D01*
X282034547Y-161023763D02*
X282155499Y-161023763D01*
X282155499Y-161023763D02*
X282215976Y-160993525D01*
X282215976Y-160993525D02*
X282246214Y-160963286D01*
X282246214Y-160963286D02*
X282306690Y-160872572D01*
X282306690Y-160872572D02*
X282336928Y-160751620D01*
X282336928Y-160751620D02*
X282336928Y-160509715D01*
X282336928Y-160509715D02*
X282306690Y-160449239D01*
X282306690Y-160449239D02*
X282276452Y-160419001D01*
X282276452Y-160419001D02*
X282215976Y-160388763D01*
X282215976Y-160388763D02*
X282095023Y-160388763D01*
X282095023Y-160388763D02*
X282034547Y-160419001D01*
X282034547Y-160419001D02*
X282004309Y-160449239D01*
X282004309Y-160449239D02*
X281974071Y-160509715D01*
X281974071Y-160509715D02*
X281974071Y-160660905D01*
X281974071Y-160660905D02*
X282004309Y-160721382D01*
X282004309Y-160721382D02*
X282034547Y-160751620D01*
X282034547Y-160751620D02*
X282095023Y-160781858D01*
X282095023Y-160781858D02*
X282215976Y-160781858D01*
X282215976Y-160781858D02*
X282276452Y-160751620D01*
X282276452Y-160751620D02*
X282306690Y-160721382D01*
X282306690Y-160721382D02*
X282336928Y-160660905D01*
X284865286Y-165788833D02*
X284895525Y-165819071D01*
X284895525Y-165819071D02*
X284925763Y-165909785D01*
X284925763Y-165909785D02*
X284925763Y-165970261D01*
X284925763Y-165970261D02*
X284895525Y-166060976D01*
X284895525Y-166060976D02*
X284835048Y-166121452D01*
X284835048Y-166121452D02*
X284774572Y-166151690D01*
X284774572Y-166151690D02*
X284653620Y-166181928D01*
X284653620Y-166181928D02*
X284562905Y-166181928D01*
X284562905Y-166181928D02*
X284441953Y-166151690D01*
X284441953Y-166151690D02*
X284381477Y-166121452D01*
X284381477Y-166121452D02*
X284321001Y-166060976D01*
X284321001Y-166060976D02*
X284290763Y-165970261D01*
X284290763Y-165970261D02*
X284290763Y-165909785D01*
X284290763Y-165909785D02*
X284321001Y-165819071D01*
X284321001Y-165819071D02*
X284351239Y-165788833D01*
X284562905Y-165425976D02*
X284532667Y-165486452D01*
X284532667Y-165486452D02*
X284502429Y-165516690D01*
X284502429Y-165516690D02*
X284441953Y-165546928D01*
X284441953Y-165546928D02*
X284411715Y-165546928D01*
X284411715Y-165546928D02*
X284351239Y-165516690D01*
X284351239Y-165516690D02*
X284321001Y-165486452D01*
X284321001Y-165486452D02*
X284290763Y-165425976D01*
X284290763Y-165425976D02*
X284290763Y-165305023D01*
X284290763Y-165305023D02*
X284321001Y-165244547D01*
X284321001Y-165244547D02*
X284351239Y-165214309D01*
X284351239Y-165214309D02*
X284411715Y-165184071D01*
X284411715Y-165184071D02*
X284441953Y-165184071D01*
X284441953Y-165184071D02*
X284502429Y-165214309D01*
X284502429Y-165214309D02*
X284532667Y-165244547D01*
X284532667Y-165244547D02*
X284562905Y-165305023D01*
X284562905Y-165305023D02*
X284562905Y-165425976D01*
X284562905Y-165425976D02*
X284593144Y-165486452D01*
X284593144Y-165486452D02*
X284623382Y-165516690D01*
X284623382Y-165516690D02*
X284683858Y-165546928D01*
X284683858Y-165546928D02*
X284804810Y-165546928D01*
X284804810Y-165546928D02*
X284865286Y-165516690D01*
X284865286Y-165516690D02*
X284895525Y-165486452D01*
X284895525Y-165486452D02*
X284925763Y-165425976D01*
X284925763Y-165425976D02*
X284925763Y-165305023D01*
X284925763Y-165305023D02*
X284895525Y-165244547D01*
X284895525Y-165244547D02*
X284865286Y-165214309D01*
X284865286Y-165214309D02*
X284804810Y-165184071D01*
X284804810Y-165184071D02*
X284683858Y-165184071D01*
X284683858Y-165184071D02*
X284623382Y-165214309D01*
X284623382Y-165214309D02*
X284593144Y-165244547D01*
X284593144Y-165244547D02*
X284562905Y-165305023D01*
D10*
X284211333Y-188542619D02*
X283878000Y-188066428D01*
X283639905Y-188542619D02*
X283639905Y-187542619D01*
X283639905Y-187542619D02*
X284020857Y-187542619D01*
X284020857Y-187542619D02*
X284116095Y-187590238D01*
X284116095Y-187590238D02*
X284163714Y-187637857D01*
X284163714Y-187637857D02*
X284211333Y-187733095D01*
X284211333Y-187733095D02*
X284211333Y-187875952D01*
X284211333Y-187875952D02*
X284163714Y-187971190D01*
X284163714Y-187971190D02*
X284116095Y-188018809D01*
X284116095Y-188018809D02*
X284020857Y-188066428D01*
X284020857Y-188066428D02*
X283639905Y-188066428D01*
X285116095Y-187542619D02*
X284639905Y-187542619D01*
X284639905Y-187542619D02*
X284592286Y-188018809D01*
X284592286Y-188018809D02*
X284639905Y-187971190D01*
X284639905Y-187971190D02*
X284735143Y-187923571D01*
X284735143Y-187923571D02*
X284973238Y-187923571D01*
X284973238Y-187923571D02*
X285068476Y-187971190D01*
X285068476Y-187971190D02*
X285116095Y-188018809D01*
X285116095Y-188018809D02*
X285163714Y-188114047D01*
X285163714Y-188114047D02*
X285163714Y-188352142D01*
X285163714Y-188352142D02*
X285116095Y-188447380D01*
X285116095Y-188447380D02*
X285068476Y-188495000D01*
X285068476Y-188495000D02*
X284973238Y-188542619D01*
X284973238Y-188542619D02*
X284735143Y-188542619D01*
X284735143Y-188542619D02*
X284639905Y-188495000D01*
X284639905Y-188495000D02*
X284592286Y-188447380D01*
X278526095Y-173780619D02*
X279097523Y-173780619D01*
X278811809Y-174780619D02*
X278811809Y-173780619D01*
X279383238Y-173875857D02*
X279430857Y-173828238D01*
X279430857Y-173828238D02*
X279526095Y-173780619D01*
X279526095Y-173780619D02*
X279764190Y-173780619D01*
X279764190Y-173780619D02*
X279859428Y-173828238D01*
X279859428Y-173828238D02*
X279907047Y-173875857D01*
X279907047Y-173875857D02*
X279954666Y-173971095D01*
X279954666Y-173971095D02*
X279954666Y-174066333D01*
X279954666Y-174066333D02*
X279907047Y-174209190D01*
X279907047Y-174209190D02*
X279335619Y-174780619D01*
X279335619Y-174780619D02*
X279954666Y-174780619D01*
X279488476Y-171940000D02*
X279393238Y-171987619D01*
X279393238Y-171987619D02*
X279202762Y-171987619D01*
X279202762Y-171987619D02*
X279107524Y-171940000D01*
X279107524Y-171940000D02*
X279059905Y-171844761D01*
X279059905Y-171844761D02*
X279059905Y-171463809D01*
X279059905Y-171463809D02*
X279107524Y-171368571D01*
X279107524Y-171368571D02*
X279202762Y-171320952D01*
X279202762Y-171320952D02*
X279393238Y-171320952D01*
X279393238Y-171320952D02*
X279488476Y-171368571D01*
X279488476Y-171368571D02*
X279536095Y-171463809D01*
X279536095Y-171463809D02*
X279536095Y-171559047D01*
X279536095Y-171559047D02*
X279059905Y-171654285D01*
X281187095Y-169527000D02*
X281091857Y-169574619D01*
X281091857Y-169574619D02*
X280901381Y-169574619D01*
X280901381Y-169574619D02*
X280806143Y-169527000D01*
X280806143Y-169527000D02*
X280758524Y-169479380D01*
X280758524Y-169479380D02*
X280710905Y-169384142D01*
X280710905Y-169384142D02*
X280710905Y-169098428D01*
X280710905Y-169098428D02*
X280758524Y-169003190D01*
X280758524Y-169003190D02*
X280806143Y-168955571D01*
X280806143Y-168955571D02*
X280901381Y-168907952D01*
X280901381Y-168907952D02*
X281091857Y-168907952D01*
X281091857Y-168907952D02*
X281187095Y-168955571D01*
X277432714Y-169574619D02*
X277432714Y-168574619D01*
X277432714Y-168955571D02*
X277527952Y-168907952D01*
X277527952Y-168907952D02*
X277718428Y-168907952D01*
X277718428Y-168907952D02*
X277813666Y-168955571D01*
X277813666Y-168955571D02*
X277861285Y-169003190D01*
X277861285Y-169003190D02*
X277908904Y-169098428D01*
X277908904Y-169098428D02*
X277908904Y-169384142D01*
X277908904Y-169384142D02*
X277861285Y-169479380D01*
X277861285Y-169479380D02*
X277813666Y-169527000D01*
X277813666Y-169527000D02*
X277718428Y-169574619D01*
X277718428Y-169574619D02*
X277527952Y-169574619D01*
X277527952Y-169574619D02*
X277432714Y-169527000D01*
X275988142Y-188542619D02*
X275654809Y-188066428D01*
X275416714Y-188542619D02*
X275416714Y-187542619D01*
X275416714Y-187542619D02*
X275797666Y-187542619D01*
X275797666Y-187542619D02*
X275892904Y-187590238D01*
X275892904Y-187590238D02*
X275940523Y-187637857D01*
X275940523Y-187637857D02*
X275988142Y-187733095D01*
X275988142Y-187733095D02*
X275988142Y-187875952D01*
X275988142Y-187875952D02*
X275940523Y-187971190D01*
X275940523Y-187971190D02*
X275892904Y-188018809D01*
X275892904Y-188018809D02*
X275797666Y-188066428D01*
X275797666Y-188066428D02*
X275416714Y-188066428D01*
X276940523Y-188542619D02*
X276369095Y-188542619D01*
X276654809Y-188542619D02*
X276654809Y-187542619D01*
X276654809Y-187542619D02*
X276559571Y-187685476D01*
X276559571Y-187685476D02*
X276464333Y-187780714D01*
X276464333Y-187780714D02*
X276369095Y-187828333D01*
X277559571Y-187542619D02*
X277654809Y-187542619D01*
X277654809Y-187542619D02*
X277750047Y-187590238D01*
X277750047Y-187590238D02*
X277797666Y-187637857D01*
X277797666Y-187637857D02*
X277845285Y-187733095D01*
X277845285Y-187733095D02*
X277892904Y-187923571D01*
X277892904Y-187923571D02*
X277892904Y-188161666D01*
X277892904Y-188161666D02*
X277845285Y-188352142D01*
X277845285Y-188352142D02*
X277797666Y-188447380D01*
X277797666Y-188447380D02*
X277750047Y-188495000D01*
X277750047Y-188495000D02*
X277654809Y-188542619D01*
X277654809Y-188542619D02*
X277559571Y-188542619D01*
X277559571Y-188542619D02*
X277464333Y-188495000D01*
X277464333Y-188495000D02*
X277416714Y-188447380D01*
X277416714Y-188447380D02*
X277369095Y-188352142D01*
X277369095Y-188352142D02*
X277321476Y-188161666D01*
X277321476Y-188161666D02*
X277321476Y-187923571D01*
X277321476Y-187923571D02*
X277369095Y-187733095D01*
X277369095Y-187733095D02*
X277416714Y-187637857D01*
X277416714Y-187637857D02*
X277464333Y-187590238D01*
X277464333Y-187590238D02*
X277559571Y-187542619D01*
D11*
X274578286Y-175186833D02*
X274608525Y-175217071D01*
X274608525Y-175217071D02*
X274638763Y-175307785D01*
X274638763Y-175307785D02*
X274638763Y-175368261D01*
X274638763Y-175368261D02*
X274608525Y-175458976D01*
X274608525Y-175458976D02*
X274548048Y-175519452D01*
X274548048Y-175519452D02*
X274487572Y-175549690D01*
X274487572Y-175549690D02*
X274366620Y-175579928D01*
X274366620Y-175579928D02*
X274275905Y-175579928D01*
X274275905Y-175579928D02*
X274154953Y-175549690D01*
X274154953Y-175549690D02*
X274094477Y-175519452D01*
X274094477Y-175519452D02*
X274034001Y-175458976D01*
X274034001Y-175458976D02*
X274003763Y-175368261D01*
X274003763Y-175368261D02*
X274003763Y-175307785D01*
X274003763Y-175307785D02*
X274034001Y-175217071D01*
X274034001Y-175217071D02*
X274064239Y-175186833D01*
X274003763Y-174975166D02*
X274003763Y-174551833D01*
X274003763Y-174551833D02*
X274638763Y-174823976D01*
D10*
X278680619Y-165722666D02*
X278680619Y-166198856D01*
X278680619Y-166198856D02*
X277680619Y-166198856D01*
X277775857Y-165436951D02*
X277728238Y-165389332D01*
X277728238Y-165389332D02*
X277680619Y-165294094D01*
X277680619Y-165294094D02*
X277680619Y-165055999D01*
X277680619Y-165055999D02*
X277728238Y-164960761D01*
X277728238Y-164960761D02*
X277775857Y-164913142D01*
X277775857Y-164913142D02*
X277871095Y-164865523D01*
X277871095Y-164865523D02*
X277966333Y-164865523D01*
X277966333Y-164865523D02*
X278109190Y-164913142D01*
X278109190Y-164913142D02*
X278680619Y-165484570D01*
X278680619Y-165484570D02*
X278680619Y-164865523D01*
X262034143Y-163315619D02*
X262034143Y-162315619D01*
X262510333Y-162648952D02*
X262510333Y-163315619D01*
X262510333Y-162744190D02*
X262557952Y-162696571D01*
X262557952Y-162696571D02*
X262653190Y-162648952D01*
X262653190Y-162648952D02*
X262796047Y-162648952D01*
X262796047Y-162648952D02*
X262891285Y-162696571D01*
X262891285Y-162696571D02*
X262938904Y-162791809D01*
X262938904Y-162791809D02*
X262938904Y-163315619D01*
X263415095Y-162648952D02*
X263415095Y-163648952D01*
X263415095Y-162696571D02*
X263510333Y-162648952D01*
X263510333Y-162648952D02*
X263700809Y-162648952D01*
X263700809Y-162648952D02*
X263796047Y-162696571D01*
X263796047Y-162696571D02*
X263843666Y-162744190D01*
X263843666Y-162744190D02*
X263891285Y-162839428D01*
X263891285Y-162839428D02*
X263891285Y-163125142D01*
X263891285Y-163125142D02*
X263843666Y-163220380D01*
X263843666Y-163220380D02*
X263796047Y-163268000D01*
X263796047Y-163268000D02*
X263700809Y-163315619D01*
X263700809Y-163315619D02*
X263510333Y-163315619D01*
X263510333Y-163315619D02*
X263415095Y-163268000D01*
X264748428Y-162648952D02*
X264748428Y-163315619D01*
X264319857Y-162648952D02*
X264319857Y-163172761D01*
X264319857Y-163172761D02*
X264367476Y-163268000D01*
X264367476Y-163268000D02*
X264462714Y-163315619D01*
X264462714Y-163315619D02*
X264605571Y-163315619D01*
X264605571Y-163315619D02*
X264700809Y-163268000D01*
X264700809Y-163268000D02*
X264748428Y-163220380D01*
X265081762Y-162648952D02*
X265462714Y-162648952D01*
X265224619Y-162315619D02*
X265224619Y-163172761D01*
X265224619Y-163172761D02*
X265272238Y-163268000D01*
X265272238Y-163268000D02*
X265367476Y-163315619D01*
X265367476Y-163315619D02*
X265462714Y-163315619D01*
X271638333Y-188542619D02*
X271305000Y-188066428D01*
X271066905Y-188542619D02*
X271066905Y-187542619D01*
X271066905Y-187542619D02*
X271447857Y-187542619D01*
X271447857Y-187542619D02*
X271543095Y-187590238D01*
X271543095Y-187590238D02*
X271590714Y-187637857D01*
X271590714Y-187637857D02*
X271638333Y-187733095D01*
X271638333Y-187733095D02*
X271638333Y-187875952D01*
X271638333Y-187875952D02*
X271590714Y-187971190D01*
X271590714Y-187971190D02*
X271543095Y-188018809D01*
X271543095Y-188018809D02*
X271447857Y-188066428D01*
X271447857Y-188066428D02*
X271066905Y-188066428D01*
X272495476Y-187875952D02*
X272495476Y-188542619D01*
X272257381Y-187495000D02*
X272019286Y-188209285D01*
X272019286Y-188209285D02*
X272638333Y-188209285D01*
D11*
X283257115Y-182147297D02*
X283268183Y-182188603D01*
X283268183Y-182188603D02*
X283249013Y-182282283D01*
X283249013Y-182282283D02*
X283218775Y-182334657D01*
X283218775Y-182334657D02*
X283147231Y-182398099D01*
X283147231Y-182398099D02*
X283064619Y-182420235D01*
X283064619Y-182420235D02*
X282997126Y-182416184D01*
X282997126Y-182416184D02*
X282877259Y-182381894D01*
X282877259Y-182381894D02*
X282798698Y-182336537D01*
X282798698Y-182336537D02*
X282709069Y-182249874D01*
X282709069Y-182249874D02*
X282671814Y-182193449D01*
X282671814Y-182193449D02*
X282649679Y-182110837D01*
X282649679Y-182110837D02*
X282668849Y-182017157D01*
X282668849Y-182017157D02*
X282699087Y-181964783D01*
X282699087Y-181964783D02*
X282770631Y-181901341D01*
X282770631Y-181901341D02*
X282811937Y-181890274D01*
X283215015Y-181494504D02*
X283581632Y-181706170D01*
X282929924Y-181504486D02*
X283247133Y-181862206D01*
X283247133Y-181862206D02*
X283443680Y-181521776D01*
X268990286Y-177218833D02*
X269020525Y-177249071D01*
X269020525Y-177249071D02*
X269050763Y-177339785D01*
X269050763Y-177339785D02*
X269050763Y-177400261D01*
X269050763Y-177400261D02*
X269020525Y-177490976D01*
X269020525Y-177490976D02*
X268960048Y-177551452D01*
X268960048Y-177551452D02*
X268899572Y-177581690D01*
X268899572Y-177581690D02*
X268778620Y-177611928D01*
X268778620Y-177611928D02*
X268687905Y-177611928D01*
X268687905Y-177611928D02*
X268566953Y-177581690D01*
X268566953Y-177581690D02*
X268506477Y-177551452D01*
X268506477Y-177551452D02*
X268446001Y-177490976D01*
X268446001Y-177490976D02*
X268415763Y-177400261D01*
X268415763Y-177400261D02*
X268415763Y-177339785D01*
X268415763Y-177339785D02*
X268446001Y-177249071D01*
X268446001Y-177249071D02*
X268476239Y-177218833D01*
X269050763Y-176614071D02*
X269050763Y-176976928D01*
X269050763Y-176795500D02*
X268415763Y-176795500D01*
X268415763Y-176795500D02*
X268506477Y-176855976D01*
X268506477Y-176855976D02*
X268566953Y-176916452D01*
X268566953Y-176916452D02*
X268597191Y-176976928D01*
D10*
X275879095Y-186617619D02*
X276450523Y-186617619D01*
X276164809Y-187617619D02*
X276164809Y-186617619D01*
X276688619Y-186617619D02*
X277307666Y-186617619D01*
X277307666Y-186617619D02*
X276974333Y-186998571D01*
X276974333Y-186998571D02*
X277117190Y-186998571D01*
X277117190Y-186998571D02*
X277212428Y-187046190D01*
X277212428Y-187046190D02*
X277260047Y-187093809D01*
X277260047Y-187093809D02*
X277307666Y-187189047D01*
X277307666Y-187189047D02*
X277307666Y-187427142D01*
X277307666Y-187427142D02*
X277260047Y-187522380D01*
X277260047Y-187522380D02*
X277212428Y-187570000D01*
X277212428Y-187570000D02*
X277117190Y-187617619D01*
X277117190Y-187617619D02*
X276831476Y-187617619D01*
X276831476Y-187617619D02*
X276736238Y-187570000D01*
X276736238Y-187570000D02*
X276688619Y-187522380D01*
X276821476Y-190363000D02*
X276726238Y-190410619D01*
X276726238Y-190410619D02*
X276535762Y-190410619D01*
X276535762Y-190410619D02*
X276440524Y-190363000D01*
X276440524Y-190363000D02*
X276392905Y-190267761D01*
X276392905Y-190267761D02*
X276392905Y-189886809D01*
X276392905Y-189886809D02*
X276440524Y-189791571D01*
X276440524Y-189791571D02*
X276535762Y-189743952D01*
X276535762Y-189743952D02*
X276726238Y-189743952D01*
X276726238Y-189743952D02*
X276821476Y-189791571D01*
X276821476Y-189791571D02*
X276869095Y-189886809D01*
X276869095Y-189886809D02*
X276869095Y-189982047D01*
X276869095Y-189982047D02*
X276392905Y-190077285D01*
X278067714Y-192823619D02*
X278067714Y-191823619D01*
X278067714Y-192204571D02*
X278162952Y-192156952D01*
X278162952Y-192156952D02*
X278353428Y-192156952D01*
X278353428Y-192156952D02*
X278448666Y-192204571D01*
X278448666Y-192204571D02*
X278496285Y-192252190D01*
X278496285Y-192252190D02*
X278543904Y-192347428D01*
X278543904Y-192347428D02*
X278543904Y-192633142D01*
X278543904Y-192633142D02*
X278496285Y-192728380D01*
X278496285Y-192728380D02*
X278448666Y-192776000D01*
X278448666Y-192776000D02*
X278353428Y-192823619D01*
X278353428Y-192823619D02*
X278162952Y-192823619D01*
X278162952Y-192823619D02*
X278067714Y-192776000D01*
X275218095Y-192776000D02*
X275122857Y-192823619D01*
X275122857Y-192823619D02*
X274932381Y-192823619D01*
X274932381Y-192823619D02*
X274837143Y-192776000D01*
X274837143Y-192776000D02*
X274789524Y-192728380D01*
X274789524Y-192728380D02*
X274741905Y-192633142D01*
X274741905Y-192633142D02*
X274741905Y-192347428D01*
X274741905Y-192347428D02*
X274789524Y-192252190D01*
X274789524Y-192252190D02*
X274837143Y-192204571D01*
X274837143Y-192204571D02*
X274932381Y-192156952D01*
X274932381Y-192156952D02*
X275122857Y-192156952D01*
X275122857Y-192156952D02*
X275218095Y-192204571D01*
D11*
X263910286Y-177218833D02*
X263940525Y-177249071D01*
X263940525Y-177249071D02*
X263970763Y-177339785D01*
X263970763Y-177339785D02*
X263970763Y-177400261D01*
X263970763Y-177400261D02*
X263940525Y-177490976D01*
X263940525Y-177490976D02*
X263880048Y-177551452D01*
X263880048Y-177551452D02*
X263819572Y-177581690D01*
X263819572Y-177581690D02*
X263698620Y-177611928D01*
X263698620Y-177611928D02*
X263607905Y-177611928D01*
X263607905Y-177611928D02*
X263486953Y-177581690D01*
X263486953Y-177581690D02*
X263426477Y-177551452D01*
X263426477Y-177551452D02*
X263366001Y-177490976D01*
X263366001Y-177490976D02*
X263335763Y-177400261D01*
X263335763Y-177400261D02*
X263335763Y-177339785D01*
X263335763Y-177339785D02*
X263366001Y-177249071D01*
X263366001Y-177249071D02*
X263396239Y-177218833D01*
X263396239Y-176976928D02*
X263366001Y-176946690D01*
X263366001Y-176946690D02*
X263335763Y-176886214D01*
X263335763Y-176886214D02*
X263335763Y-176735023D01*
X263335763Y-176735023D02*
X263366001Y-176674547D01*
X263366001Y-176674547D02*
X263396239Y-176644309D01*
X263396239Y-176644309D02*
X263456715Y-176614071D01*
X263456715Y-176614071D02*
X263517191Y-176614071D01*
X263517191Y-176614071D02*
X263607905Y-176644309D01*
X263607905Y-176644309D02*
X263970763Y-177007166D01*
X263970763Y-177007166D02*
X263970763Y-176614071D01*
X270183971Y-195903213D02*
X270199296Y-195943136D01*
X270199296Y-195943136D02*
X270190023Y-196038307D01*
X270190023Y-196038307D02*
X270165425Y-196093554D01*
X270165425Y-196093554D02*
X270100904Y-196164127D01*
X270100904Y-196164127D02*
X270021059Y-196194777D01*
X270021059Y-196194777D02*
X269953512Y-196197803D01*
X269953512Y-196197803D02*
X269830718Y-196176231D01*
X269830718Y-196176231D02*
X269747846Y-196139334D01*
X269747846Y-196139334D02*
X269649649Y-196062515D01*
X269649649Y-196062515D02*
X269606701Y-196010293D01*
X269606701Y-196010293D02*
X269576051Y-195930447D01*
X269576051Y-195930447D02*
X269585324Y-195835277D01*
X269585324Y-195835277D02*
X269609922Y-195780029D01*
X269609922Y-195780029D02*
X269674442Y-195709456D01*
X269674442Y-195709456D02*
X269714365Y-195694131D01*
X270485198Y-195375334D02*
X270337610Y-195706820D01*
X270411404Y-195541077D02*
X269831303Y-195282799D01*
X269831303Y-195282799D02*
X269889576Y-195374944D01*
X269889576Y-195374944D02*
X269920226Y-195454789D01*
X269920226Y-195454789D02*
X269923252Y-195522336D01*
X270731176Y-194822856D02*
X270583589Y-195154343D01*
X270657383Y-194988599D02*
X270077281Y-194730322D01*
X270077281Y-194730322D02*
X270135555Y-194822466D01*
X270135555Y-194822466D02*
X270166205Y-194902312D01*
X270166205Y-194902312D02*
X270169231Y-194969858D01*
D10*
X271225618Y-165682619D02*
X270892285Y-165206428D01*
X270654190Y-165682619D02*
X270654190Y-164682619D01*
X270654190Y-164682619D02*
X271035142Y-164682619D01*
X271035142Y-164682619D02*
X271130380Y-164730238D01*
X271130380Y-164730238D02*
X271177999Y-164777857D01*
X271177999Y-164777857D02*
X271225618Y-164873095D01*
X271225618Y-164873095D02*
X271225618Y-165015952D01*
X271225618Y-165015952D02*
X271177999Y-165111190D01*
X271177999Y-165111190D02*
X271130380Y-165158809D01*
X271130380Y-165158809D02*
X271035142Y-165206428D01*
X271035142Y-165206428D02*
X270654190Y-165206428D01*
X271511333Y-165015952D02*
X271892285Y-165015952D01*
X271654190Y-165682619D02*
X271654190Y-164825476D01*
X271654190Y-164825476D02*
X271701809Y-164730238D01*
X271701809Y-164730238D02*
X271797047Y-164682619D01*
X271797047Y-164682619D02*
X271892285Y-164682619D01*
X272749428Y-165682619D02*
X272178000Y-165682619D01*
X272463714Y-165682619D02*
X272463714Y-164682619D01*
X272463714Y-164682619D02*
X272368476Y-164825476D01*
X272368476Y-164825476D02*
X272273238Y-164920714D01*
X272273238Y-164920714D02*
X272178000Y-164968333D01*
D11*
X264889230Y-194871731D02*
X264890722Y-194914468D01*
X264890722Y-194914468D02*
X264850970Y-195001435D01*
X264850970Y-195001435D02*
X264809725Y-195045665D01*
X264809725Y-195045665D02*
X264725743Y-195091386D01*
X264725743Y-195091386D02*
X264640269Y-195094371D01*
X264640269Y-195094371D02*
X264575417Y-195075241D01*
X264575417Y-195075241D02*
X264466336Y-195014867D01*
X264466336Y-195014867D02*
X264399992Y-194953000D01*
X264399992Y-194953000D02*
X264332155Y-194848396D01*
X264332155Y-194848396D02*
X264308548Y-194785036D01*
X264308548Y-194785036D02*
X264305563Y-194699562D01*
X264305563Y-194699562D02*
X264345315Y-194612596D01*
X264345315Y-194612596D02*
X264386560Y-194568366D01*
X264386560Y-194568366D02*
X264470542Y-194522644D01*
X264470542Y-194522644D02*
X264513279Y-194521152D01*
X264613406Y-194325104D02*
X264881496Y-194037612D01*
X264881496Y-194037612D02*
X264914058Y-194357394D01*
X264914058Y-194357394D02*
X264975925Y-194291050D01*
X264975925Y-194291050D02*
X265039284Y-194267443D01*
X265039284Y-194267443D02*
X265082021Y-194265950D01*
X265082021Y-194265950D02*
X265146873Y-194285080D01*
X265146873Y-194285080D02*
X265257447Y-194388192D01*
X265257447Y-194388192D02*
X265281054Y-194451551D01*
X265281054Y-194451551D02*
X265282546Y-194494288D01*
X265282546Y-194494288D02*
X265263416Y-194559140D01*
X265263416Y-194559140D02*
X265139682Y-194691829D01*
X265139682Y-194691829D02*
X265076323Y-194715436D01*
X265076323Y-194715436D02*
X265033586Y-194716928D01*
D10*
X281798333Y-175528619D02*
X281465000Y-175052428D01*
X281226905Y-175528619D02*
X281226905Y-174528619D01*
X281226905Y-174528619D02*
X281607857Y-174528619D01*
X281607857Y-174528619D02*
X281703095Y-174576238D01*
X281703095Y-174576238D02*
X281750714Y-174623857D01*
X281750714Y-174623857D02*
X281798333Y-174719095D01*
X281798333Y-174719095D02*
X281798333Y-174861952D01*
X281798333Y-174861952D02*
X281750714Y-174957190D01*
X281750714Y-174957190D02*
X281703095Y-175004809D01*
X281703095Y-175004809D02*
X281607857Y-175052428D01*
X281607857Y-175052428D02*
X281226905Y-175052428D01*
X282655476Y-174528619D02*
X282465000Y-174528619D01*
X282465000Y-174528619D02*
X282369762Y-174576238D01*
X282369762Y-174576238D02*
X282322143Y-174623857D01*
X282322143Y-174623857D02*
X282226905Y-174766714D01*
X282226905Y-174766714D02*
X282179286Y-174957190D01*
X282179286Y-174957190D02*
X282179286Y-175338142D01*
X282179286Y-175338142D02*
X282226905Y-175433380D01*
X282226905Y-175433380D02*
X282274524Y-175481000D01*
X282274524Y-175481000D02*
X282369762Y-175528619D01*
X282369762Y-175528619D02*
X282560238Y-175528619D01*
X282560238Y-175528619D02*
X282655476Y-175481000D01*
X282655476Y-175481000D02*
X282703095Y-175433380D01*
X282703095Y-175433380D02*
X282750714Y-175338142D01*
X282750714Y-175338142D02*
X282750714Y-175100047D01*
X282750714Y-175100047D02*
X282703095Y-175004809D01*
X282703095Y-175004809D02*
X282655476Y-174957190D01*
X282655476Y-174957190D02*
X282560238Y-174909571D01*
X282560238Y-174909571D02*
X282369762Y-174909571D01*
X282369762Y-174909571D02*
X282274524Y-174957190D01*
X282274524Y-174957190D02*
X282226905Y-175004809D01*
X282226905Y-175004809D02*
X282179286Y-175100047D01*
X266987190Y-201812619D02*
X267177666Y-201812619D01*
X267177666Y-201812619D02*
X267272904Y-201860238D01*
X267272904Y-201860238D02*
X267368142Y-201955476D01*
X267368142Y-201955476D02*
X267415761Y-202145952D01*
X267415761Y-202145952D02*
X267415761Y-202479285D01*
X267415761Y-202479285D02*
X267368142Y-202669761D01*
X267368142Y-202669761D02*
X267272904Y-202765000D01*
X267272904Y-202765000D02*
X267177666Y-202812619D01*
X267177666Y-202812619D02*
X266987190Y-202812619D01*
X266987190Y-202812619D02*
X266891952Y-202765000D01*
X266891952Y-202765000D02*
X266796714Y-202669761D01*
X266796714Y-202669761D02*
X266749095Y-202479285D01*
X266749095Y-202479285D02*
X266749095Y-202145952D01*
X266749095Y-202145952D02*
X266796714Y-201955476D01*
X266796714Y-201955476D02*
X266891952Y-201860238D01*
X266891952Y-201860238D02*
X266987190Y-201812619D01*
X268272904Y-202145952D02*
X268272904Y-202812619D01*
X267844333Y-202145952D02*
X267844333Y-202669761D01*
X267844333Y-202669761D02*
X267891952Y-202765000D01*
X267891952Y-202765000D02*
X267987190Y-202812619D01*
X267987190Y-202812619D02*
X268130047Y-202812619D01*
X268130047Y-202812619D02*
X268225285Y-202765000D01*
X268225285Y-202765000D02*
X268272904Y-202717380D01*
X268606238Y-202145952D02*
X268987190Y-202145952D01*
X268749095Y-201812619D02*
X268749095Y-202669761D01*
X268749095Y-202669761D02*
X268796714Y-202765000D01*
X268796714Y-202765000D02*
X268891952Y-202812619D01*
X268891952Y-202812619D02*
X268987190Y-202812619D01*
X269320524Y-202145952D02*
X269320524Y-203145952D01*
X269320524Y-202193571D02*
X269415762Y-202145952D01*
X269415762Y-202145952D02*
X269606238Y-202145952D01*
X269606238Y-202145952D02*
X269701476Y-202193571D01*
X269701476Y-202193571D02*
X269749095Y-202241190D01*
X269749095Y-202241190D02*
X269796714Y-202336428D01*
X269796714Y-202336428D02*
X269796714Y-202622142D01*
X269796714Y-202622142D02*
X269749095Y-202717380D01*
X269749095Y-202717380D02*
X269701476Y-202765000D01*
X269701476Y-202765000D02*
X269606238Y-202812619D01*
X269606238Y-202812619D02*
X269415762Y-202812619D01*
X269415762Y-202812619D02*
X269320524Y-202765000D01*
X270653857Y-202145952D02*
X270653857Y-202812619D01*
X270225286Y-202145952D02*
X270225286Y-202669761D01*
X270225286Y-202669761D02*
X270272905Y-202765000D01*
X270272905Y-202765000D02*
X270368143Y-202812619D01*
X270368143Y-202812619D02*
X270511000Y-202812619D01*
X270511000Y-202812619D02*
X270606238Y-202765000D01*
X270606238Y-202765000D02*
X270653857Y-202717380D01*
X270987191Y-202145952D02*
X271368143Y-202145952D01*
X271130048Y-201812619D02*
X271130048Y-202669761D01*
X271130048Y-202669761D02*
X271177667Y-202765000D01*
X271177667Y-202765000D02*
X271272905Y-202812619D01*
X271272905Y-202812619D02*
X271368143Y-202812619D01*
X265932619Y-186804666D02*
X265456428Y-187137999D01*
X265932619Y-187376094D02*
X264932619Y-187376094D01*
X264932619Y-187376094D02*
X264932619Y-186995142D01*
X264932619Y-186995142D02*
X264980238Y-186899904D01*
X264980238Y-186899904D02*
X265027857Y-186852285D01*
X265027857Y-186852285D02*
X265123095Y-186804666D01*
X265123095Y-186804666D02*
X265265952Y-186804666D01*
X265265952Y-186804666D02*
X265361190Y-186852285D01*
X265361190Y-186852285D02*
X265408809Y-186899904D01*
X265408809Y-186899904D02*
X265456428Y-186995142D01*
X265456428Y-186995142D02*
X265456428Y-187376094D01*
X264932619Y-186471332D02*
X264932619Y-185852285D01*
X264932619Y-185852285D02*
X265313571Y-186185618D01*
X265313571Y-186185618D02*
X265313571Y-186042761D01*
X265313571Y-186042761D02*
X265361190Y-185947523D01*
X265361190Y-185947523D02*
X265408809Y-185899904D01*
X265408809Y-185899904D02*
X265504047Y-185852285D01*
X265504047Y-185852285D02*
X265742142Y-185852285D01*
X265742142Y-185852285D02*
X265837380Y-185899904D01*
X265837380Y-185899904D02*
X265885000Y-185947523D01*
X265885000Y-185947523D02*
X265932619Y-186042761D01*
X265932619Y-186042761D02*
X265932619Y-186328475D01*
X265932619Y-186328475D02*
X265885000Y-186423713D01*
X265885000Y-186423713D02*
X265837380Y-186471332D01*
X273396619Y-168182666D02*
X272920428Y-168515999D01*
X273396619Y-168754094D02*
X272396619Y-168754094D01*
X272396619Y-168754094D02*
X272396619Y-168373142D01*
X272396619Y-168373142D02*
X272444238Y-168277904D01*
X272444238Y-168277904D02*
X272491857Y-168230285D01*
X272491857Y-168230285D02*
X272587095Y-168182666D01*
X272587095Y-168182666D02*
X272729952Y-168182666D01*
X272729952Y-168182666D02*
X272825190Y-168230285D01*
X272825190Y-168230285D02*
X272872809Y-168277904D01*
X272872809Y-168277904D02*
X272920428Y-168373142D01*
X272920428Y-168373142D02*
X272920428Y-168754094D01*
X273396619Y-167230285D02*
X273396619Y-167801713D01*
X273396619Y-167515999D02*
X272396619Y-167515999D01*
X272396619Y-167515999D02*
X272539476Y-167611237D01*
X272539476Y-167611237D02*
X272634714Y-167706475D01*
X272634714Y-167706475D02*
X272682333Y-167801713D01*
D11*
X281641769Y-193631479D02*
X281605504Y-193654140D01*
X281605504Y-193654140D02*
X281510313Y-193663197D01*
X281510313Y-193663197D02*
X281451387Y-193649593D01*
X281451387Y-193649593D02*
X281369800Y-193599723D01*
X281369800Y-193599723D02*
X281324478Y-193527193D01*
X281324478Y-193527193D02*
X281308619Y-193461465D01*
X281308619Y-193461465D02*
X281306364Y-193336810D01*
X281306364Y-193336810D02*
X281326770Y-193248421D01*
X281326770Y-193248421D02*
X281383442Y-193137371D01*
X281383442Y-193137371D02*
X281426509Y-193085246D01*
X281426509Y-193085246D02*
X281499039Y-193039924D01*
X281499039Y-193039924D02*
X281594231Y-193030868D01*
X281594231Y-193030868D02*
X281653157Y-193044472D01*
X281653157Y-193044472D02*
X281734744Y-193094341D01*
X281734744Y-193094341D02*
X281757405Y-193130606D01*
X282217427Y-193826447D02*
X281863870Y-193744822D01*
X282040649Y-193785634D02*
X282183493Y-193166909D01*
X282183493Y-193166909D02*
X282104160Y-193241695D01*
X282104160Y-193241695D02*
X282031630Y-193287017D01*
X282031630Y-193287017D02*
X281965901Y-193302876D01*
X282743291Y-193296149D02*
X282802218Y-193309753D01*
X282802218Y-193309753D02*
X282854342Y-193352821D01*
X282854342Y-193352821D02*
X282877003Y-193389086D01*
X282877003Y-193389086D02*
X282892862Y-193454814D01*
X282892862Y-193454814D02*
X282895116Y-193579469D01*
X282895116Y-193579469D02*
X282861106Y-193726784D01*
X282861106Y-193726784D02*
X282804434Y-193837834D01*
X282804434Y-193837834D02*
X282761367Y-193889959D01*
X282761367Y-193889959D02*
X282725102Y-193912620D01*
X282725102Y-193912620D02*
X282659374Y-193928478D01*
X282659374Y-193928478D02*
X282600448Y-193914874D01*
X282600448Y-193914874D02*
X282548323Y-193871807D01*
X282548323Y-193871807D02*
X282525662Y-193835542D01*
X282525662Y-193835542D02*
X282509804Y-193769814D01*
X282509804Y-193769814D02*
X282507549Y-193645159D01*
X282507549Y-193645159D02*
X282541559Y-193497844D01*
X282541559Y-193497844D02*
X282598231Y-193386793D01*
X282598231Y-193386793D02*
X282641298Y-193334669D01*
X282641298Y-193334669D02*
X282677563Y-193312008D01*
X282677563Y-193312008D02*
X282743291Y-193296149D01*
D10*
X278528142Y-192130619D02*
X278194809Y-191654428D01*
X277956714Y-192130619D02*
X277956714Y-191130619D01*
X277956714Y-191130619D02*
X278337666Y-191130619D01*
X278337666Y-191130619D02*
X278432904Y-191178238D01*
X278432904Y-191178238D02*
X278480523Y-191225857D01*
X278480523Y-191225857D02*
X278528142Y-191321095D01*
X278528142Y-191321095D02*
X278528142Y-191463952D01*
X278528142Y-191463952D02*
X278480523Y-191559190D01*
X278480523Y-191559190D02*
X278432904Y-191606809D01*
X278432904Y-191606809D02*
X278337666Y-191654428D01*
X278337666Y-191654428D02*
X277956714Y-191654428D01*
X279480523Y-192130619D02*
X278909095Y-192130619D01*
X279194809Y-192130619D02*
X279194809Y-191130619D01*
X279194809Y-191130619D02*
X279099571Y-191273476D01*
X279099571Y-191273476D02*
X279004333Y-191368714D01*
X279004333Y-191368714D02*
X278909095Y-191416333D01*
X280432904Y-192130619D02*
X279861476Y-192130619D01*
X280147190Y-192130619D02*
X280147190Y-191130619D01*
X280147190Y-191130619D02*
X280051952Y-191273476D01*
X280051952Y-191273476D02*
X279956714Y-191368714D01*
X279956714Y-191368714D02*
X279861476Y-191416333D01*
D12*
X271678000Y-166156000D02*
X271678000Y-166916000D01*
X274048000Y-166916000D02*
X269308000Y-166916000D01*
X269308000Y-166916000D02*
X269308000Y-178156000D01*
X274048000Y-178156000D02*
X274048000Y-166916000D01*
X269308000Y-178156000D02*
X274048000Y-178156000D01*
X271678000Y-178916000D02*
X271678000Y-178156000D01*
X267511000Y-160730000D02*
X267931000Y-160730000D01*
X267931000Y-158960000D02*
X267931000Y-162500000D01*
X267931000Y-162500000D02*
X275171000Y-162500000D01*
X275171000Y-158960000D02*
X267931000Y-158960000D01*
X275171000Y-162500000D02*
X275171000Y-158960000D01*
X275591000Y-160730000D02*
X275171000Y-160730000D01*
X270584000Y-188324000D02*
X270584000Y-184474000D01*
X266534001Y-187474000D02*
G75*
G03*
X267789214Y-188731774I2349999J1090000D01*
G01*
X270006045Y-188706631D02*
G75*
G03*
X270584000Y-188324000I-1122045J2322631D01*
G01*
X267794487Y-184047537D02*
G75*
G03*
X266534000Y-185324000I1089513J-2336463D01*
G01*
X270583999Y-184474001D02*
G75*
G03*
X269996264Y-184081618I-1699999J-1909999D01*
G01*
X267218000Y-181019000D02*
X271058000Y-181019000D01*
X267218000Y-182859000D02*
X271058000Y-182859000D01*
X277424000Y-175320000D02*
X277424000Y-179160000D01*
X275584000Y-175320000D02*
X275584000Y-179160000D01*
X273298000Y-167603000D02*
X273298000Y-163763000D01*
X275138000Y-167603000D02*
X275138000Y-163763000D01*
D13*
X278343574Y-174481116D02*
X278974120Y-175833327D01*
X278466431Y-174143568D02*
X284078289Y-171526716D01*
X284923525Y-173339332D02*
X279311667Y-175956184D01*
X284415836Y-171649573D02*
X285046382Y-173001784D01*
X278466432Y-174143570D02*
G75*
G03*
X278343575Y-174481116I107344J-230201D01*
G01*
X278974121Y-175833327D02*
G75*
G03*
X279311667Y-175956183I230201J107345D01*
G01*
X284415835Y-171649573D02*
G75*
G03*
X284078289Y-171526717I-230201J-107345D01*
G01*
X284923524Y-173339330D02*
G75*
G03*
X285046381Y-173001784I-107344J230201D01*
G01*
X278552000Y-185035000D02*
X280044000Y-185035000D01*
X278298000Y-184781000D02*
X278298000Y-178589000D01*
X280298000Y-178589000D02*
X280298000Y-184781000D01*
X278552000Y-178335000D02*
X280044000Y-178335000D01*
X278298000Y-184781000D02*
G75*
G03*
X278552000Y-185035000I254000J0D01*
G01*
X280044000Y-185035000D02*
G75*
G03*
X280298000Y-184781000I0J254000D01*
G01*
X278552000Y-178335000D02*
G75*
G03*
X278298000Y-178589000I0J-254000D01*
G01*
X280298000Y-178589000D02*
G75*
G03*
X280044000Y-178335000I-254000J0D01*
G01*
D12*
X266710000Y-190417000D02*
X270550000Y-190417000D01*
X266710000Y-192257000D02*
X270550000Y-192257000D01*
D13*
X285188000Y-161476000D02*
X285188000Y-159984000D01*
X284934000Y-161730000D02*
X278742000Y-161730000D01*
X278742000Y-159730000D02*
X284934000Y-159730000D01*
X278488000Y-161476000D02*
X278488000Y-159984000D01*
X284934000Y-161730000D02*
G75*
G03*
X285188000Y-161476000I0J254000D01*
G01*
X285188000Y-159984000D02*
G75*
G03*
X284934000Y-159730000I-254000J0D01*
G01*
X278488000Y-161476000D02*
G75*
G03*
X278742000Y-161730000I254000J0D01*
G01*
X278742000Y-159730000D02*
G75*
G03*
X278488000Y-159984000I0J-254000D01*
G01*
X283886000Y-168483000D02*
X285378000Y-168483000D01*
X283632000Y-168229000D02*
X283632000Y-163137000D01*
X285632000Y-163137000D02*
X285632000Y-168229000D01*
X283886000Y-162883000D02*
X285378000Y-162883000D01*
X283632000Y-168229000D02*
G75*
G03*
X283886000Y-168483000I254000J0D01*
G01*
X285378000Y-168483000D02*
G75*
G03*
X285632000Y-168229000I0J254000D01*
G01*
X283886000Y-162883000D02*
G75*
G03*
X283632000Y-163137000I0J-254000D01*
G01*
X285632000Y-163137000D02*
G75*
G03*
X285378000Y-162883000I-254000J0D01*
G01*
D12*
X283078000Y-185030000D02*
X283078000Y-186730000D01*
X283078000Y-186730000D02*
X283078000Y-187230000D01*
X283078000Y-187230000D02*
X285678000Y-187230000D01*
X285678000Y-185030000D02*
X283078000Y-185030000D01*
X285678000Y-187230000D02*
X285678000Y-185030000D01*
X281098000Y-168278000D02*
X277498000Y-168278000D01*
X280438000Y-172477999D02*
G75*
G03*
X281665198Y-171231842I-1140000J2349999D01*
G01*
X281622183Y-169005205D02*
G75*
G03*
X281097999Y-168278001I-2324183J-1122795D01*
G01*
X276942543Y-171226371D02*
G75*
G03*
X278188000Y-172478000I2355457J1098371D01*
G01*
X277498001Y-168278001D02*
G75*
G03*
X276973817Y-169005205I1799999J-1849999D01*
G01*
X275331000Y-185030000D02*
X275331000Y-186730000D01*
X275331000Y-186730000D02*
X275331000Y-187230000D01*
X275331000Y-187230000D02*
X277931000Y-187230000D01*
X277931000Y-185030000D02*
X275331000Y-185030000D01*
X277931000Y-187230000D02*
X277931000Y-185030000D01*
D13*
X273599000Y-177881000D02*
X275091000Y-177881000D01*
X273345000Y-177627000D02*
X273345000Y-172535000D01*
X275345000Y-172535000D02*
X275345000Y-177627000D01*
X273599000Y-172281000D02*
X275091000Y-172281000D01*
X273345000Y-177627000D02*
G75*
G03*
X273599000Y-177881000I254000J0D01*
G01*
X275091000Y-177881000D02*
G75*
G03*
X275345000Y-177627000I0J254000D01*
G01*
X273599000Y-172281000D02*
G75*
G03*
X273345000Y-172535000I0J-254000D01*
G01*
X275345000Y-172535000D02*
G75*
G03*
X275091000Y-172281000I-254000J0D01*
G01*
D12*
X281838000Y-165476000D02*
X281838000Y-164516000D01*
X284458000Y-168096000D02*
G75*
G03*
X284458000Y-168096000I-2620000J0D01*
G01*
X264928000Y-160603000D02*
G75*
G03*
X264928000Y-160603000I-1251000J0D01*
G01*
X270505000Y-185030000D02*
X270505000Y-186730000D01*
X270505000Y-186730000D02*
X270505000Y-187230000D01*
X270505000Y-187230000D02*
X273105000Y-187230000D01*
X273105000Y-185030000D02*
X270505000Y-185030000D01*
X273105000Y-187230000D02*
X273105000Y-185030000D01*
D13*
X280786945Y-184467185D02*
X282079055Y-185213185D01*
X280693975Y-184120215D02*
X283789975Y-178757785D01*
X285522025Y-179757785D02*
X282426025Y-185120215D01*
X284136945Y-178664815D02*
X285429055Y-179410815D01*
X280693976Y-184120215D02*
G75*
G03*
X280786945Y-184467184I219969J-127000D01*
G01*
X282079055Y-185213184D02*
G75*
G03*
X282426024Y-185120215I127000J219969D01*
G01*
X284136945Y-178664816D02*
G75*
G03*
X283789976Y-178757785I-127000J-219969D01*
G01*
X285522024Y-179757785D02*
G75*
G03*
X285429055Y-179410816I-219969J127000D01*
G01*
X269503000Y-174313000D02*
X268011000Y-174313000D01*
X269757000Y-174567000D02*
X269757000Y-179659000D01*
X267757000Y-179659000D02*
X267757000Y-174567000D01*
X269503000Y-179913000D02*
X268011000Y-179913000D01*
X269757000Y-174567000D02*
G75*
G03*
X269503000Y-174313000I-254000J0D01*
G01*
X268011000Y-174313000D02*
G75*
G03*
X267757000Y-174567000I0J-254000D01*
G01*
X269503000Y-179913000D02*
G75*
G03*
X269757000Y-179659000I0J254000D01*
G01*
X267757000Y-179659000D02*
G75*
G03*
X268011000Y-179913000I254000J0D01*
G01*
D12*
X274831000Y-193195000D02*
X278431000Y-193195000D01*
X275491000Y-188995001D02*
G75*
G03*
X274263802Y-190241158I1140000J-2349999D01*
G01*
X274306817Y-192467795D02*
G75*
G03*
X274831001Y-193194999I2324183J1122795D01*
G01*
X278986457Y-190246629D02*
G75*
G03*
X277741000Y-188995000I-2355457J-1098371D01*
G01*
X278430999Y-193194999D02*
G75*
G03*
X278955183Y-192467795I-1799999J1849999D01*
G01*
D13*
X264423000Y-174313000D02*
X262931000Y-174313000D01*
D14*
X262931000Y-174414600D02*
X262931000Y-174719400D01*
D13*
X264677000Y-174567000D02*
X264677000Y-179659000D01*
D14*
X263083400Y-174567000D02*
X262778600Y-174567000D01*
D13*
X262677000Y-179659000D02*
X262677000Y-174567000D01*
X264423000Y-179913000D02*
X262931000Y-179913000D01*
X264677000Y-174567000D02*
G75*
G03*
X264423000Y-174313000I-254000J0D01*
G01*
X262931000Y-174313000D02*
G75*
G03*
X262677000Y-174567000I0J-254000D01*
G01*
X264423000Y-179913000D02*
G75*
G03*
X264677000Y-179659000I0J254000D01*
G01*
X262677000Y-179659000D02*
G75*
G03*
X262931000Y-179913000I254000J0D01*
G01*
X268092816Y-198192357D02*
X269455826Y-198799208D01*
X267964087Y-197857005D02*
X270482600Y-192200332D01*
X272309691Y-193013805D02*
X269791178Y-198670478D01*
X270817952Y-192071602D02*
X272180962Y-192678453D01*
X267964087Y-197857005D02*
G75*
G03*
X268092816Y-198192357I232040J-103311D01*
G01*
X269455826Y-198799208D02*
G75*
G03*
X269791178Y-198670478I103311J232041D01*
G01*
X270817952Y-192071602D02*
G75*
G03*
X270482600Y-192200332I-103311J-232041D01*
G01*
X272309691Y-193013805D02*
G75*
G03*
X272180962Y-192678453I-232040J103311D01*
G01*
D12*
X270378000Y-162170000D02*
X270378000Y-163870000D01*
X270378000Y-163870000D02*
X270378000Y-164370000D01*
X270378000Y-164370000D02*
X272978000Y-164370000D01*
X272978000Y-162170000D02*
X270378000Y-162170000D01*
X272978000Y-164370000D02*
X272978000Y-162170000D01*
D13*
X267245978Y-193096209D02*
X266154799Y-192078668D01*
X267258515Y-193455201D02*
X263785779Y-197179254D01*
X262323071Y-195815257D02*
X265795807Y-192091204D01*
X263426787Y-197191790D02*
X262335608Y-196174249D01*
X267258514Y-193455200D02*
G75*
G03*
X267245978Y-193096210I-185763J173227D01*
G01*
X266154799Y-192078668D02*
G75*
G03*
X265795807Y-192091204I-173228J-185764D01*
G01*
X263426787Y-197191790D02*
G75*
G03*
X263785779Y-197179254I173228J185764D01*
G01*
X262323072Y-195815258D02*
G75*
G03*
X262335608Y-196174248I185763J-173227D01*
G01*
D12*
X280045000Y-176066000D02*
X283885000Y-176066000D01*
X280045000Y-177906000D02*
X283885000Y-177906000D01*
X270262000Y-200100000D02*
G75*
G03*
X270262000Y-200100000I-1251000J0D01*
G01*
X264470000Y-184718000D02*
X264470000Y-188558000D01*
X262630000Y-184718000D02*
X262630000Y-188558000D01*
X267540000Y-162842001D02*
G75*
G03*
X265259119Y-162901610I-1006000J-5173999D01*
G01*
X267808000Y-173129999D02*
G75*
G03*
X269922474Y-163979379I-1274000J5113999D01*
G01*
X262873000Y-164225000D02*
G75*
G03*
X261264643Y-168108030I3661000J-3791000D01*
G01*
X261264001Y-168016000D02*
G75*
G03*
X264993201Y-173055725I5269999J0D01*
G01*
D13*
X279531577Y-192139257D02*
X279195950Y-193593017D01*
D14*
X279294946Y-193615872D02*
X279591934Y-193684437D01*
D13*
X279836205Y-191948905D02*
X284797697Y-193094355D01*
D14*
X279477723Y-193501661D02*
X279409158Y-193798649D01*
D13*
X284347795Y-195043095D02*
X279386303Y-193897645D01*
X284988050Y-193398983D02*
X284652423Y-194852743D01*
X279836205Y-191948905D02*
G75*
G03*
X279531577Y-192139257I-57138J-247490D01*
G01*
X279195951Y-193593017D02*
G75*
G03*
X279386303Y-193897644I247489J-57138D01*
G01*
X284988049Y-193398983D02*
G75*
G03*
X284797697Y-193094356I-247489J57138D01*
G01*
X284347795Y-195043095D02*
G75*
G03*
X284652423Y-194852743I57138J247490D01*
G01*
D12*
X273997001Y-197062000D02*
G75*
G03*
X274056610Y-199342881I5173999J-1006000D01*
G01*
X284284999Y-196794000D02*
G75*
G03*
X275134379Y-194679526I-5113999J-1274000D01*
G01*
X275380000Y-201729000D02*
G75*
G03*
X279263030Y-203337357I3791000J3661000D01*
G01*
X279171000Y-203337999D02*
G75*
G03*
X284210725Y-199608799I0J5269999D01*
G01*
%LPC*%
D15*
X271678000Y-165551000D03*
D16*
X271678000Y-179521000D03*
D17*
X266471000Y-160730000D03*
D18*
X276631000Y-160730000D03*
D19*
X268884000Y-188924000D03*
D20*
X266344000Y-186384000D03*
X268884000Y-183844000D03*
D21*
X266598000Y-181939000D03*
D22*
X271678000Y-181939000D03*
D21*
X276504000Y-174700000D03*
D22*
X276504000Y-179780000D03*
D21*
X274218000Y-168223000D03*
D22*
X274218000Y-163143000D03*
D23*
X279392956Y-174814900D03*
X283997000Y-172668000D03*
X279298000Y-184225000D03*
X279298000Y-179145000D03*
D21*
X266090000Y-191337000D03*
D22*
X271170000Y-191337000D03*
D23*
X284378000Y-160730000D03*
X279298000Y-160730000D03*
X284632000Y-167588000D03*
X284632000Y-163778000D03*
D24*
X284378000Y-186130000D03*
D19*
X281838000Y-170128000D03*
D20*
X279298000Y-172668000D03*
X276758000Y-170128000D03*
D24*
X276631000Y-186130000D03*
D23*
X274345000Y-176986000D03*
X274345000Y-173176000D03*
D25*
X281838000Y-168096000D03*
D26*
X281838000Y-163016000D03*
D15*
X263677000Y-160603000D03*
D24*
X271805000Y-186130000D03*
D23*
X281838000Y-184138705D03*
X284378000Y-179739295D03*
X268757000Y-175208000D03*
X268757000Y-179018000D03*
D19*
X274091000Y-191345000D03*
D20*
X276631000Y-188805000D03*
X279171000Y-191345000D03*
D23*
X263677000Y-175208000D03*
X263677000Y-179018000D03*
X269103778Y-197755810D03*
X271170000Y-193115000D03*
D24*
X271678000Y-163270000D03*
D23*
X266090000Y-193242000D03*
X263491586Y-196028458D03*
D21*
X279425000Y-176986000D03*
D22*
X284505000Y-176986000D03*
D15*
X269011000Y-200100000D03*
D21*
X263550000Y-184098000D03*
D22*
X263550000Y-189178000D03*
D27*
X263884000Y-163016000D03*
X266384000Y-173016000D03*
X268884000Y-163016000D03*
D23*
X280235825Y-193067468D03*
X283948175Y-193924532D03*
D27*
X274171000Y-200718000D03*
X284171000Y-198218000D03*
X274171000Y-195718000D03*
M02*
