%TF.GenerationSoftware,KiCad,Pcbnew,7.0.1-0*%
%TF.CreationDate,2023-07-16T16:48:49+03:00*%
%TF.ProjectId,HC2000-Modulator,48433230-3030-42d4-9d6f-64756c61746f,rev?*%
%TF.SameCoordinates,Original*%
%TF.FileFunction,Drillmap*%
%TF.FilePolarity,Positive*%
%FSLAX45Y45*%
G04 Gerber Fmt 4.5, Leading zero omitted, Abs format (unit mm)*
G04 Created by KiCad (PCBNEW 7.0.1-0) date 2023-07-16 16:48:49*
%MOMM*%
%LPD*%
G01*
G04 APERTURE LIST*
%ADD10C,0.100000*%
%ADD11C,0.200000*%
G04 APERTURE END LIST*
D10*
X25847000Y-20721200D02*
X25847000Y-15692000D01*
X25847000Y-15692000D02*
X28945800Y-15692000D01*
X28945800Y-15692000D02*
X28945800Y-20721200D01*
X28945800Y-20721200D02*
X25847000Y-20721200D01*
D11*
X26089619Y-21038724D02*
X26089619Y-20838724D01*
X26089619Y-20838724D02*
X26137238Y-20838724D01*
X26137238Y-20838724D02*
X26165809Y-20848248D01*
X26165809Y-20848248D02*
X26184857Y-20867295D01*
X26184857Y-20867295D02*
X26194381Y-20886343D01*
X26194381Y-20886343D02*
X26203905Y-20924438D01*
X26203905Y-20924438D02*
X26203905Y-20953010D01*
X26203905Y-20953010D02*
X26194381Y-20991105D01*
X26194381Y-20991105D02*
X26184857Y-21010152D01*
X26184857Y-21010152D02*
X26165809Y-21029200D01*
X26165809Y-21029200D02*
X26137238Y-21038724D01*
X26137238Y-21038724D02*
X26089619Y-21038724D01*
X26289619Y-21038724D02*
X26289619Y-20905390D01*
X26289619Y-20943486D02*
X26299143Y-20924438D01*
X26299143Y-20924438D02*
X26308667Y-20914914D01*
X26308667Y-20914914D02*
X26327714Y-20905390D01*
X26327714Y-20905390D02*
X26346762Y-20905390D01*
X26413428Y-21038724D02*
X26413428Y-20905390D01*
X26413428Y-20838724D02*
X26403905Y-20848248D01*
X26403905Y-20848248D02*
X26413428Y-20857771D01*
X26413428Y-20857771D02*
X26422952Y-20848248D01*
X26422952Y-20848248D02*
X26413428Y-20838724D01*
X26413428Y-20838724D02*
X26413428Y-20857771D01*
X26537238Y-21038724D02*
X26518190Y-21029200D01*
X26518190Y-21029200D02*
X26508667Y-21010152D01*
X26508667Y-21010152D02*
X26508667Y-20838724D01*
X26642000Y-21038724D02*
X26622952Y-21029200D01*
X26622952Y-21029200D02*
X26613428Y-21010152D01*
X26613428Y-21010152D02*
X26613428Y-20838724D01*
X26870571Y-21038724D02*
X26870571Y-20838724D01*
X26870571Y-20838724D02*
X26937238Y-20981581D01*
X26937238Y-20981581D02*
X27003905Y-20838724D01*
X27003905Y-20838724D02*
X27003905Y-21038724D01*
X27184857Y-21038724D02*
X27184857Y-20933962D01*
X27184857Y-20933962D02*
X27175333Y-20914914D01*
X27175333Y-20914914D02*
X27156286Y-20905390D01*
X27156286Y-20905390D02*
X27118190Y-20905390D01*
X27118190Y-20905390D02*
X27099143Y-20914914D01*
X27184857Y-21029200D02*
X27165809Y-21038724D01*
X27165809Y-21038724D02*
X27118190Y-21038724D01*
X27118190Y-21038724D02*
X27099143Y-21029200D01*
X27099143Y-21029200D02*
X27089619Y-21010152D01*
X27089619Y-21010152D02*
X27089619Y-20991105D01*
X27089619Y-20991105D02*
X27099143Y-20972057D01*
X27099143Y-20972057D02*
X27118190Y-20962533D01*
X27118190Y-20962533D02*
X27165809Y-20962533D01*
X27165809Y-20962533D02*
X27184857Y-20953010D01*
X27280095Y-20905390D02*
X27280095Y-21105390D01*
X27280095Y-20914914D02*
X27299143Y-20905390D01*
X27299143Y-20905390D02*
X27337238Y-20905390D01*
X27337238Y-20905390D02*
X27356286Y-20914914D01*
X27356286Y-20914914D02*
X27365809Y-20924438D01*
X27365809Y-20924438D02*
X27375333Y-20943486D01*
X27375333Y-20943486D02*
X27375333Y-21000629D01*
X27375333Y-21000629D02*
X27365809Y-21019676D01*
X27365809Y-21019676D02*
X27356286Y-21029200D01*
X27356286Y-21029200D02*
X27337238Y-21038724D01*
X27337238Y-21038724D02*
X27299143Y-21038724D01*
X27299143Y-21038724D02*
X27280095Y-21029200D01*
X27461048Y-21019676D02*
X27470571Y-21029200D01*
X27470571Y-21029200D02*
X27461048Y-21038724D01*
X27461048Y-21038724D02*
X27451524Y-21029200D01*
X27451524Y-21029200D02*
X27461048Y-21019676D01*
X27461048Y-21019676D02*
X27461048Y-21038724D01*
X27461048Y-20914914D02*
X27470571Y-20924438D01*
X27470571Y-20924438D02*
X27461048Y-20933962D01*
X27461048Y-20933962D02*
X27451524Y-20924438D01*
X27451524Y-20924438D02*
X27461048Y-20914914D01*
X27461048Y-20914914D02*
X27461048Y-20933962D01*
M02*
