%TF.GenerationSoftware,KiCad,Pcbnew,7.0.1-0*%
%TF.CreationDate,2023-07-16T16:48:42+03:00*%
%TF.ProjectId,HC2000-Modulator,48433230-3030-42d4-9d6f-64756c61746f,rev?*%
%TF.SameCoordinates,Original*%
%TF.FileFunction,Copper,L2,Bot*%
%TF.FilePolarity,Positive*%
%FSLAX46Y46*%
G04 Gerber Fmt 4.6, Leading zero omitted, Abs format (unit mm)*
G04 Created by KiCad (PCBNEW 7.0.1-0) date 2023-07-16 16:48:42*
%MOMM*%
%LPD*%
G01*
G04 APERTURE LIST*
%TA.AperFunction,ComponentPad*%
%ADD10C,2.000000*%
%TD*%
%TA.AperFunction,ComponentPad*%
%ADD11O,2.000000X2.000000*%
%TD*%
%TA.AperFunction,ComponentPad*%
%ADD12C,1.600000*%
%TD*%
%TA.AperFunction,ComponentPad*%
%ADD13O,1.600000X1.600000*%
%TD*%
%TA.AperFunction,ComponentPad*%
%ADD14R,1.500000X1.500000*%
%TD*%
%TA.AperFunction,ComponentPad*%
%ADD15C,1.500000*%
%TD*%
%TA.AperFunction,ComponentPad*%
%ADD16C,1.400000*%
%TD*%
%TA.AperFunction,ComponentPad*%
%ADD17O,1.400000X1.400000*%
%TD*%
%TA.AperFunction,ComponentPad*%
%ADD18C,1.524000*%
%TD*%
%TA.AperFunction,ComponentPad*%
%ADD19C,1.800000*%
%TD*%
%TA.AperFunction,ComponentPad*%
%ADD20C,2.400000*%
%TD*%
%TA.AperFunction,ComponentPad*%
%ADD21O,2.400000X2.400000*%
%TD*%
%TA.AperFunction,ComponentPad*%
%ADD22C,2.340000*%
%TD*%
%TA.AperFunction,ViaPad*%
%ADD23C,1.905000*%
%TD*%
%TA.AperFunction,ViaPad*%
%ADD24C,3.945200*%
%TD*%
%TA.AperFunction,Conductor*%
%ADD25C,0.300000*%
%TD*%
G04 APERTURE END LIST*
D10*
X271678000Y-165551000D03*
D11*
X271678000Y-179521000D03*
D12*
X266471000Y-160730000D03*
D13*
X276631000Y-160730000D03*
D14*
X268884000Y-188924000D03*
D15*
X266344000Y-186384000D03*
X268884000Y-183844000D03*
D16*
X266598000Y-181939000D03*
D17*
X271678000Y-181939000D03*
D16*
X276504000Y-174700000D03*
D17*
X276504000Y-179780000D03*
D16*
X274218000Y-168223000D03*
D17*
X274218000Y-163143000D03*
D18*
X279392956Y-174814900D03*
X283997000Y-172668000D03*
X279298000Y-184225000D03*
X279298000Y-179145000D03*
D16*
X266090000Y-191337000D03*
D17*
X271170000Y-191337000D03*
D18*
X284378000Y-160730000D03*
X279298000Y-160730000D03*
X284632000Y-167588000D03*
X284632000Y-163778000D03*
D19*
X284378000Y-186130000D03*
D14*
X281838000Y-170128000D03*
D15*
X279298000Y-172668000D03*
X276758000Y-170128000D03*
D19*
X276631000Y-186130000D03*
D18*
X274345000Y-176986000D03*
X274345000Y-173176000D03*
D20*
X281838000Y-168096000D03*
D21*
X281838000Y-163016000D03*
D10*
X263677000Y-160603000D03*
D19*
X271805000Y-186130000D03*
D18*
X281838000Y-184138705D03*
X284378000Y-179739295D03*
X268757000Y-175208000D03*
X268757000Y-179018000D03*
D14*
X274091000Y-191345000D03*
D15*
X276631000Y-188805000D03*
X279171000Y-191345000D03*
D18*
X263677000Y-175208000D03*
X263677000Y-179018000D03*
X269103778Y-197755810D03*
X271170000Y-193115000D03*
D19*
X271678000Y-163270000D03*
D18*
X266090000Y-193242000D03*
X263491586Y-196028458D03*
D16*
X279425000Y-176986000D03*
D17*
X284505000Y-176986000D03*
D10*
X269011000Y-200100000D03*
D16*
X263550000Y-184098000D03*
D17*
X263550000Y-189178000D03*
D22*
X263884000Y-163016000D03*
X266384000Y-173016000D03*
X268884000Y-163016000D03*
D18*
X280235825Y-193067468D03*
X283948175Y-193924532D03*
D22*
X274171000Y-200718000D03*
X284171000Y-198218000D03*
X274171000Y-195718000D03*
D23*
X280695000Y-165556000D03*
D24*
X278028000Y-165683000D03*
D25*
X286156000Y-181517295D02*
X286156000Y-184352000D01*
X284505000Y-176986000D02*
X284505000Y-179612295D01*
X286156000Y-184352000D02*
X284378000Y-186130000D01*
X284378000Y-179739295D02*
X286156000Y-181517295D01*
X265963000Y-203275000D02*
X271614000Y-203275000D01*
X263550000Y-189178000D02*
X262026000Y-190702000D01*
X270789000Y-172795000D02*
X271932000Y-173938000D01*
X284378000Y-160730000D02*
X286918000Y-160730000D01*
X286156000Y-191716707D02*
X283948175Y-193924532D01*
X268122000Y-163778000D02*
X268122000Y-169366000D01*
X268122000Y-169366000D02*
X270789000Y-172033000D01*
X268884000Y-163016000D02*
X268122000Y-163778000D01*
X274171000Y-200718000D02*
X276728000Y-203275000D01*
X259867000Y-159460000D02*
X259867000Y-172668000D01*
X287553000Y-200862000D02*
X287553000Y-195147000D01*
X274345000Y-177621000D02*
X274345000Y-176986000D01*
X268122000Y-169366000D02*
X263169000Y-169366000D01*
X271932000Y-174573000D02*
X274345000Y-176986000D01*
X262026000Y-190702000D02*
X262026000Y-194562872D01*
X287553000Y-195147000D02*
X286330532Y-193924532D01*
X261264000Y-158063000D02*
X259867000Y-159460000D01*
X284378000Y-160730000D02*
X281711000Y-158063000D01*
X270789000Y-172033000D02*
X270789000Y-172795000D01*
X288188000Y-162000000D02*
X288188000Y-173303000D01*
X281711000Y-158063000D02*
X261264000Y-158063000D01*
X284505000Y-179612295D02*
X284378000Y-179739295D01*
X276504000Y-179780000D02*
X274345000Y-177621000D01*
X271932000Y-173938000D02*
X271932000Y-174573000D01*
X276728000Y-203275000D02*
X285140000Y-203275000D01*
X284378000Y-186130000D02*
X286156000Y-187908000D01*
X286330532Y-193924532D02*
X283948175Y-193924532D01*
X263491586Y-200803586D02*
X265963000Y-203275000D01*
X259867000Y-172668000D02*
X259867000Y-185495000D01*
X271614000Y-203275000D02*
X274171000Y-200718000D01*
X285140000Y-203275000D02*
X287553000Y-200862000D01*
X286156000Y-187908000D02*
X286156000Y-191716707D01*
X259867000Y-185495000D02*
X263550000Y-189178000D01*
X262026000Y-194562872D02*
X263491586Y-196028458D01*
X263169000Y-169366000D02*
X259867000Y-172668000D01*
X288188000Y-173303000D02*
X284505000Y-176986000D01*
X286918000Y-160730000D02*
X288188000Y-162000000D01*
X263491586Y-196028458D02*
X263491586Y-200803586D01*
X266565000Y-173016000D02*
X266384000Y-173016000D01*
X263677000Y-175208000D02*
X268757000Y-175208000D01*
X268757000Y-175208000D02*
X266565000Y-173016000D01*
X265869000Y-173016000D02*
X266384000Y-173016000D01*
X263677000Y-175208000D02*
X265869000Y-173016000D01*
X265836000Y-186384000D02*
X266344000Y-186384000D01*
X263550000Y-179145000D02*
X263677000Y-179018000D01*
X266344000Y-182193000D02*
X266598000Y-181939000D01*
X263550000Y-184098000D02*
X265836000Y-186384000D01*
X266598000Y-181177000D02*
X266598000Y-181939000D01*
X263550000Y-184098000D02*
X263550000Y-179145000D01*
X266344000Y-186384000D02*
X266344000Y-182193000D01*
X268757000Y-179018000D02*
X263677000Y-179018000D01*
X268757000Y-179018000D02*
X266598000Y-181177000D01*
X266090000Y-191337000D02*
X266090000Y-193242000D01*
X271678000Y-179521000D02*
X271678000Y-181939000D01*
X273964000Y-186511000D02*
X271551000Y-188924000D01*
X274171000Y-195718000D02*
X269836000Y-195718000D01*
X268122000Y-195274000D02*
X266090000Y-193242000D01*
X269392000Y-195274000D02*
X268122000Y-195274000D01*
X273964000Y-184225000D02*
X273964000Y-186511000D01*
X271678000Y-181939000D02*
X273964000Y-184225000D01*
X269836000Y-195718000D02*
X269392000Y-195274000D01*
X271551000Y-188924000D02*
X268884000Y-188924000D01*
X268503000Y-188924000D02*
X266090000Y-191337000D01*
X268884000Y-188924000D02*
X268503000Y-188924000D01*
X271805000Y-186130000D02*
X269519000Y-183844000D01*
X269519000Y-183844000D02*
X268884000Y-183844000D01*
X276631000Y-186130000D02*
X278536000Y-184225000D01*
X278536000Y-184225000D02*
X279298000Y-184225000D01*
X279384295Y-184138705D02*
X279298000Y-184225000D01*
X276631000Y-188805000D02*
X276631000Y-186130000D01*
X281838000Y-184138705D02*
X279384295Y-184138705D01*
X279298000Y-174719944D02*
X279392956Y-174814900D01*
X279298000Y-179145000D02*
X279298000Y-177113000D01*
X279392956Y-176953956D02*
X279425000Y-176986000D01*
X279298000Y-177113000D02*
X279425000Y-176986000D01*
X279298000Y-172668000D02*
X279298000Y-174719944D01*
X279392956Y-174814900D02*
X279392956Y-176953956D01*
X276504000Y-174700000D02*
X276504000Y-170382000D01*
X274853000Y-168223000D02*
X274218000Y-168223000D01*
X276758000Y-170128000D02*
X274853000Y-168223000D01*
X275869000Y-174700000D02*
X274345000Y-173176000D01*
X276504000Y-174700000D02*
X275869000Y-174700000D01*
X274218000Y-168223000D02*
X274218000Y-173049000D01*
X274218000Y-173049000D02*
X274345000Y-173176000D01*
X276504000Y-170382000D02*
X276758000Y-170128000D01*
X281838000Y-168096000D02*
X284124000Y-168096000D01*
X284632000Y-167588000D02*
X284632000Y-172033000D01*
X284632000Y-172033000D02*
X283997000Y-172668000D01*
X284124000Y-168096000D02*
X284632000Y-167588000D01*
X281838000Y-168096000D02*
X281838000Y-170128000D01*
X281838000Y-170509000D02*
X281838000Y-170128000D01*
X283997000Y-172668000D02*
X281838000Y-170509000D01*
X274218000Y-163143000D02*
X276631000Y-160730000D01*
X279298000Y-160730000D02*
X281584000Y-163016000D01*
X281838000Y-163016000D02*
X283870001Y-163016001D01*
X281584000Y-163016000D02*
X281838000Y-163016000D01*
X283870001Y-163016001D02*
X284632000Y-163778000D01*
X276631000Y-160730000D02*
X279298000Y-160730000D01*
X271170000Y-161492000D02*
X271678000Y-162000000D01*
X271678000Y-163270000D02*
X271678000Y-165551000D01*
X266471000Y-160730000D02*
X269773000Y-160730000D01*
X269773000Y-160730000D02*
X270535000Y-161492000D01*
X271678000Y-162000000D02*
X271678000Y-163270000D01*
X270535000Y-161492000D02*
X271170000Y-161492000D01*
X279171000Y-192002643D02*
X280235825Y-193067468D01*
X280235825Y-194282825D02*
X284171000Y-198218000D01*
X279171000Y-191345000D02*
X279171000Y-192002643D01*
X280235825Y-193067468D02*
X280235825Y-194282825D01*
X274091000Y-191345000D02*
X271178000Y-191345000D01*
X271178000Y-191345000D02*
X271170000Y-191337000D01*
X271170000Y-191337000D02*
X271170000Y-193115000D01*
X269103778Y-197755810D02*
X269103778Y-200007222D01*
X269103778Y-200007222D02*
X269011000Y-200100000D01*
X263677000Y-162809000D02*
X263884000Y-163016000D01*
X263677000Y-160603000D02*
X263677000Y-162809000D01*
%TA.AperFunction,Conductor*%
G36*
X289395500Y-156937113D02*
G01*
X289440887Y-156982500D01*
X289457500Y-157044500D01*
X289457500Y-207087500D01*
X289440887Y-207149500D01*
X289395500Y-207194887D01*
X289333500Y-207211500D01*
X258594500Y-207211500D01*
X258532500Y-207194887D01*
X258487113Y-207149500D01*
X258470500Y-207087500D01*
X258470500Y-163016000D01*
X261264000Y-163016000D01*
X261300286Y-163270000D01*
X261391000Y-163905001D01*
X261725269Y-164306123D01*
X262026000Y-164667000D01*
X263296000Y-165302000D01*
X264819999Y-165302000D01*
X264820000Y-165302000D01*
X266344000Y-164667000D01*
X266852000Y-164159000D01*
X267233000Y-163524000D01*
X267608991Y-162521356D01*
X267621913Y-162496129D01*
X267854245Y-162147631D01*
X267888631Y-162113246D01*
X268217761Y-161893825D01*
X268250611Y-161878321D01*
X268286544Y-161873000D01*
X268744722Y-161873000D01*
X268769040Y-161875408D01*
X269367945Y-161995189D01*
X269412410Y-162013607D01*
X269762785Y-162247190D01*
X269781683Y-162262683D01*
X269879300Y-162360300D01*
X269909256Y-162408769D01*
X270020637Y-162742911D01*
X270027000Y-162782123D01*
X270027000Y-163000734D01*
X270023298Y-163030808D01*
X269902257Y-163514971D01*
X269896421Y-163532589D01*
X269264999Y-165048000D01*
X269011000Y-166063999D01*
X269011000Y-166064000D01*
X268884000Y-166953000D01*
X269011000Y-167715000D01*
X269392000Y-168731000D01*
X271038463Y-171275535D01*
X273582999Y-175208000D01*
X274837906Y-175960944D01*
X274864975Y-175982897D01*
X276503999Y-177747999D01*
X277248326Y-178244217D01*
X277278743Y-178272991D01*
X277622200Y-178730933D01*
X277640637Y-178766121D01*
X277647000Y-178805333D01*
X277647000Y-179388737D01*
X277645313Y-179409123D01*
X277524375Y-180134748D01*
X277505236Y-180183145D01*
X277279756Y-180521365D01*
X277245365Y-180555756D01*
X276916239Y-180775174D01*
X276883389Y-180790679D01*
X276847456Y-180796000D01*
X276265266Y-180796000D01*
X276235192Y-180792298D01*
X275775320Y-180677330D01*
X275717713Y-180644713D01*
X275258287Y-180185287D01*
X275225670Y-180127680D01*
X275198064Y-180017255D01*
X275107000Y-179653000D01*
X274218000Y-178764000D01*
X272932812Y-177874254D01*
X272611515Y-177651818D01*
X272576616Y-177615057D01*
X272559343Y-177567402D01*
X272440000Y-176732000D01*
X272059000Y-175843000D01*
X269011000Y-171017000D01*
X268249000Y-170509000D01*
X268248999Y-170508999D01*
X267359999Y-170127999D01*
X266725000Y-170001000D01*
X265455000Y-170001000D01*
X264820001Y-170127999D01*
X263676999Y-170636000D01*
X262787996Y-171398002D01*
X262280001Y-171905998D01*
X261898998Y-172541002D01*
X261518000Y-173810995D01*
X261391000Y-174700002D01*
X261391000Y-184098000D01*
X261517999Y-184732997D01*
X261645001Y-185114002D01*
X261898999Y-185621999D01*
X262280000Y-186130000D01*
X263041999Y-186765000D01*
X263295998Y-186891999D01*
X263550000Y-187019000D01*
X264053397Y-187144849D01*
X264062501Y-187147500D01*
X264419913Y-187266637D01*
X264455095Y-187285071D01*
X264911779Y-187627584D01*
X264940681Y-187658194D01*
X264957677Y-187696709D01*
X265042250Y-188035002D01*
X265070298Y-188147191D01*
X265074000Y-188177266D01*
X265074000Y-188882667D01*
X265067637Y-188921879D01*
X265049200Y-188957067D01*
X264698286Y-189424952D01*
X264686767Y-189438233D01*
X264185002Y-189939997D01*
X263677000Y-190574999D01*
X263676999Y-190575000D01*
X263677000Y-190575000D01*
X263423000Y-191337000D01*
X263423000Y-192607000D01*
X263931000Y-193877000D01*
X264439000Y-194385000D01*
X264472887Y-194410415D01*
X264909099Y-194737574D01*
X264939604Y-194770661D01*
X264956291Y-194812456D01*
X265067541Y-195368709D01*
X265063586Y-195432239D01*
X264595146Y-196837560D01*
X264439000Y-197306000D01*
X264439000Y-198322000D01*
X264693000Y-199338000D01*
X265328000Y-200481000D01*
X266090000Y-201370000D01*
X267106000Y-201878000D01*
X267868000Y-202132000D01*
X267868001Y-202132000D01*
X269137999Y-202132000D01*
X269138000Y-202132000D01*
X270154000Y-201878000D01*
X271551000Y-201116000D01*
X272186000Y-200354000D01*
X272561147Y-199478656D01*
X272575914Y-199453113D01*
X272935255Y-198973992D01*
X272965673Y-198945218D01*
X273315182Y-198712212D01*
X273344753Y-198697749D01*
X273344752Y-198697749D01*
X273680783Y-198585738D01*
X273740378Y-198581063D01*
X274457270Y-198700545D01*
X274485724Y-198708882D01*
X275339052Y-199074593D01*
X275377886Y-199100886D01*
X275988740Y-199711740D01*
X276001962Y-199727347D01*
X276631000Y-200608000D01*
X277139000Y-200989000D01*
X277647000Y-201116000D01*
X277647002Y-201116000D01*
X283615997Y-201116000D01*
X283616000Y-201116000D01*
X284886000Y-200989000D01*
X286029000Y-200227000D01*
X286537000Y-199465000D01*
X286791000Y-198322000D01*
X286918000Y-197560000D01*
X286791000Y-196925000D01*
X286156000Y-195401000D01*
X285648000Y-195020000D01*
X285647999Y-195020000D01*
X285140000Y-195020000D01*
X284532342Y-195141531D01*
X284477950Y-195140237D01*
X283531710Y-194903677D01*
X283493194Y-194886681D01*
X283462584Y-194857779D01*
X283127061Y-194410415D01*
X283103507Y-194353551D01*
X282985139Y-193524974D01*
X282990255Y-193468233D01*
X283232218Y-192742345D01*
X283238933Y-192726132D01*
X283353002Y-192497994D01*
X283376229Y-192465771D01*
X283376228Y-192465771D01*
X283870000Y-191972000D01*
X284124000Y-191337000D01*
X284341715Y-190575000D01*
X284378000Y-190448001D01*
X284378000Y-188669999D01*
X284124001Y-188035002D01*
X283897916Y-187658194D01*
X283743000Y-187400000D01*
X283376229Y-187033229D01*
X283353001Y-187001002D01*
X283121091Y-186537182D01*
X283108000Y-186481728D01*
X283108000Y-186277123D01*
X283114363Y-186237911D01*
X283229749Y-185891752D01*
X283244210Y-185862184D01*
X283475246Y-185515631D01*
X283509631Y-185481246D01*
X284251000Y-184987000D01*
X284632000Y-184352000D01*
X284886000Y-183717000D01*
X285013000Y-183209000D01*
X285013000Y-182574000D01*
X284886000Y-181812000D01*
X284885999Y-181811998D01*
X284378001Y-180923000D01*
X283250882Y-180046352D01*
X283223837Y-180017255D01*
X283001826Y-179684239D01*
X282986321Y-179651389D01*
X282981000Y-179615456D01*
X282981000Y-177390880D01*
X282989869Y-177344828D01*
X283037936Y-177224659D01*
X283230207Y-176743981D01*
X283242157Y-176721264D01*
X283482194Y-176361208D01*
X283497677Y-176342322D01*
X283728773Y-176111226D01*
X283760994Y-176088002D01*
X284759000Y-175589000D01*
X285648000Y-174954000D01*
X286283000Y-174192000D01*
X286473500Y-173811000D01*
X286791000Y-173176001D01*
X286791000Y-164306123D01*
X286797363Y-164266911D01*
X286833333Y-164159000D01*
X286918000Y-163905000D01*
X286918000Y-163270000D01*
X286664000Y-162635000D01*
X286410000Y-162254000D01*
X286409999Y-162253999D01*
X285775000Y-161873000D01*
X283899272Y-161873000D01*
X283843818Y-161859909D01*
X283124375Y-161500187D01*
X283094690Y-161479429D01*
X280821999Y-159332999D01*
X280441001Y-159079000D01*
X280250500Y-159015500D01*
X280060000Y-158952000D01*
X280059999Y-158952000D01*
X275996000Y-158952000D01*
X275361000Y-159079000D01*
X274979998Y-159333000D01*
X274229056Y-159958786D01*
X274205127Y-159974436D01*
X273728996Y-160212501D01*
X273688922Y-160224634D01*
X272710480Y-160346940D01*
X272677564Y-160346652D01*
X271829787Y-160225541D01*
X271783529Y-160209117D01*
X271345292Y-159946175D01*
X271169999Y-159840999D01*
X270534998Y-159586999D01*
X269645998Y-159332999D01*
X264820001Y-158317000D01*
X264820000Y-158317000D01*
X263423000Y-158317000D01*
X263422999Y-158317000D01*
X262788002Y-158570998D01*
X262152998Y-158952001D01*
X261645001Y-159459997D01*
X261406875Y-159777499D01*
X261264000Y-159968000D01*
X261264000Y-163016000D01*
X258470500Y-163016000D01*
X258470500Y-157044500D01*
X258487113Y-156982500D01*
X258532500Y-156937113D01*
X258594500Y-156920500D01*
X289333500Y-156920500D01*
X289395500Y-156937113D01*
G37*
%TD.AperFunction*%
%TA.AperFunction,Conductor*%
G36*
X279674387Y-171269846D02*
G01*
X279683517Y-171272505D01*
X280032231Y-171388743D01*
X280080699Y-171418698D01*
X280305321Y-171643321D01*
X280320806Y-171662209D01*
X280459121Y-171869681D01*
X280552397Y-172009596D01*
X280571977Y-172060843D01*
X280693754Y-172913278D01*
X280695000Y-172930814D01*
X280695000Y-179248121D01*
X280686131Y-179294171D01*
X280544723Y-179647690D01*
X280450452Y-179883369D01*
X280423002Y-179924997D01*
X279959548Y-180388452D01*
X279930377Y-180410099D01*
X279896185Y-180422363D01*
X279334145Y-180534771D01*
X279298490Y-180536660D01*
X279263775Y-180528310D01*
X278998907Y-180422363D01*
X278695285Y-180300914D01*
X278642137Y-180260183D01*
X278390747Y-179924997D01*
X278291838Y-179793117D01*
X278275908Y-179764771D01*
X278087669Y-179294174D01*
X278036868Y-179167172D01*
X278028000Y-179121121D01*
X278028000Y-172922000D01*
X278023639Y-172913278D01*
X277787090Y-172440181D01*
X277774000Y-172384728D01*
X277774000Y-171957362D01*
X277783439Y-171909909D01*
X277810319Y-171869681D01*
X278140771Y-171539229D01*
X278172998Y-171516001D01*
X278650824Y-171277088D01*
X278676200Y-171267699D01*
X279140928Y-171151518D01*
X279201072Y-171151518D01*
X279674387Y-171269846D01*
G37*
%TD.AperFunction*%
%TA.AperFunction,Conductor*%
G36*
X284146172Y-166580869D02*
G01*
X284747014Y-166821205D01*
X284769739Y-166833159D01*
X284911241Y-166927494D01*
X285478264Y-167305509D01*
X285512511Y-167339684D01*
X285531073Y-167384365D01*
X285645592Y-167956960D01*
X285648000Y-167981278D01*
X285648000Y-171144000D01*
X285742681Y-171996133D01*
X285774242Y-172280179D01*
X285775000Y-172293872D01*
X285775000Y-172884456D01*
X285769679Y-172920389D01*
X285754174Y-172953239D01*
X285532782Y-173285327D01*
X285504008Y-173315744D01*
X285046067Y-173659200D01*
X285010879Y-173677637D01*
X284971667Y-173684000D01*
X284026272Y-173684000D01*
X283970818Y-173670909D01*
X283515182Y-173443091D01*
X283471436Y-173406582D01*
X283114708Y-172930944D01*
X283102999Y-172911998D01*
X282981000Y-172668000D01*
X281710997Y-171651998D01*
X280959215Y-171150810D01*
X280940317Y-171135317D01*
X280597227Y-170792227D01*
X280573999Y-170760000D01*
X280562155Y-170722085D01*
X280442246Y-169882721D01*
X280441000Y-169865186D01*
X280441000Y-167476266D01*
X280444702Y-167446192D01*
X280479873Y-167305509D01*
X280554168Y-167008325D01*
X280577740Y-166960813D01*
X280619009Y-166927495D01*
X280817392Y-166828303D01*
X280826763Y-166824094D01*
X280841094Y-166818362D01*
X280876326Y-166809967D01*
X280915504Y-166806540D01*
X281129308Y-166749252D01*
X281329916Y-166655707D01*
X281417437Y-166594423D01*
X281451269Y-166577739D01*
X281488557Y-166572000D01*
X284100120Y-166572000D01*
X284146172Y-166580869D01*
G37*
%TD.AperFunction*%
%TA.AperFunction,Conductor*%
G36*
X274249239Y-166582413D02*
G01*
X274583247Y-166693749D01*
X274612818Y-166708212D01*
X274959366Y-166939244D01*
X274993756Y-166973634D01*
X275233998Y-167333998D01*
X275233999Y-167333999D01*
X275234000Y-167334000D01*
X276631000Y-168477000D01*
X276631010Y-168477008D01*
X277138999Y-168857999D01*
X277139000Y-168858000D01*
X277620818Y-169098909D01*
X277664563Y-169135417D01*
X278015926Y-169603901D01*
X278034363Y-169639089D01*
X278148637Y-169981911D01*
X278155000Y-170021123D01*
X278155000Y-170352728D01*
X278141909Y-170408182D01*
X278036999Y-170618002D01*
X278013771Y-170650229D01*
X277266000Y-171397999D01*
X277012000Y-171779000D01*
X277012000Y-172794999D01*
X277139000Y-173176001D01*
X277383788Y-173543182D01*
X277398251Y-173572753D01*
X277518494Y-173933482D01*
X277521155Y-173942620D01*
X277643298Y-174431192D01*
X277647000Y-174461266D01*
X277647000Y-175178728D01*
X277633909Y-175234182D01*
X277407727Y-175686546D01*
X277365601Y-175734266D01*
X277043239Y-175949174D01*
X277010389Y-175964679D01*
X276974456Y-175970000D01*
X276284345Y-175970000D01*
X276220549Y-175952329D01*
X275628085Y-175596851D01*
X275604206Y-175578206D01*
X273964000Y-173937999D01*
X273218137Y-173316447D01*
X273191193Y-173284988D01*
X272833111Y-172688185D01*
X272817129Y-172644779D01*
X272695687Y-171916122D01*
X272694000Y-171895737D01*
X272694000Y-168477001D01*
X272573363Y-168115089D01*
X272567000Y-168075877D01*
X272567000Y-167625544D01*
X272572321Y-167589611D01*
X272587826Y-167556761D01*
X272736333Y-167334000D01*
X272814194Y-167217208D01*
X272829677Y-167198322D01*
X273181302Y-166846697D01*
X273229766Y-166816744D01*
X273575687Y-166701437D01*
X273590562Y-166697487D01*
X274185709Y-166578458D01*
X274249239Y-166582413D01*
G37*
%TD.AperFunction*%
%TA.AperFunction,Conductor*%
G36*
X271961451Y-178146670D02*
G01*
X272355333Y-178383000D01*
X272540417Y-178494050D01*
X272582949Y-178536582D01*
X272941478Y-179134131D01*
X272952187Y-179156965D01*
X273836678Y-181684080D01*
X273837277Y-181685831D01*
X274469213Y-183581640D01*
X274473576Y-183598670D01*
X274722879Y-184969836D01*
X274724264Y-185004357D01*
X274600743Y-186239562D01*
X274592489Y-186273275D01*
X274102650Y-187497874D01*
X274066902Y-187547081D01*
X273335829Y-188156308D01*
X273321434Y-188166655D01*
X271697861Y-189165777D01*
X271655055Y-189182171D01*
X270280999Y-189432000D01*
X269914229Y-189798771D01*
X269882002Y-189821999D01*
X269152852Y-190186573D01*
X269121717Y-190197256D01*
X268502999Y-190321000D01*
X267867999Y-190829000D01*
X267766399Y-191235400D01*
X267741000Y-191337000D01*
X267741000Y-193369000D01*
X267995000Y-194004000D01*
X268630000Y-194512000D01*
X269392000Y-194893000D01*
X270408000Y-195147000D01*
X270408001Y-195147000D01*
X271677999Y-195147000D01*
X271678000Y-195147000D01*
X272440000Y-194893000D01*
X272933770Y-194399229D01*
X272965998Y-194376001D01*
X273683818Y-194017091D01*
X273739272Y-194004000D01*
X274437655Y-194004000D01*
X274501451Y-194021670D01*
X275093915Y-194377149D01*
X275117789Y-194395789D01*
X275473770Y-194751770D01*
X275473771Y-194751771D01*
X275496999Y-194783998D01*
X275728909Y-195247818D01*
X275742000Y-195303272D01*
X275742000Y-196384071D01*
X275725662Y-196445592D01*
X275246732Y-197283718D01*
X275213470Y-197321397D01*
X274759067Y-197662200D01*
X274723879Y-197680637D01*
X274684667Y-197687000D01*
X273732486Y-197687000D01*
X273688947Y-197679105D01*
X272729393Y-197319272D01*
X272697430Y-197301531D01*
X272672029Y-197275241D01*
X272058999Y-196416999D01*
X271805000Y-196290000D01*
X269023793Y-195910744D01*
X268998841Y-195904657D01*
X267240048Y-195276517D01*
X267226300Y-195270650D01*
X265722654Y-194518827D01*
X265697410Y-194502066D01*
X264852499Y-193777856D01*
X264826195Y-193746371D01*
X264811605Y-193708026D01*
X264695408Y-193127040D01*
X264693000Y-193102722D01*
X264693000Y-190852880D01*
X264701869Y-190806828D01*
X264735093Y-190723765D01*
X264934444Y-190225388D01*
X264973751Y-190173328D01*
X267737584Y-188037639D01*
X267744580Y-188032612D01*
X268471761Y-187547826D01*
X268504611Y-187532321D01*
X268540544Y-187527000D01*
X269254737Y-187527000D01*
X269275122Y-187528687D01*
X270023737Y-187653456D01*
X270030241Y-187654720D01*
X270258195Y-187705376D01*
X271169998Y-187908000D01*
X271169999Y-187907999D01*
X271170000Y-187908000D01*
X272059000Y-187781000D01*
X272694000Y-187400000D01*
X273329000Y-186892000D01*
X273710000Y-186130000D01*
X273710000Y-185495000D01*
X273456000Y-184606000D01*
X272821000Y-183717000D01*
X272820999Y-183716999D01*
X272820997Y-183716996D01*
X272313000Y-183209000D01*
X271576452Y-183209000D01*
X271527606Y-183198974D01*
X270672463Y-182832484D01*
X270652526Y-182821684D01*
X269955217Y-182356811D01*
X269914672Y-182312147D01*
X269900000Y-182253637D01*
X269900000Y-181827266D01*
X269903702Y-181797192D01*
X270018670Y-181337320D01*
X270051287Y-181279713D01*
X270051286Y-181279713D01*
X270281000Y-181050000D01*
X270535000Y-180415000D01*
X270535000Y-178891000D01*
X270421090Y-178663181D01*
X270408000Y-178607728D01*
X270408000Y-178476533D01*
X270419331Y-178424747D01*
X270451254Y-178382426D01*
X270497933Y-178357304D01*
X271280301Y-178133771D01*
X271314367Y-178129000D01*
X271897655Y-178129000D01*
X271961451Y-178146670D01*
G37*
%TD.AperFunction*%
%TA.AperFunction,Conductor*%
G36*
X266990000Y-159716000D02*
G01*
X268372033Y-159967278D01*
X268379909Y-159968977D01*
X269893153Y-160347288D01*
X269906610Y-160351478D01*
X270899359Y-160723759D01*
X270930219Y-160740664D01*
X271917828Y-161481371D01*
X271942628Y-161506171D01*
X272681926Y-162491901D01*
X272700363Y-162527089D01*
X272814637Y-162869911D01*
X272821000Y-162909123D01*
X272821000Y-164412999D01*
X272948000Y-164794000D01*
X273304200Y-165268933D01*
X273322637Y-165304121D01*
X273329000Y-165343333D01*
X273329000Y-165885638D01*
X273319561Y-165933091D01*
X273292681Y-165973319D01*
X272589720Y-166676279D01*
X272536104Y-166707827D01*
X271703425Y-166945735D01*
X271651824Y-166949260D01*
X270823822Y-166830974D01*
X270761975Y-166803479D01*
X270054099Y-166213582D01*
X270015845Y-166157535D01*
X269906363Y-165829089D01*
X269900000Y-165789877D01*
X269900000Y-165193647D01*
X269905483Y-165157180D01*
X270017231Y-164794000D01*
X270408000Y-163524000D01*
X270535000Y-162635000D01*
X270408000Y-162127000D01*
X270027000Y-161746000D01*
X270026999Y-161745999D01*
X269645999Y-161491999D01*
X269011002Y-161238000D01*
X269010997Y-161237999D01*
X267995002Y-161364999D01*
X267994997Y-161365001D01*
X267755228Y-161604771D01*
X267723001Y-161627999D01*
X266996998Y-161991000D01*
X266959080Y-162002845D01*
X266114045Y-162123564D01*
X266066435Y-162121108D01*
X265637329Y-162013832D01*
X265589813Y-161990259D01*
X265556494Y-161948988D01*
X265341091Y-161518182D01*
X265328000Y-161462728D01*
X265328000Y-160364266D01*
X265331702Y-160334192D01*
X265436955Y-159913179D01*
X265469572Y-159855572D01*
X265527178Y-159822955D01*
X265948192Y-159717702D01*
X265978266Y-159714000D01*
X266967818Y-159714000D01*
X266990000Y-159716000D01*
G37*
%TD.AperFunction*%
%TA.AperFunction,Conductor*%
G36*
X282245182Y-182587091D02*
G01*
X282709002Y-182819001D01*
X282741229Y-182842229D01*
X283083713Y-183184713D01*
X283116330Y-183242320D01*
X283228237Y-183689950D01*
X283229531Y-183744342D01*
X283113741Y-184323294D01*
X283090029Y-184375105D01*
X282227323Y-185484298D01*
X282208557Y-185503652D01*
X277784944Y-189168931D01*
X277761285Y-189184357D01*
X276796054Y-189666973D01*
X276757058Y-189678967D01*
X276716281Y-189677656D01*
X276139283Y-189562256D01*
X276108147Y-189551573D01*
X275641182Y-189318091D01*
X275597436Y-189281582D01*
X275524517Y-189184357D01*
X275253756Y-188823342D01*
X275229915Y-188764323D01*
X275107194Y-187782552D01*
X275106851Y-187779511D01*
X274983020Y-186541205D01*
X274991274Y-186482814D01*
X275227175Y-185893062D01*
X275245478Y-185861652D01*
X275531878Y-185503652D01*
X275735669Y-185248913D01*
X275749533Y-185234219D01*
X278265595Y-182969764D01*
X278302492Y-182946803D01*
X278894827Y-182709869D01*
X278940880Y-182701000D01*
X281076000Y-182701000D01*
X281698960Y-182576408D01*
X281723278Y-182574000D01*
X282189728Y-182574000D01*
X282245182Y-182587091D01*
G37*
%TD.AperFunction*%
%TA.AperFunction,Conductor*%
G36*
X266723389Y-171022321D02*
G01*
X266756239Y-171037826D01*
X267098838Y-171266225D01*
X267112431Y-171276716D01*
X267391750Y-171525000D01*
X268249020Y-172287018D01*
X269259147Y-173170880D01*
X269270171Y-173181818D01*
X270264090Y-174299976D01*
X270289048Y-174343145D01*
X270394929Y-174660788D01*
X270401292Y-174700000D01*
X270394929Y-174739212D01*
X270163256Y-175434230D01*
X270133300Y-175482699D01*
X269543287Y-176072713D01*
X269485680Y-176105330D01*
X269025808Y-176220298D01*
X268995734Y-176224000D01*
X268386263Y-176224000D01*
X268365878Y-176222313D01*
X267614000Y-176097000D01*
X264312000Y-176097000D01*
X263950606Y-176217464D01*
X263589212Y-176337929D01*
X263550000Y-176344292D01*
X263510788Y-176337929D01*
X262821464Y-176108154D01*
X262765417Y-176069900D01*
X262181741Y-175369489D01*
X262160406Y-175332319D01*
X262153000Y-175290106D01*
X262153000Y-174360333D01*
X262159363Y-174321121D01*
X262177800Y-174285933D01*
X262527708Y-173819388D01*
X262541615Y-173803785D01*
X264941834Y-171529893D01*
X264952687Y-171520734D01*
X265434971Y-171159021D01*
X265479287Y-171137928D01*
X265948191Y-171020702D01*
X265978266Y-171017000D01*
X266687456Y-171017000D01*
X266723389Y-171022321D01*
G37*
%TD.AperFunction*%
%TA.AperFunction,Conductor*%
G36*
X269284089Y-182707363D02*
G01*
X269630247Y-182822749D01*
X269659817Y-182837211D01*
X270006364Y-183068243D01*
X270026085Y-183081390D01*
X270027884Y-183082612D01*
X271668816Y-184218641D01*
X271685901Y-184232901D01*
X272273803Y-184820803D01*
X272544279Y-185091279D01*
X272575827Y-185144895D01*
X272816229Y-185986302D01*
X272821000Y-186020367D01*
X272821000Y-186469667D01*
X272814637Y-186508879D01*
X272796200Y-186544067D01*
X272460862Y-186991183D01*
X272407714Y-187031914D01*
X271834695Y-187261121D01*
X271773263Y-187269032D01*
X270837554Y-187152069D01*
X270793463Y-187137835D01*
X270757675Y-187108410D01*
X270154001Y-186384001D01*
X270154000Y-186384000D01*
X269265000Y-185622000D01*
X269264998Y-185621999D01*
X268157249Y-185375833D01*
X268096467Y-185342467D01*
X267642099Y-184888099D01*
X267619523Y-184857158D01*
X267607467Y-184820803D01*
X267490736Y-184120417D01*
X267491457Y-184075714D01*
X267609189Y-183487054D01*
X267627607Y-183442589D01*
X267854245Y-183102631D01*
X267888631Y-183068246D01*
X268235182Y-182837211D01*
X268264753Y-182822749D01*
X268610911Y-182707363D01*
X268650123Y-182701000D01*
X269244877Y-182701000D01*
X269284089Y-182707363D01*
G37*
%TD.AperFunction*%
%TA.AperFunction,Conductor*%
G36*
X279825089Y-189819363D02*
G01*
X280515173Y-190049391D01*
X280559923Y-190075779D01*
X280589935Y-190118182D01*
X280941486Y-190938468D01*
X280950897Y-190974976D01*
X281075825Y-192224257D01*
X281076125Y-192227760D01*
X281203000Y-194004000D01*
X281456999Y-194511999D01*
X281457000Y-194512000D01*
X283743000Y-196290000D01*
X284754397Y-196542849D01*
X284763501Y-196545500D01*
X285486265Y-196786421D01*
X285517972Y-196802342D01*
X285543872Y-196826591D01*
X285915062Y-197290577D01*
X286007859Y-197406574D01*
X286033785Y-197466500D01*
X286154754Y-198313278D01*
X286156000Y-198330814D01*
X286156000Y-199042667D01*
X286149637Y-199081879D01*
X286131200Y-199117067D01*
X285789573Y-199572568D01*
X285754171Y-199604497D01*
X285457822Y-199782306D01*
X285161472Y-199960116D01*
X285115212Y-199976541D01*
X284275045Y-200096564D01*
X284227435Y-200094108D01*
X283286334Y-199858833D01*
X283241531Y-199837376D01*
X283208746Y-199800056D01*
X283078753Y-199572568D01*
X282736310Y-198973293D01*
X282722928Y-198938679D01*
X282473000Y-197814000D01*
X282346000Y-197560000D01*
X279806000Y-195147000D01*
X278173367Y-194142302D01*
X278141527Y-194114158D01*
X277669446Y-193524057D01*
X277643032Y-193460289D01*
X277519999Y-192352992D01*
X277499745Y-192211217D01*
X277398477Y-191502339D01*
X277398832Y-191464945D01*
X277410320Y-191429359D01*
X277761821Y-190726356D01*
X277795263Y-190684989D01*
X278402499Y-190199200D01*
X278416144Y-190189713D01*
X279014548Y-189830670D01*
X279078345Y-189813000D01*
X279785877Y-189813000D01*
X279825089Y-189819363D01*
G37*
%TD.AperFunction*%
%TA.AperFunction,Conductor*%
G36*
X263953172Y-159468869D02*
G01*
X264535645Y-159701858D01*
X264586421Y-159739527D01*
X264792828Y-159997535D01*
X264813010Y-160033952D01*
X264820000Y-160074997D01*
X264820000Y-163867456D01*
X264814679Y-163903389D01*
X264799174Y-163936239D01*
X264584265Y-164258601D01*
X264536546Y-164300727D01*
X264084181Y-164526909D01*
X264028728Y-164540000D01*
X263570123Y-164540000D01*
X263530911Y-164533637D01*
X263184753Y-164418251D01*
X263155182Y-164403788D01*
X262615173Y-164043782D01*
X262584756Y-164015008D01*
X262413708Y-163786944D01*
X262401999Y-163767998D01*
X262293091Y-163550182D01*
X262280000Y-163494728D01*
X262280000Y-160750123D01*
X262286363Y-160710911D01*
X262286362Y-160710911D01*
X262517759Y-160016721D01*
X262541718Y-159974693D01*
X262579936Y-159945031D01*
X263042000Y-159714000D01*
X263523817Y-159473091D01*
X263579272Y-159460000D01*
X263907120Y-159460000D01*
X263953172Y-159468869D01*
G37*
%TD.AperFunction*%
%TA.AperFunction,Conductor*%
G36*
X279574172Y-159722869D02*
G01*
X280163368Y-159958547D01*
X280204997Y-159985997D01*
X281456989Y-161237990D01*
X281456996Y-161237996D01*
X281457000Y-161238000D01*
X282473000Y-162127000D01*
X283108000Y-162254000D01*
X285124734Y-162254000D01*
X285154808Y-162257702D01*
X285634796Y-162377699D01*
X285660176Y-162387088D01*
X285856060Y-162485030D01*
X285894281Y-162514693D01*
X285918242Y-162556726D01*
X286146260Y-163240782D01*
X286150936Y-163300379D01*
X286036567Y-163986594D01*
X286021826Y-164027887D01*
X285993637Y-164061468D01*
X285669791Y-164331340D01*
X285620482Y-164356379D01*
X284906937Y-164534765D01*
X284864525Y-164537852D01*
X284084195Y-164459819D01*
X283616000Y-164413000D01*
X283615997Y-164413000D01*
X281491345Y-164413000D01*
X281427549Y-164395329D01*
X280840504Y-164043102D01*
X280808333Y-164015296D01*
X280198545Y-163270000D01*
X279679000Y-162635000D01*
X279425000Y-162381000D01*
X279107498Y-162317499D01*
X278154998Y-162126999D01*
X277139002Y-162253999D01*
X276249999Y-162508000D01*
X276249998Y-162508000D01*
X275488000Y-163269999D01*
X275243452Y-163881369D01*
X275216002Y-163922997D01*
X274751532Y-164387467D01*
X274690750Y-164420833D01*
X274181399Y-164534022D01*
X274127601Y-164534022D01*
X273605611Y-164418024D01*
X273563727Y-164400151D01*
X273257217Y-164195811D01*
X273216672Y-164151147D01*
X273202000Y-164092637D01*
X273202000Y-163045272D01*
X273215091Y-162989818D01*
X273431637Y-162556726D01*
X273579550Y-162260898D01*
X273587277Y-162247583D01*
X273829069Y-161884896D01*
X273847427Y-161863224D01*
X275855817Y-159980358D01*
X275885166Y-159959916D01*
X276350818Y-159727091D01*
X276406272Y-159714000D01*
X279528120Y-159714000D01*
X279574172Y-159722869D01*
G37*
%TD.AperFunction*%
%TA.AperFunction,Conductor*%
G36*
X269514387Y-196542846D02*
G01*
X269523518Y-196545506D01*
X269872231Y-196661743D01*
X269920699Y-196691699D01*
X270139771Y-196910771D01*
X270162999Y-196942998D01*
X270391017Y-197399035D01*
X270429748Y-197476497D01*
X270521909Y-197660818D01*
X270535000Y-197716272D01*
X270535000Y-198565737D01*
X270533313Y-198586122D01*
X270408000Y-199338000D01*
X270529104Y-199943522D01*
X270526741Y-200001905D01*
X270292459Y-200821892D01*
X270275375Y-200858129D01*
X270247630Y-200887027D01*
X269793032Y-201227975D01*
X269748707Y-201249073D01*
X269514257Y-201307685D01*
X269279807Y-201366298D01*
X269249734Y-201370000D01*
X268427362Y-201370000D01*
X268379909Y-201360561D01*
X268339681Y-201333681D01*
X268001233Y-200995233D01*
X267989714Y-200981952D01*
X267638800Y-200514067D01*
X267620363Y-200478879D01*
X267614000Y-200439667D01*
X267614000Y-197476497D01*
X267620990Y-197435452D01*
X267641172Y-197399035D01*
X267817200Y-197179000D01*
X268104989Y-196819263D01*
X268146356Y-196785821D01*
X268622116Y-196547941D01*
X268638358Y-196541214D01*
X268638357Y-196541214D01*
X268976746Y-196428417D01*
X269046028Y-196425757D01*
X269514387Y-196542846D01*
G37*
%TD.AperFunction*%
%TA.AperFunction,Conductor*%
G36*
X274694552Y-189554507D02*
G01*
X274751414Y-189578060D01*
X274900047Y-189689535D01*
X275203012Y-189916759D01*
X275229206Y-189943455D01*
X275246249Y-189976747D01*
X275358559Y-190313678D01*
X275362514Y-190328572D01*
X275483136Y-190931681D01*
X275483136Y-190980317D01*
X275365212Y-191569939D01*
X275349949Y-191609419D01*
X275003600Y-192186666D01*
X274974861Y-192219593D01*
X274936483Y-192240505D01*
X274217999Y-192479999D01*
X273075000Y-193242000D01*
X273074999Y-193242001D01*
X272839717Y-193830207D01*
X272813905Y-193870166D01*
X272774947Y-193897467D01*
X271702046Y-194374313D01*
X271651685Y-194385000D01*
X271063123Y-194385000D01*
X271023911Y-194378637D01*
X270324516Y-194145505D01*
X270286138Y-194124593D01*
X270257399Y-194091665D01*
X269919706Y-193528843D01*
X269905614Y-193494621D01*
X269902249Y-193457764D01*
X270025727Y-191358639D01*
X270035539Y-191317075D01*
X270179864Y-190980317D01*
X270395757Y-190476564D01*
X270432267Y-190428586D01*
X271025733Y-189953812D01*
X271063976Y-189933007D01*
X271794402Y-189689532D01*
X271816058Y-189684420D01*
X272685278Y-189560245D01*
X272702814Y-189559000D01*
X273328999Y-189559000D01*
X273329000Y-189559000D01*
X273813436Y-189437890D01*
X273861045Y-189435435D01*
X274694552Y-189554507D01*
G37*
%TD.AperFunction*%
%TA.AperFunction,Conductor*%
G36*
X269164182Y-178015091D02*
G01*
X269628002Y-178247001D01*
X269660229Y-178270229D01*
X269885771Y-178495771D01*
X269908999Y-178527998D01*
X270013909Y-178737818D01*
X270027000Y-178793272D01*
X270027000Y-180119667D01*
X270020637Y-180158879D01*
X270002200Y-180194067D01*
X269669240Y-180638012D01*
X269642544Y-180664206D01*
X269609252Y-180681249D01*
X268502999Y-181050000D01*
X267995000Y-181431000D01*
X267613998Y-181939001D01*
X266979000Y-183208999D01*
X266979000Y-184225001D01*
X267359999Y-185494999D01*
X267593174Y-185844761D01*
X267608679Y-185877611D01*
X267614000Y-185913544D01*
X267614000Y-186354728D01*
X267600909Y-186410182D01*
X267368999Y-186874002D01*
X267345771Y-186906229D01*
X266888319Y-187363681D01*
X266848091Y-187390561D01*
X266800638Y-187400000D01*
X265605880Y-187400000D01*
X265559828Y-187391131D01*
X264969098Y-187154839D01*
X264929745Y-187129608D01*
X264679631Y-186892000D01*
X262429441Y-184754319D01*
X262397211Y-184703634D01*
X262159363Y-183990088D01*
X262153000Y-183950877D01*
X262153000Y-183514362D01*
X262162439Y-183466909D01*
X262189319Y-183426681D01*
X262189319Y-183426680D01*
X262407000Y-183209000D01*
X262407000Y-180669000D01*
X262159363Y-179926089D01*
X262153000Y-179886877D01*
X262153000Y-179313333D01*
X262159363Y-179274121D01*
X262177800Y-179238933D01*
X262528714Y-178771048D01*
X262540233Y-178757767D01*
X263142452Y-178155548D01*
X263171623Y-178133901D01*
X263205815Y-178121637D01*
X263791960Y-178004408D01*
X263816278Y-178002000D01*
X269108728Y-178002000D01*
X269164182Y-178015091D01*
G37*
%TD.AperFunction*%
M02*
