M48
; DRILL file {KiCad 7.0.1-0} date 2023 July 16, Sunday 16:48:50
; FORMAT={-:-/ absolute / metric / decimal}
; #@! TF.CreationDate,2023-07-16T16:48:50+03:00
; #@! TF.GenerationSoftware,Kicad,Pcbnew,7.0.1-0
; #@! TF.FileFunction,Plated,1,2,PTH
FMAT,2
METRIC
; #@! TA.AperFunction,Plated,PTH,ComponentDrill
T1C0.700
; #@! TA.AperFunction,Plated,PTH,ComponentDrill
T2C0.762
; #@! TA.AperFunction,Plated,PTH,ComponentDrill
T3C0.800
; #@! TA.AperFunction,Plated,PTH,ComponentDrill
T4C0.900
; #@! TA.AperFunction,Plated,PTH,ComponentDrill
T5C1.000
; #@! TA.AperFunction,Plated,PTH,ComponentDrill
T6C1.200
; #@! TA.AperFunction,Plated,PTH,ComponentDrill
T7C1.300
; #@! TA.AperFunction,Plated,PTH,ViaDrill
T8C1.904
; #@! TA.AperFunction,Plated,PTH,ViaDrill
T9C3.945
%
G90
G05
T1
X263.55Y-184.098
X263.55Y-189.178
X266.09Y-191.337
X266.598Y-181.939
X271.17Y-191.337
X271.678Y-181.939
X274.218Y-163.143
X274.218Y-168.223
X276.504Y-174.7
X276.504Y-179.78
X279.425Y-176.986
X284.505Y-176.986
T2
X263.492Y-196.028
X263.677Y-175.208
X263.677Y-179.018
X266.09Y-193.242
X268.757Y-175.208
X268.757Y-179.018
X269.104Y-197.756
X271.17Y-193.115
X274.345Y-173.176
X274.345Y-176.986
X279.298Y-160.73
X279.298Y-179.145
X279.298Y-184.225
X279.393Y-174.815
X280.236Y-193.067
X281.838Y-184.139
X283.948Y-193.925
X283.997Y-172.668
X284.378Y-160.73
X284.378Y-179.739
X284.632Y-163.778
X284.632Y-167.588
T3
X266.344Y-186.384
X266.471Y-160.73
X268.884Y-183.844
X268.884Y-188.924
X274.091Y-191.345
X276.631Y-160.73
X276.631Y-188.805
X276.758Y-170.128
X279.171Y-191.345
X279.298Y-172.668
X281.838Y-170.128
T4
X271.678Y-163.27
X271.805Y-186.13
X276.631Y-186.13
X284.378Y-186.13
T5
X263.677Y-160.603
X269.011Y-200.1
X271.678Y-165.551
X271.678Y-179.521
T6
X281.838Y-163.016
X281.838Y-168.096
T7
X263.884Y-163.016
X266.384Y-173.016
X268.884Y-163.016
X274.171Y-195.718
X274.171Y-200.718
X284.171Y-198.218
T8
X280.695Y-165.556
T9
X278.028Y-165.683
T0
M30
